<svg xmlns="http://www.w3.org/2000/svg" width="20" height="20" viewBox="0 0 20 20" fill="none">
  <path d="M18 10C18 14.4183 14.4183 18 10 18C5.58172 18 2 14.4183 2 10C2 5.58172 5.58172 2 10 2C14.4183 2 18 5.58172 18 10Z" fill="#FF5310"/>
  <path d="M11.4144 12.8284C11.805 13.2189 12.4381 13.2189 12.8287 12.8284C13.2192 12.4379 13.2192 11.8047 12.8287 11.4142L11.4144 9.99998L12.8287 8.58577C13.2192 8.19524 13.2192 7.56208 12.8287 7.17156C12.4381 6.78103 11.805 6.78103 11.4144 7.17156L10.0002 8.58577L8.58601 7.17156C8.19549 6.78103 7.56232 6.78103 7.1718 7.17156C6.78128 7.56208 6.78128 8.19524 7.1718 8.58577L8.58601 9.99998L7.1718 11.4142C6.78128 11.8047 6.78128 12.4379 7.1718 12.8284C7.56232 13.2189 8.19549 13.2189 8.58601 12.8284L10.0002 11.4142L11.4144 12.8284Z" fill="white"/>
</svg>
