<svg width="64" height="64" viewBox="0 0 64 64" fill="none" xmlns="http://www.w3.org/2000/svg">
<rect width="64" height="64" rx="32" fill="#BBBBBB"/>
<path d="M37.6207 26.4263L58.9615 23.594C59.4926 23.525 59.8107 24.1759 59.434 24.5565L54.7794 29.2309C54.4237 29.5878 54.6738 30.1993 55.1739 30.1993C55.6734 30.1993 55.9234 30.8107 55.5683 31.1677L51.2064 35.5482C51.1339 35.6211 51.0443 35.6705 50.9464 35.6961L36.0977 39.4553C35.9772 39.4869 35.8698 39.5559 35.7935 39.6545L33.4954 42.6031C32.9663 43.252 32.3942 43.8358 32.3942 43.8358C32.1755 44.0547 31.8221 44.0547 31.6034 43.8358C31.6034 43.8358 30.9122 43.1751 30.5023 42.6031L28.2041 39.6545C28.126 39.5559 28.0207 39.4849 27.8996 39.4553L13.0529 35.6961C12.9534 35.6705 12.8655 35.6192 12.7933 35.5482L8.43145 31.1677C8.07608 30.8107 8.32601 30.1993 8.82582 30.1993C9.32568 30.1993 9.57561 29.5878 9.22024 29.2309L4.56555 24.5565C4.18479 24.1759 4.50304 23.523 5.0341 23.594L26.3747 26.4282C26.4957 26.444 26.609 26.5012 26.6969 26.588L28.4541 28.3512C28.6728 28.5702 29.0262 28.5702 29.2449 28.3512L29.5533 28.0416C29.7739 27.8207 29.7739 27.4597 29.5533 27.2388L27.4563 25.1324C27.2357 24.9115 27.2357 24.5506 27.4563 24.3297L31.6034 20.1642C31.8221 19.9453 32.1755 19.9453 32.3942 20.1642L36.5414 24.3297C36.7621 24.5506 36.7621 24.9115 36.5414 25.1324L34.4421 27.2369C34.2219 27.4578 34.2219 27.8187 34.4421 28.0396L34.7507 28.3493C34.9692 28.5682 35.3227 28.5682 35.5418 28.3493L37.2987 26.586C37.3867 26.4992 37.5001 26.4421 37.6207 26.4263Z" fill="white"/>
</svg>
