<svg xmlns="http://www.w3.org/2000/svg" viewBox="0 0 1000 1000">
  <circle cx="500" cy="500" r="500" fill="black"/>
  <path
    d="M500 230.769C351.538 230.769 230.769 351.538 230.769 500C230.769 617.692 309.231 717.692 417.692 755.385C432.308 757.692 437.692 748.462 437.692 740.769C437.692 734.615 437.692 715.385 437.692 686.154C361.538 703.077 346.154 642.308 346.154 642.308C334.615 607.692 317.692 598.462 317.692 598.462C294.615 577.692 319.231 577.692 319.231 577.692C344.615 579.231 357.692 610.769 357.692 610.769C380.769 663.077 425.385 644.615 438.462 637.692C440.769 615.385 448.462 600 457.692 591.538C396.923 583.077 332.308 557.692 332.308 455.385C332.308 421.538 342.308 394.615 358.462 372.308C355.385 365.385 346.154 338.462 361.538 300.769C361.538 300.769 386.154 293.846 437.692 328.462C458.462 322.308 480.769 319.231 503.077 319.231C525.385 319.231 547.692 322.308 568.462 328.462C620 293.846 644.615 300.769 644.615 300.769C660 338.462 650.769 365.385 647.692 372.308C663.846 394.615 673.846 421.538 673.846 455.385C673.846 557.692 609.231 581.538 546.923 590C558.462 600.769 568.462 622.308 568.462 655.385C568.462 703.077 568.462 732.308 568.462 740.769C568.462 748.462 573.846 757.692 588.462 755.385C696.923 717.692 775.385 617.692 775.385 500C775.385 351.538 654.615 230.769 506.154 230.769H500Z"
    fill="white"
  />
  <circle cx="400" cy="500" r="30" fill="black"/>
  <circle cx="600" cy="500" r="30" fill="black"/>
</svg>
