<svg xmlns="http://www.w3.org/2000/svg" width="80" height="80" viewBox="0 0 80 80" fill="none">
  <path d="M40 80C62.0914 80 80 62.0914 80 40C80 17.9086 62.0914 0 40 0C17.9086 0 0 17.9086 0 40C0 62.0914 17.9086 80 40 80Z" fill="url(#paint0_radial_5392_8932)"/>
  <path d="M67.9997 40V40.7393C63.4302 41.4673 53.6189 43.1584 48.7918 45.0064C47.0669 45.6673 45.7006 47.0224 45.0286 48.736C43.1806 53.5409 41.4669 63.408 40.7389 68H39.2606C38.5326 63.408 36.8189 53.5409 34.9709 48.736C34.2989 47.0224 32.9213 45.656 31.2078 45.0064C26.3806 43.1584 16.5693 41.4673 11.9998 40.7393V39.2609C16.5693 38.5329 26.3806 36.8416 31.2078 34.9936C32.9326 34.3329 34.2989 32.9776 34.9709 31.264C36.8189 26.4593 38.5326 16.592 39.2606 12H40.7389C41.4669 16.592 43.1806 26.4593 45.0286 31.264C45.7006 32.9776 47.0782 34.344 48.7918 34.9936C53.6189 36.8416 63.4302 38.5329 67.9997 39.2609V40Z" fill="white"/>
  <defs>
    <radialGradient id="paint0_radial_5392_8932" cx="0" cy="0" r="1" gradientUnits="userSpaceOnUse" gradientTransform="translate(2.01233 75.5729) scale(92.0089)">
      <stop offset="0.0533191" stop-color="#D7D3E9"/>
      <stop offset="0.1933" stop-color="#A19CDE"/>
      <stop offset="0.3834" stop-color="#696BD9"/>
      <stop offset="0.54" stop-color="#3A5AE7"/>
      <stop offset="0.7735" stop-color="#225FE7"/>
      <stop offset="1" stop-color="#0883D1"/>
    </radialGradient>
  </defs>
</svg>
