<svg width="64" height="64" viewBox="0 0 64 64" fill="none" xmlns="http://www.w3.org/2000/svg">
<g clip-path="url(#clip0_17903_41983)">
<path d="M32 64C49.6731 64 64 49.6731 64 32C64 14.3269 49.6731 0 32 0C14.3269 0 0 14.3269 0 32C0 49.6731 14.3269 64 32 64Z" fill="#FF8C00"/>
<path d="M31.9988 9.00586C22.4902 9.00586 14.7188 16.7316 14.7188 26.2859C14.7188 28.2059 15.0388 30.0801 15.633 31.9087C16.0445 33.143 17.4159 33.8287 18.6959 33.4173C19.9302 33.0059 20.6159 31.6344 20.2045 30.3544C19.7016 28.9373 19.473 27.4287 19.5188 25.9201C19.7016 19.4744 24.913 14.1716 31.3587 13.8516C38.5359 13.4859 44.4788 19.2001 44.4788 26.2859C44.4788 32.9144 39.2673 38.3544 32.7302 38.7201C32.7302 38.7201 30.3073 38.8573 29.1187 39.0401C28.5245 39.1316 28.0673 39.223 27.7473 39.2687C27.6102 39.3144 27.473 39.1773 27.5187 39.0401L27.9302 37.0287L30.1702 26.6973C30.4445 25.4173 29.6216 24.1373 28.3416 23.863C27.0616 23.5887 25.7816 24.4116 25.5073 25.6916C25.5073 25.6916 20.113 50.8344 20.0673 51.1087C19.793 52.3887 20.6159 53.6687 21.8959 53.943C23.1759 54.2173 24.4559 53.3944 24.7302 52.1144C24.7759 51.8401 25.5073 48.503 25.5073 48.503C26.0559 45.943 28.1588 44.0687 30.6273 43.7487C31.1759 43.6573 33.3245 43.5201 33.3245 43.5201C42.2388 42.8344 49.2788 35.383 49.2788 26.2859C49.2788 16.7316 41.5073 9.00586 31.9988 9.00586ZM33.233 48.7773C31.6787 48.4573 30.1245 49.4173 29.8045 51.0173C29.4845 52.5716 30.4445 54.1259 32.0445 54.4459C33.5988 54.7659 35.153 53.8059 35.473 52.2059C35.793 50.6059 34.833 49.0973 33.233 48.7773Z" fill="white"/>
</g>
<defs>
<clipPath id="clip0_17903_41983">
<rect width="64" height="64" fill="white"/>
</clipPath>
</defs>
</svg>
