<svg width="64" height="64" viewBox="0 0 64 64" fill="none" xmlns="http://www.w3.org/2000/svg">
<g id="Group">
<path id="Vector" d="M32 64C49.6731 64 64 49.6731 64 32C64 14.3269 49.6731 0 32 0C14.3269 0 0 14.3269 0 32C0 49.6731 14.3269 64 32 64Z" fill="#2700FF" fill-opacity="0.05"/>
<g id="Group_2">
<path id="Vector_2" opacity="0.2" d="M32.0002 9.00562C22.4916 9.00562 14.7202 16.7313 14.7202 26.2856C14.7202 28.2056 15.0402 30.0799 15.6345 31.9085C16.0459 33.1428 17.4174 33.8285 18.6974 33.417C19.9316 33.0056 20.6174 31.6342 20.2059 30.3542C19.7031 28.937 19.4745 27.4285 19.5202 25.9199C19.7031 19.4742 24.9145 14.1713 31.3602 13.8513C38.5374 13.4856 44.4802 19.1999 44.4802 26.2856C44.4802 32.9142 39.2688 38.3542 32.7316 38.7199C32.7316 38.7199 30.3088 38.857 29.1202 39.0399C28.5259 39.1313 28.0688 39.2228 27.7488 39.2685C27.6116 39.3142 27.4745 39.177 27.5202 39.0399L27.9316 37.0285L30.1716 26.697C30.4459 25.417 29.6231 24.137 28.3431 23.8628C27.0631 23.5885 25.7831 24.4113 25.5088 25.6913C25.5088 25.6913 20.1145 50.8342 20.0688 51.1085C19.7945 52.3885 20.6174 53.6685 21.8974 53.9428C23.1774 54.217 24.4574 53.3942 24.7316 52.1142C24.7774 51.8399 25.5088 48.5028 25.5088 48.5028C26.0574 45.9428 28.1602 44.0685 30.6288 43.7485C31.1774 43.657 33.3259 43.5199 33.3259 43.5199C42.2402 42.8342 49.2802 35.3828 49.2802 26.2856C49.2802 16.7313 41.5088 9.00562 32.0002 9.00562ZM33.2345 48.777C31.6802 48.457 30.1259 49.417 29.8059 51.017C29.4859 52.5713 30.4459 54.1256 32.0459 54.4456C33.6002 54.7656 35.1545 53.8056 35.4745 52.2056C35.7945 50.6056 34.8345 49.097 33.2345 48.777Z" fill="#151F34"/>
</g>
</g>
</svg>
