<svg fill="none" height="64" viewBox="0 0 64 64" width="64" xmlns="http://www.w3.org/2000/svg"><path clip-rule="evenodd" d="m50.1165 35.6633c.6081 1.3242 2.3986 1.792 3.429.7616l1.8899-1.89c1.9527-1.9526 5.1185-1.9526 7.0711 0 1.9526 1.9527 1.9526 5.1185 0 7.0711l-15.2728 15.2727c-3.6687 4.3546-9.1623 7.1213-15.3021 7.1213-6.4023 0-12.102-3.0084-15.7627-7.6886l-14.70445-14.7045c-1.952616-1.9526-1.952609-5.1184 0-7.071 1.95261-1.9526 5.11842-1.9526 7.07103 0l1.86062 1.8606c1.0083 1.0083 2.7586.5547 3.3542-.7408.1177-.256.1816-.5307.1816-.8124v-22.8434c0-2.76141 2.2386-4.99998 5-4.99998s5 2.23855 5 4.99998v11.5569c0 .9942 1.0184 1.669 1.9664 1.3695.6-.1896 1.0334-.7359 1.0334-1.3651v-18.56121c0-2.76141 2.2386-4.99997706 5-4.99997778 2.7614-.00000073 4.9999 2.23855778 4.9999 4.99996778v18.56122c0 .6292.4335 1.1755 1.0335 1.3651.9479.2996 1.9664-.3752 1.9664-1.3694v-11.557c0-2.76142 2.2385-4.99999 4.9999-4.99999s5 2.23856 5 4.99999v22.8353c0 .2872.0652.5671.1851.8281z" fill="#005773" fill-rule="evenodd"/><path d="m47.9325 45.9998s-7.1634 9.9999-16 9.9999c-8.8365 0-15.9999-9.9999-15.9999-9.9999s7.1634-10 15.9999-10c8.8366 0 16 10 16 10z" fill="#fd8fff"/><g stroke-width="1.00266"><path d="m39.431 45.9997c0 4.1414-3.3573 7.4987-7.4987 7.4987-4.1413 0-7.4986-3.3573-7.4986-7.4987 0-4.1413 3.3573-7.4986 7.4986-7.4986 4.1414 0 7.4987 3.3573 7.4987 7.4986z" stroke="#005773"/><path d="m36.4308 45.9998c0 2.4846-2.0142 4.4987-4.4987 4.4987s-4.4986-2.0141-4.4986-4.4987c0-2.4845 2.0141-4.4986 4.4986-4.4986s4.4987 2.0141 4.4987 4.4986z" stroke="#005773"/><path d="m42.4312 45.9997c0 5.7982-4.7004 10.4986-10.4986 10.4986-5.7983 0-10.4986-4.7004-10.4987-10.4986 0-5.7982 4.7004-10.4986 10.4987-10.4986 5.7982 0 10.4986 4.7004 10.4986 10.4986z" stroke="#005773"/><path d="m45.4309 45.9996c0 7.4551-6.0435 13.4986-13.4986 13.4986s-13.4986-6.0435-13.4986-13.4986 6.0435-13.4986 13.4986-13.4986 13.4986 6.0435 13.4986 13.4986z" stroke="#005773"/><path d="m33.431 45.9996c0 .8277-.6709 1.4987-1.4986 1.4987s-1.4987-.671-1.4987-1.4987.671-1.4987 1.4987-1.4987 1.4986.671 1.4986 1.4987z" fill="#09ffc4" stroke="#005773"/><path d="m33.431 45.9996c0 .8277-.6709 1.4987-1.4986 1.4987s-1.4987-.671-1.4987-1.4987.671-1.4987 1.4987-1.4987 1.4986.671 1.4986 1.4987z" fill="#09ffc4" stroke="#005773"/><path d="m16.6531 46.1213c-.034-.0437-.0654-.0843-.094-.1215.0286-.0373.06-.0779.094-.1215.2086-.2676.5176-.6517.9163-1.1133.798-.9241 1.9524-2.1556 3.3771-3.3857 2.8651-2.4738 6.7493-4.8782 10.986-4.8782s8.121 2.4044 10.9861 4.8781c1.4247 1.2302 2.579 2.4617 3.3771 3.3857.3987.4617.7077.8458.9163 1.1134.034.0436.0654.0842.094.1215-.0286.0372-.06.0778-.094.1214-.2086.2676-.5176.6517-.9163 1.1134-.7981.9241-1.9524 2.1555-3.3771 3.3857-2.8651 2.4737-6.7493 4.8781-10.9861 4.8781-4.2367 0-8.1209-2.4044-10.986-4.8781-1.4247-1.2302-2.5791-2.4616-3.3771-3.3857-.3987-.4617-.7077-.8458-.9163-1.1133z" stroke="#fd8fff"/></g></svg>