<svg width="64" height="64" viewBox="0 0 64 64" fill="none" xmlns="http://www.w3.org/2000/svg">
<circle cx="32" cy="32" r="32" fill="#2700FF" fill-opacity="0.05"/>
<g opacity="0.2">
<path fill-rule="evenodd" clip-rule="evenodd" d="M47.6492 34.611C46.9246 35.3357 45.6653 35.0066 45.2376 34.0755C45.1534 33.8919 45.1075 33.6951 45.1075 33.4929V17.4375C45.1075 15.4959 43.5336 13.9219 41.5919 13.9219C39.6503 13.9219 38.0762 15.4959 38.0762 17.4375V25.5637C38.0762 26.2624 37.3604 26.7368 36.6942 26.5262C36.2725 26.3929 35.9678 26.009 35.9678 25.5667V12.5156C35.9678 10.574 34.3939 9 32.4522 9C30.5106 9 28.9366 10.574 28.9366 12.5156V25.5658C28.9366 26.0083 28.6317 26.3925 28.2097 26.5259C27.543 26.7365 26.8268 26.2619 26.8268 25.5627V17.4375C26.8268 15.4959 25.2528 13.9219 23.3111 13.9219C21.3695 13.9219 19.7955 15.4959 19.7955 17.4375V33.4986C19.7955 33.6966 19.7505 33.8897 19.6677 34.0697C19.249 34.9806 18.0183 35.2995 17.3095 34.5906L16.0016 33.2827C14.6286 31.9097 12.4027 31.9097 11.0297 33.2827C9.65676 34.6556 9.65677 36.8816 11.0297 38.2545L21.365 48.5899C23.9388 51.8829 27.9479 54 32.4514 54C36.7677 54 40.6298 52.0554 43.2094 48.9945L53.9494 38.2545C55.3223 36.8816 55.3223 34.6556 53.9494 33.2827C52.5764 31.9097 50.3504 31.9097 48.9775 33.2827L47.6492 34.611ZM32.4507 48.3752C38.6639 48.3752 43.7007 41.3439 43.7007 41.3439C43.7007 41.3439 38.6639 34.3125 32.4507 34.3125C26.2374 34.3125 21.2006 41.3439 21.2006 41.3439C21.2006 41.3439 26.2374 48.3752 32.4507 48.3752Z" fill="#151F34"/>
<path d="M36.6703 41.3447C36.6703 43.6745 34.7814 45.5634 32.4515 45.5634C30.1215 45.5634 28.2327 43.6745 28.2327 41.3447C28.2327 39.0148 30.1215 37.1259 32.4515 37.1259C34.7814 37.1259 36.6703 39.0148 36.6703 41.3447Z" fill="#151F34"/>
</g>
</svg>
