<svg width="24" height="24" viewBox="0 0 24 24" fill="none" xmlns="http://www.w3.org/2000/svg">
<path d="M19.5614 17.0403C18.1694 17.0403 17.041 18.1687 17.041 19.5607C17.041 20.9526 18.1694 22.081 19.5614 22.081C20.9533 22.081 22.0818 20.9526 22.0818 19.5607C22.0818 18.1687 20.9533 17.0403 19.5614 17.0403Z" fill="#E6007A"/>
<path d="M5.4 8.15005C6.46219 8.15005 7.325 7.28724 7.325 6.22505C7.325 5.16286 6.46219 4.30005 5.4 4.30005C4.33781 4.30005 3.475 5.16286 3.475 6.22505C3.475 7.28724 4.33781 8.15005 5.4 8.15005Z" fill="black"/>
<path fill-rule="evenodd" clip-rule="evenodd" d="M6.5 13.65C6.5 12.1788 7.14281 10.8554 8.16375 9.9513V9.94786C7.53813 9.50786 6.775 9.25005 5.95 9.25005H4.85C2.72219 9.25005 1 10.9722 1 13.1C1 14.6366 1.90062 15.96 3.2 16.5788V17.5C3.2 18.1085 3.69156 18.6 4.3 18.6H6.5C7.10844 18.6 7.6 18.1085 7.6 17.5V16.761C6.9125 15.9119 6.5 14.8291 6.5 13.65ZM2.65 13.1C2.65 12.5432 2.85625 12.031 3.2 11.646V14.5541C2.85625 14.1691 2.65 13.6569 2.65 13.1Z" fill="black"/>
<path fill-rule="evenodd" clip-rule="evenodd" d="M16.919 15.9786C17.658 15.4327 18.5719 15.1099 19.5611 15.1099C20.4242 15.1099 21.2298 15.3556 21.912 15.7807C22.585 15.0879 23 14.1431 23 13.1C23 10.9722 21.2778 9.25005 19.15 9.25005H18.05C17.225 9.25005 16.4619 9.50786 15.8363 9.94786C16.8572 10.8554 17.5 12.1788 17.5 13.65C17.5 14.492 17.2896 15.2849 16.919 15.9786ZM20.8 14.5575V11.6494C21.1438 12.0344 21.35 12.5466 21.35 13.1035C21.35 13.6604 21.1438 14.1691 20.8 14.5575Z" fill="black"/>
<path d="M18.6 8.15005C19.6622 8.15005 20.525 7.28724 20.525 6.22505C20.525 5.16286 19.6622 4.30005 18.6 4.30005C17.5378 4.30005 16.675 5.16286 16.675 6.22505C16.675 7.28724 17.5378 8.15005 18.6 8.15005Z" fill="black"/>
<path d="M9.8 6.50005C9.8 7.71349 10.7866 8.70005 12 8.70005C13.2134 8.70005 14.2 7.71349 14.2 6.50005C14.2 5.28661 13.2134 4.30005 12 4.30005C10.7866 4.30005 9.8 5.28661 9.8 6.50005Z" fill="black"/>
<path fill-rule="evenodd" clip-rule="evenodd" d="M14.2 17.1288C15.4994 16.51 16.4 15.1866 16.4 13.65C16.4 11.5222 14.6778 9.80005 12.55 9.80005H11.45C9.32219 9.80005 7.6 11.5222 7.6 13.65C7.6 15.1866 8.50063 16.51 9.8 17.1288V18.6C9.8 19.2085 10.2916 19.7 10.9 19.7H13.1C13.7084 19.7 14.2 19.2085 14.2 18.6V17.1288ZM9.8 15.1041C9.45625 14.7157 9.25 14.2069 9.25 13.65C9.25 13.0932 9.45625 12.5844 9.8 12.196V15.1041ZM14.2 15.1075V12.1994C14.5438 12.5844 14.75 13.0966 14.75 13.6535C14.75 14.2104 14.5438 14.7191 14.2 15.1075Z" fill="black"/>
</svg>
