<svg width="24" height="24" viewBox="0 0 24 24" fill="none" xmlns="http://www.w3.org/2000/svg">
  <circle cx="12" cy="12" r="12" fill="#D9D9D9" />
  <circle cx="12" cy="12" r="11" fill="white" />

  <g transform="translate(1.8, 1.8) scale(0.85)" clip-path="url(#clip0_19081_26998)">
    <path d="M20.9964 13.4683C21.2436 13.2214 21.5618 12.9037 21.8776 12.5885C22.5822 11.8851 22.5826 10.7443 21.878 10.0406L21.1316 9.29505C18.4593 11.9642 14.4602 12.5005 11.2543 10.9043C13.4211 11.3044 15.6666 10.9927 17.6565 9.9242C18.9876 9.20925 19.2404 7.40609 18.1717 6.33872L13.7653 1.9376C12.7807 0.954149 11.1844 0.954149 10.2002 1.9376L5.45062 6.68145C8.57854 5.35414 12.336 5.9695 14.8799 8.52792C10.9989 6.6464 6.19106 7.31395 2.96868 10.5321C2.7215 10.779 2.403 11.0971 2.08711 11.4126C1.38289 12.1164 1.38326 13.2565 2.08711 13.9598L2.83314 14.705C5.50551 12.0358 9.50453 11.4995 12.7105 13.0957C10.5437 12.6956 8.2981 13.0073 6.30831 14.0758C4.97716 14.7908 4.72437 16.5939 5.79302 17.6613L10.1994 22.0624C11.1841 23.0459 12.7803 23.0459 13.7646 22.0624L18.5141 17.3186C15.3862 18.6459 11.6288 18.0305 9.0845 15.4721C12.9655 17.3536 17.7733 16.6861 20.9957 13.4679L20.9964 13.4683Z" fill="#E53E76"/>
  </g>
</svg>
