<svg xmlns="http://www.w3.org/2000/svg" width="41" height="41" viewBox="0 0 41 41" fill="none">
  <path d="M33.751 22.7227V23.2227H37.7842C38.2092 23.2227 38.605 23.3413 38.9414 23.5479L39.2012 23.124C39.566 23.3479 39.8725 23.6549 40.0967 24.0195L39.6738 24.2803C39.8805 24.6168 40 25.0132 40 25.4385C40 25.8636 39.8804 26.2592 39.6738 26.5957L40.0967 26.8555C39.8726 27.2203 39.566 27.5269 39.2012 27.751L38.9414 27.3281C38.6049 27.5348 38.2093 27.6542 37.7842 27.6543H34.4355V28.1543H31.5654V27.6543H24.8682V28.1543H21.998V27.6543H15.3008V28.1543H12.4307V27.6543H8.00293L8.70117 28.4775L11.0391 31.2334L11.4199 30.9092L13.4238 33.2715H13.4248L13.043 33.5947L15.3809 36.3506C16.1231 37.2255 16.0687 38.5089 15.29 39.3184L15.125 39.4736C14.2502 40.2159 12.9667 40.1613 12.1572 39.3828L12.001 39.2178L10.168 37.0576L9.78711 37.3799L8.21484 35.5283L8.59668 35.2051L4.93066 30.8848L4.5498 31.207L2.97852 29.3555L3.35938 29.0322L1.52637 26.8721L1.39062 26.6943C1.2645 26.5112 1.16789 26.3127 1.10254 26.1055L0.626953 26.2549C0.533926 25.9597 0.491993 25.6511 0.50293 25.3418L1.00098 25.3594C1.01122 25.0699 1.07869 24.7798 1.20508 24.5068C1.3314 24.2341 1.50876 23.9958 1.72266 23.8008L1.3877 23.4316C1.61622 23.2235 1.87819 23.0555 2.16309 22.9355L2.35742 23.3955C2.62433 23.2832 2.91512 23.2227 3.21582 23.2227H7.24902V22.7227H10.7061V23.2227H18.7715V22.7227H22.2285V23.2227H30.2939V22.7227H33.751ZM36.4492 9.79199L38.0205 11.6436L37.6406 11.9678L39.4736 14.1279C39.6682 14.3572 39.8103 14.6184 39.8975 14.8945L40.3721 14.7441C40.4653 15.0393 40.5069 15.3479 40.4961 15.6572L39.999 15.6406C39.9913 15.8577 39.9516 16.075 39.8789 16.2852L39.7949 16.4932C39.6686 16.7659 39.4912 17.0042 39.2773 17.1992L39.6113 17.5674C39.3827 17.7756 39.121 17.9435 38.8359 18.0635L38.6426 17.6045C38.3757 17.7168 38.0849 17.7773 37.7842 17.7773H33.751V18.2773H30.2939V17.7773H22.2285V18.2773H18.7715V17.7773H10.7061V18.2773H7.24902V17.7773H3.21582C2.79079 17.7773 2.39503 17.6587 2.05859 17.4521L1.79785 17.875C1.43317 17.6509 1.12632 17.3442 0.902344 16.9795L1.32617 16.7197C1.11949 16.3832 1 15.9868 1 15.5615C1.00004 15.1364 1.11955 14.7408 1.32617 14.4043L0.902344 14.1436C1.12634 13.7789 1.43319 13.4721 1.79785 13.248L2.05859 13.6719C2.39508 13.4652 2.79069 13.3458 3.21582 13.3457H6.56445V12.8457H9.43457V13.3457H16.1318V12.8457H19.002V13.3457H25.6992V12.8457H28.5693V13.3457H32.9971L32.2988 12.5225L29.9609 9.7666L29.5791 10.0898L27.5752 7.72754L27.957 7.40527L25.6191 4.64941L25.4814 4.46973C24.8873 3.60587 24.9831 2.43722 25.71 1.68164L25.875 1.52637C26.8082 0.734541 28.2072 0.849002 28.999 1.78223L30.832 3.94238L31.2119 3.61914L32.7842 5.4707V5.47168L32.4033 5.79492L36.0693 10.1152L36.4492 9.79199Z" stroke="#949494" stroke-dasharray="7 3"/>
</svg>
