<svg xmlns="http://www.w3.org/2000/svg" width="42" height="41" viewBox="0 0 42 41" fill="none">
  <path d="M33.6904 31.0361L34.2207 34.1191V34.1201L33.4072 34.2598L34.0254 37.8594V37.8623C34.0427 37.9611 34.051 38.0608 34.0488 38.1602L34.873 38.1777C34.8701 38.3096 34.855 38.4407 34.8301 38.5703L34.0215 38.415C34.0121 38.4637 33.9995 38.5118 33.9854 38.5596L33.9365 38.7012C33.8987 38.7942 33.8517 38.8835 33.7969 38.9668L34.4854 39.4199C34.4126 39.5305 34.3306 39.6345 34.2402 39.7314L33.6377 39.1689C33.6038 39.2053 33.5677 39.2404 33.5303 39.2734L33.4121 39.3682C33.3302 39.4273 33.2425 39.4777 33.1514 39.5195L33.4951 40.2695C33.3748 40.3247 33.25 40.3689 33.1221 40.4033L32.9082 39.6074C32.8113 39.6335 32.7114 39.6503 32.6104 39.6572C32.5598 39.6607 32.5093 39.6616 32.459 39.6602L32.3086 39.6494L32.2051 40.4668C32.0737 40.4502 31.9441 40.423 31.8174 40.3848L32.0557 39.5957C31.9595 39.5667 31.8658 39.5279 31.7764 39.4805L31.7725 39.4785L28.5195 37.7803L28.1377 38.5117H28.1367L25.3486 37.0566L25.7314 36.3242L22.4795 34.626C22.3194 34.5423 22.1531 34.4723 21.9824 34.417L21.7275 35.2031H21.7266C21.6176 35.1679 21.5064 35.1403 21.3936 35.1211H21.3945L21.5322 34.3066C21.3554 34.2766 21.1757 34.2617 20.9951 34.2617C20.8143 34.2617 20.6341 34.2765 20.457 34.3066L20.5957 35.1211C20.4825 35.1403 20.3709 35.1678 20.2617 35.2031L20.0078 34.417C19.9223 34.4447 19.8379 34.4769 19.7549 34.5117L19.5098 34.627L16.2568 36.3291L16.6396 37.0605L13.8516 38.5186L13.4697 37.7881L10.2168 39.4902L10.2119 39.4932C10.1224 39.5407 10.0289 39.5793 9.93262 39.6084L10.1699 40.3975C10.0429 40.4358 9.91295 40.4629 9.78125 40.4795L9.67871 39.6621C9.57886 39.6747 9.4773 39.6779 9.37598 39.6709L9.22461 39.6523C9.1749 39.6439 9.12563 39.6333 9.07715 39.6201L8.86133 40.416C8.73287 40.3812 8.60809 40.3351 8.4873 40.2793L8.83301 39.5322C8.74163 39.4901 8.6543 39.4384 8.57227 39.3789C8.49038 39.3195 8.4147 39.2521 8.34668 39.1787L7.74219 39.7393C7.65199 39.6419 7.56963 39.5378 7.49707 39.4268L8.18848 38.9756C8.13369 38.8918 8.08648 38.8025 8.04883 38.709C8.01125 38.6156 7.98327 38.5189 7.96484 38.4209L7.1543 38.5732C7.12982 38.443 7.1165 38.3112 7.11426 38.1787L7.93848 38.165C7.93678 38.0654 7.94494 37.9651 7.96289 37.8662L7.96387 37.8594L8.58691 34.2529L7.77246 34.1123L8.30566 31.0195L8.30664 31.0205L9.12012 31.1611L9.74219 27.5537V27.5518C9.75735 27.4626 9.76888 27.373 9.77637 27.2832L9.78711 27.0137L8.96191 27.0146H8.96094C8.96071 26.9002 8.95241 26.786 8.93555 26.6729H8.93652L9.75293 26.5518C9.72648 26.374 9.68445 26.1982 9.62793 26.0264L9.5332 25.7725C9.49781 25.6895 9.45822 25.6078 9.41602 25.5283L8.6875 25.916H8.68652C8.63276 25.8147 8.57184 25.7174 8.50391 25.625H8.50488L9.16992 25.1367C9.06352 24.9919 8.94465 24.8552 8.81445 24.7295H8.81348L6.18555 22.1816L5.61133 22.7744H5.61035L3.35645 20.5889L3.93164 19.9961L1.30078 17.4473L1.29785 17.4443L1.19434 17.335C1.1618 17.297 1.13111 17.2576 1.10254 17.2168L0.426758 17.6895C0.350946 17.5812 0.284152 17.467 0.227539 17.3477L0.973633 16.9951C0.930906 16.9052 0.896655 16.8102 0.87207 16.7129C0.84757 16.6158 0.833235 16.517 0.828125 16.418L0.00390625 16.46C-0.00283983 16.3286 0.00132982 16.197 0.0166016 16.0664L0.835938 16.1621C0.847478 16.0635 0.868588 15.9656 0.899414 15.8701C0.930247 15.7747 0.970104 15.6827 1.01855 15.5957L0.297852 15.1943C0.362089 15.079 0.435909 14.9693 0.518555 14.8662L1.16211 15.3828C1.1933 15.3439 1.22675 15.3063 1.26172 15.2705L1.37207 15.168C1.44922 15.103 1.53247 15.0455 1.62012 14.9971L1.2207 14.2754C1.33644 14.2114 1.45721 14.1571 1.58203 14.1133L1.85547 14.8916C1.90282 14.875 1.95108 14.8606 2 14.8486L2.14844 14.8203L5.78223 14.2949L5.66406 13.4785L5.66309 13.4775L8.7793 13.0283L8.89746 13.8457L12.5312 13.3213C12.711 13.2954 12.8879 13.2537 13.0596 13.1982L12.8057 12.4131L12.8047 12.4111C12.9142 12.3758 13.0209 12.333 13.124 12.2822L13.125 12.2832L13.4902 13.0234C13.5711 12.9836 13.6502 12.9402 13.7275 12.8936L13.9551 12.7432C14.1017 12.6367 14.2385 12.5184 14.3643 12.3896L13.7734 11.8125L13.7725 11.8115C13.853 11.729 13.9275 11.6412 13.9951 11.5479L13.9961 11.5488L14.6641 12.0342C14.77 11.888 14.8632 11.7314 14.9434 11.5684L16.5732 8.29199L15.833 7.9248L17.2305 5.1123L17.9707 5.47949L19.6006 2.19922L19.6035 2.19336C19.6476 2.10264 19.7012 2.01631 19.7617 1.93652L19.1035 1.4375C19.1836 1.33196 19.2725 1.2333 19.3691 1.14258L19.9346 1.74512C20.0076 1.67658 20.0869 1.61418 20.1729 1.56055C20.2589 1.50684 20.3502 1.46246 20.4443 1.42676L20.1514 0.654297C20.2753 0.607314 20.4031 0.571623 20.5332 0.545898L20.6934 1.35547C20.7921 1.33595 20.8935 1.32617 20.9951 1.32617C21.0966 1.32619 21.1973 1.33599 21.2959 1.35547L21.4551 0.545898C21.5856 0.571634 21.7136 0.608137 21.8379 0.655273L21.5459 1.42676C21.6398 1.4624 21.7305 1.50697 21.8164 1.56055C21.9023 1.61419 21.9826 1.67655 22.0557 1.74512L22.6191 1.14258C22.7159 1.2333 22.8046 1.33194 22.8848 1.4375H22.8857L22.2285 1.93652C22.2891 2.01631 22.3416 2.10264 22.3857 2.19336L22.3887 2.19824L24.0146 5.47949L24.7539 5.1123L26.1475 7.9248H26.1484L25.4092 8.29102L27.0342 11.5684V11.5693C27.1143 11.7323 27.2075 11.8881 27.3135 12.0342L27.9824 11.5488V11.5479C28.0499 11.641 28.1238 11.7292 28.2041 11.8115V11.8125L27.6133 12.3896C27.7392 12.5186 27.8766 12.6366 28.0234 12.7432C28.1704 12.8498 28.3255 12.9437 28.4873 13.0234L28.8525 12.2832V12.2822C28.9559 12.3332 29.0631 12.3757 29.1729 12.4111V12.4131L28.9189 13.1982C29.0904 13.2536 29.2667 13.2954 29.4463 13.3213L33.085 13.8457L33.2021 13.0283L36.3213 13.4775V13.4785L36.2031 14.2949L39.8418 14.8203H39.8447C39.9451 14.8344 40.0438 14.8587 40.1387 14.8916L40.4082 14.1113C40.5334 14.1547 40.6544 14.2089 40.7705 14.2725L40.375 14.9961C40.463 15.0443 40.5465 15.1012 40.624 15.166C40.7014 15.2307 40.7723 15.3022 40.835 15.3799L41.4756 14.8613C41.5589 14.9644 41.6334 15.074 41.6982 15.1895L40.9785 15.5938C41.0273 15.6807 41.0685 15.7727 41.0996 15.8682C41.1307 15.9635 41.1513 16.0615 41.1631 16.1602L41.9824 16.0625C41.998 16.1931 42.0025 16.3247 41.9961 16.4561L41.1729 16.416C41.1704 16.4658 41.1656 16.5159 41.1582 16.5654L41.1289 16.7119C41.1045 16.8094 41.07 16.904 41.0273 16.9941L41.7725 17.3467C41.716 17.466 41.6498 17.5802 41.5742 17.6885L40.8984 17.2168C40.8414 17.2985 40.7758 17.3745 40.7031 17.4443L40.6992 17.4482L38.0693 20.0059L38.6445 20.5977L36.3906 22.79L35.8154 22.1982L33.1865 24.7529C33.0564 24.8786 32.9384 25.0154 32.832 25.1602L33.4971 25.6484C33.4292 25.7409 33.3682 25.8382 33.3145 25.9395L32.585 25.5527C32.5429 25.632 32.504 25.7131 32.4688 25.7959L32.373 26.0498C32.3165 26.2216 32.2755 26.3975 32.249 26.5752L33.0654 26.6963C33.0486 26.8095 33.0403 26.9237 33.04 27.0381L32.2139 27.0371C32.2135 27.2168 32.2285 27.3968 32.2588 27.5752V27.5771L32.877 31.1758L33.6904 31.0361Z" stroke="#949494" stroke-width="1.65138" stroke-dasharray="11.56 4.95"/>
</svg>
