<svg xmlns="http://www.w3.org/2000/svg" width="52" height="52" viewBox="0 0 52 52" fill="none">
  <path d="M24.124 0.569336C24.7464 0.523428 25.3719 0.500024 25.999 0.5C26.8371 0.501046 27.6713 0.543665 28.498 0.625977L28.5469 0.12793C30.2492 0.297372 31.9226 0.632721 33.5439 1.12598V1.12695L33.3984 1.60547C34.9957 2.09142 36.5416 2.73286 38.0137 3.52051L38.249 3.0791C39.7431 3.87848 41.1623 4.82583 42.4844 5.91113L42.168 6.29785C42.8101 6.82504 43.4289 7.38592 44.0215 7.97852C44.6141 8.57111 45.175 9.18989 45.7021 9.83203L46.0879 9.51465C47.1733 10.8367 48.1205 12.2559 48.9199 13.75L48.4795 13.9863C49.2671 15.4584 49.9086 17.0043 50.3945 18.6016L50.873 18.4561V18.4551C51.3664 20.0765 51.7016 21.7498 51.8711 23.4521H51.8721L51.374 23.502C51.4563 24.3287 51.499 25.1629 51.5 26.001C51.5 26.6281 51.4766 27.2536 51.4307 27.876L51.9287 27.9121C51.8346 29.189 51.6472 30.4537 51.3682 31.6963L50.8809 31.5869C50.6065 32.8088 50.2417 34.0094 49.791 35.1777L50.2568 35.3564C49.7985 36.5448 49.2532 37.7013 48.6221 38.8154L48.1875 38.5693C47.8797 39.1126 47.5507 39.6453 47.2021 40.167C46.8536 40.6887 46.4867 41.1962 46.1025 41.6885L46.4961 41.9951C45.7084 43.0045 44.8501 43.952 43.9277 44.8301L43.583 44.4688C42.6762 45.332 41.7072 46.1277 40.6836 46.8486L40.9707 47.2568C39.9295 47.9902 38.8331 48.648 37.6895 49.2236L37.4648 48.7773C37.0466 48.9878 36.6221 49.1872 36.1914 49.375L35.7588 49.5586C35.1791 49.7987 34.5919 50.017 33.999 50.2129L34.1553 50.6875C32.9396 51.0891 31.6991 51.3985 30.4443 51.6162L30.3594 51.125C29.1257 51.339 27.8777 51.4614 26.626 51.4922L26.6377 51.9922C25.3647 52.0234 24.0879 51.9604 22.8174 51.8037L22.8789 51.3086C22.2592 51.2322 21.6408 51.1322 21.0254 51.0098L20.5645 50.9141C20.1055 50.8139 19.6504 50.701 19.1992 50.5762L19.0654 51.0576C17.8315 50.7161 16.6281 50.2846 15.4639 49.7686L15.666 49.3125C14.5213 48.805 13.4153 48.2139 12.3574 47.5439L12.0889 47.9658C11.0132 47.2846 9.98682 46.5226 9.01758 45.6865L9.34375 45.3086C8.87104 44.9008 8.41233 44.4748 7.96875 44.0312L7.63965 43.6953C7.31362 43.357 6.99722 43.0108 6.69141 42.6562L6.3125 42.9814C5.47643 42.0122 4.71436 40.9858 4.0332 39.9102L4.45605 39.6426C3.78614 38.5846 3.19496 37.4787 2.6875 36.334L2.23047 36.5352C1.71446 35.371 1.28281 34.1675 0.941406 32.9336L1.42383 32.8008C1.25733 32.1991 1.11262 31.5899 0.990234 30.9746L0.902344 30.5127C0.819178 30.0502 0.748735 29.5859 0.691406 29.1211L0.195312 29.1816C0.0386541 27.9111 -0.0244488 26.6342 0.00683594 25.3613L0.0078125 25.3623L0.507812 25.374C0.538559 24.1223 0.660951 22.8743 0.875 21.6406L0.382812 21.5547C0.600528 20.3 0.909905 19.0594 1.31152 17.8438L1.3125 17.8447L1.78711 18.001C1.93398 17.5564 2.09289 17.115 2.26465 16.6777L2.44141 16.2412C2.68144 15.6617 2.94202 15.0927 3.22266 14.5352L2.77637 14.3105L2.77539 14.3096C3.35103 13.166 4.0089 12.0695 4.74219 11.0283L4.74316 11.0293L5.15137 11.3164C5.87231 10.2928 6.66796 9.32378 7.53125 8.41699L7.16992 8.07227L7.16895 8.07129C8.04702 7.14901 8.99461 6.29058 10.0039 5.50293L10.3115 5.89746C10.6807 5.60936 11.0585 5.33074 11.4443 5.0625L11.833 4.79785C12.3546 4.4493 12.8874 4.12025 13.4307 3.8125L13.1846 3.37793L13.1836 3.37695C14.2976 2.74581 15.4543 2.20054 16.6426 1.74219L16.8223 2.20898C17.9906 1.7583 19.1912 1.39352 20.4131 1.11914L20.3037 0.631836L20.3027 0.630859C21.5452 0.351814 22.8101 0.164506 24.0869 0.0703125L24.124 0.569336ZM16.5723 17.5264L16.3174 17.5674C16.1482 17.601 15.9824 17.6474 15.8213 17.7051L15.9883 18.1748C15.7106 18.2742 15.4488 18.4141 15.2119 18.5898L14.915 18.1885C14.8462 18.2396 14.779 18.2934 14.7139 18.3496L14.5254 18.5254C14.4034 18.6474 14.2905 18.7775 14.1885 18.915L14.5898 19.2119C14.4141 19.4488 14.2742 19.7106 14.1748 19.9883L13.7051 19.8213C13.6762 19.9019 13.6499 19.9836 13.627 20.0664L13.5674 20.3174C13.5337 20.4866 13.5123 20.6572 13.5039 20.8281L14.0039 20.8525C13.9894 21.1469 14.0184 21.4417 14.0898 21.7275V21.7285L13.6045 21.8506C13.6461 22.0166 13.7006 22.1804 13.7666 22.3398C13.8326 22.4991 13.9101 22.6531 13.998 22.7998L14.4268 22.542V22.541C14.5784 22.7942 14.7667 23.0234 14.9854 23.2217V23.2227L14.6494 23.5938C14.7762 23.7087 14.9122 23.8143 15.0557 23.9102C15.1991 24.006 15.3492 24.0909 15.5039 24.1641L15.7168 23.7119C15.9833 23.838 16.267 23.9244 16.5586 23.9678L16.4863 24.4619C16.6557 24.487 16.8274 24.5 17 24.5C17.2309 24.5 17.4594 24.477 17.6826 24.4326L17.585 23.9424L17.584 23.9414C17.9707 23.8646 18.3382 23.7122 18.666 23.4932L18.667 23.4941L18.9443 23.9102C19.1336 23.7837 19.3113 23.6379 19.4746 23.4746C19.6379 23.3113 19.7837 23.1336 19.9102 22.9443L19.4941 22.667L19.4932 22.666C19.7122 22.3382 19.8646 21.9707 19.9414 21.584L19.9424 21.585L20.4326 21.6826C20.477 21.4594 20.5 21.2309 20.5 21C20.5 20.8274 20.487 20.6557 20.4619 20.4863L19.9678 20.5586C19.9244 20.267 19.838 19.9833 19.7119 19.7168L20.1641 19.5039C20.0909 19.3492 20.006 19.1991 19.9102 19.0557L19.7588 18.8467C19.7059 18.779 19.6512 18.7129 19.5938 18.6494L19.2217 18.9854C19.0234 18.7667 18.7943 18.5784 18.541 18.4268H18.542L18.7998 17.998C18.6531 17.9101 18.4991 17.8326 18.3398 17.7666L18.0977 17.6768C18.016 17.6498 17.9337 17.6253 17.8506 17.6045L17.7285 18.0898H17.7275C17.4417 18.0184 17.1469 17.9894 16.8525 18.0039L16.8281 17.5039C16.7427 17.5081 16.6574 17.5159 16.5723 17.5264ZM34.5723 17.5264L34.3174 17.5674C34.1482 17.601 33.9824 17.6474 33.8213 17.7051L33.9883 18.1748C33.7106 18.2742 33.4488 18.4141 33.2119 18.5898L32.915 18.1885C32.8462 18.2396 32.779 18.2934 32.7139 18.3496L32.5254 18.5254C32.4034 18.6474 32.2905 18.7775 32.1885 18.915L32.5898 19.2119C32.4141 19.4488 32.2742 19.7106 32.1748 19.9883L31.7051 19.8213C31.6762 19.9019 31.6499 19.9836 31.627 20.0664L31.5674 20.3174C31.5337 20.4866 31.5123 20.6572 31.5039 20.8281L32.0039 20.8525C31.9894 21.1469 32.0184 21.4417 32.0898 21.7275V21.7285L31.6045 21.8506C31.6461 22.0166 31.7006 22.1804 31.7666 22.3398C31.8326 22.4991 31.9101 22.6531 31.998 22.7998L32.4268 22.542V22.541C32.5784 22.7942 32.7667 23.0234 32.9854 23.2217V23.2227L32.6494 23.5938C32.7762 23.7087 32.9122 23.8143 33.0557 23.9102C33.1991 24.006 33.3492 24.0909 33.5039 24.1641L33.7168 23.7119C33.9833 23.838 34.267 23.9244 34.5586 23.9678L34.4863 24.4619C34.6557 24.487 34.8274 24.5 35 24.5C35.2309 24.5 35.4594 24.477 35.6826 24.4326L35.585 23.9424L35.584 23.9414C35.9707 23.8646 36.3382 23.7122 36.666 23.4932L36.667 23.4941L36.9443 23.9102C37.1336 23.7837 37.3113 23.6379 37.4746 23.4746C37.6379 23.3113 37.7837 23.1336 37.9102 22.9443L37.4941 22.667L37.4932 22.666C37.7122 22.3382 37.8646 21.9707 37.9414 21.584L37.9424 21.585L38.4326 21.6826C38.477 21.4594 38.5 21.2309 38.5 21C38.5 20.8274 38.487 20.6557 38.4619 20.4863L37.9678 20.5586C37.9244 20.267 37.838 19.9833 37.7119 19.7168L38.1641 19.5039C38.0909 19.3492 38.006 19.1991 37.9102 19.0557L37.7588 18.8467C37.7059 18.779 37.6512 18.7129 37.5938 18.6494L37.2217 18.9854C37.0234 18.7667 36.7943 18.5784 36.541 18.4268H36.542L36.7998 17.998C36.6531 17.9101 36.4991 17.8326 36.3398 17.7666L36.0977 17.6768C36.016 17.6498 35.9337 17.6253 35.8506 17.6045L35.7285 18.0898H35.7275C35.4417 18.0184 35.1469 17.9894 34.8525 18.0039L34.8281 17.5039C34.7427 17.5081 34.6574 17.5159 34.5723 17.5264Z" fill="#EAEAEA" stroke="#949494" stroke-dasharray="5 5"/>
</svg>
