<svg xmlns="http://www.w3.org/2000/svg" width="56" height="52" viewBox="0 0 56 52" fill="none">
  <path d="M26.5006 0C33.3933 0.008808 40.0017 2.7511 44.8756 7.625C49.7494 12.499 52.492 19.1072 52.5006 26C52.5006 27.3484 52.3933 28.6887 52.1871 30.0098C52.1625 30.008 52.1375 30.0061 52.1129 30.0049L51.9342 30C50.9828 30 50.073 30.3797 49.4029 31.0498L41.2105 39.2119L38.5826 36.6416C37.9561 36.0216 37.1233 35.6534 36.2437 35.6094L36.066 35.6055C35.1121 35.6055 34.1995 35.9866 33.5289 36.6602L33.526 36.6631L31.5435 38.6631L31.5426 38.6641C30.9151 39.2981 30.5479 40.1404 30.5045 41.0244L30.5006 41.2021L30.5045 41.3789C30.5478 42.2616 30.9149 43.1017 31.5406 43.7354L31.5396 43.7363L37.3492 49.627C37.0523 49.7633 36.7524 49.8951 36.4498 50.0205C31.6992 51.9883 26.4716 52.503 21.4283 51.5C16.385 50.4968 11.7519 48.0207 8.1158 44.3848C4.47966 40.7486 2.00282 36.1157 0.999592 31.0723C-0.00359279 26.0288 0.511221 20.8006 2.47908 16.0498C4.44697 11.2991 7.77975 7.23866 12.0553 4.38184C16.3309 1.52504 21.3584 0 26.5006 0ZM51.9332 32C52.3529 32 52.756 32.1679 53.0533 32.4668L55.0308 34.4209C55.1794 34.5695 55.297 34.7466 55.3775 34.9414C55.4581 35.1363 55.5005 35.3455 55.5006 35.5566C55.5006 35.7677 55.4589 35.977 55.3785 36.1719C55.2981 36.3667 55.1803 36.5437 55.0318 36.6924L42.3043 49.5322C42.007 49.8316 41.6042 49.9999 41.1842 50C40.7639 50 40.3604 49.8318 40.0631 49.5322L32.9635 42.332C32.6668 42.0322 32.5007 41.6258 32.5006 41.2021C32.5006 40.7783 32.6667 40.3712 32.9635 40.0713L34.9459 38.0713C35.2059 37.8101 35.5467 37.6495 35.9088 37.6133C35.9607 37.6081 36.0134 37.6055 36.066 37.6055C36.1247 37.6055 36.183 37.6097 36.2408 37.6162C36.286 37.6213 36.3311 37.6268 36.3756 37.6357C36.4264 37.6459 36.4766 37.6587 36.526 37.6738C36.7721 37.7492 36.9995 37.8848 37.1851 38.0713L41.2232 42.0225L50.814 32.4668C50.8845 32.396 50.9604 32.3319 51.0416 32.2764C51.059 32.2645 51.0775 32.2544 51.0953 32.2432C51.1176 32.2292 51.1397 32.215 51.1627 32.2021C51.1858 32.1892 51.2093 32.1768 51.233 32.165C51.251 32.1561 51.2693 32.1479 51.2877 32.1396C51.3138 32.1279 51.3401 32.1168 51.3668 32.1064C51.3891 32.0979 51.4115 32.0896 51.4342 32.082C51.4536 32.0755 51.4731 32.0692 51.4928 32.0635C51.5214 32.0551 51.5506 32.0487 51.5797 32.042C51.6021 32.0368 51.6244 32.0315 51.6471 32.0273C51.6619 32.0246 51.677 32.0228 51.692 32.0205C51.7714 32.0081 51.8518 32 51.9332 32ZM18.648 18.2285C18.1 18.0015 17.4964 17.942 16.9146 18.0576C16.3329 18.1734 15.798 18.4595 15.3785 18.8789C14.9591 19.2984 14.6739 19.8333 14.5582 20.415C14.4425 20.9969 14.5011 21.6003 14.7281 22.1484C14.9552 22.6965 15.3404 23.1646 15.8336 23.4941C16.3269 23.8237 16.9073 24 17.5006 24C18.2959 23.9998 19.0592 23.6835 19.6217 23.1211C20.184 22.5585 20.5006 21.7955 20.5006 21C20.5006 20.4067 20.3243 19.8263 19.9947 19.333C19.6651 18.8398 19.196 18.4556 18.648 18.2285ZM36.648 18.2285C36.1 18.0015 35.4964 17.942 34.9146 18.0576C34.3329 18.1734 33.798 18.4595 33.3785 18.8789C32.9591 19.2984 32.6739 19.8333 32.5582 20.415C32.4425 20.9969 32.5011 21.6003 32.7281 22.1484C32.9552 22.6965 33.3404 23.1646 33.8336 23.4941C34.3269 23.8237 34.9073 24 35.5006 24C36.2959 23.9998 37.0592 23.6835 37.6217 23.1211C38.184 22.5585 38.5006 21.7955 38.5006 21C38.5006 20.4067 38.3243 19.8263 37.9947 19.333C37.6651 18.8398 37.196 18.4556 36.648 18.2285Z" fill="#D9D9D9"/>
</svg>
