<svg width="64" height="64" viewBox="0 0 64 64" fill="none" xmlns="http://www.w3.org/2000/svg">
<rect width="64" height="64" rx="32" fill="url(#paint0_radial_17905_29662)"/>
<path d="M54.8 31.9996V32.5911C51.1444 33.1735 43.2953 34.5264 39.4336 36.0048C38.0537 36.5335 36.9607 37.6176 36.4231 38.9884C34.9447 42.8323 33.5737 50.726 32.9913 54.3996H31.8087C31.2263 50.726 29.8553 42.8323 28.3769 38.9884C27.8393 37.6176 26.7372 36.5244 25.3664 36.0048C21.5047 34.5264 13.6556 33.1735 10 32.5911V31.4083C13.6556 30.8259 21.5047 29.4729 25.3664 27.9945C26.7463 27.4659 27.8393 26.3817 28.3769 25.0108C29.8553 21.1671 31.2263 13.2732 31.8087 9.59961H32.9913C33.5737 13.2732 34.9447 21.1671 36.4231 25.0108C36.9607 26.3817 38.0628 27.4748 39.4336 27.9945C43.2953 29.4729 51.1444 30.8259 54.8 31.4083V31.9996Z" fill="white"/>
<defs>
<radialGradient id="paint0_radial_17905_29662" cx="0" cy="0" r="1" gradientUnits="userSpaceOnUse" gradientTransform="translate(1.60987 60.4583) scale(73.6071)">
<stop offset="0.0533191" stop-color="#D7D3E9"/>
<stop offset="0.1933" stop-color="#A19CDE"/>
<stop offset="0.3834" stop-color="#696BD9"/>
<stop offset="0.54" stop-color="#3A5AE7"/>
<stop offset="0.7735" stop-color="#225FE7"/>
<stop offset="1" stop-color="#0883D1"/>
</radialGradient>
</defs>
</svg>
