<svg width="64" height="64" viewBox="0 0 64 64" fill="none" xmlns="http://www.w3.org/2000/svg">
<rect width="64" height="64" rx="32" fill="#BBBBBB"/>
<path d="M32.28 9.24902C22.7714 9.24902 15 16.9747 15 26.529C15 28.449 15.32 30.3233 15.9143 32.1519C16.3257 33.3862 17.6971 34.0719 18.9771 33.6605C20.2114 33.249 20.8971 31.8776 20.4857 30.5976C19.9829 29.1805 19.7543 27.6719 19.8 26.1633C19.9829 19.7176 25.1943 14.4147 31.64 14.0947C38.8171 13.729 44.76 19.4433 44.76 26.529C44.76 33.1576 39.5486 38.5976 33.0114 38.9633C33.0114 38.9633 30.5886 39.1005 29.4 39.2833C28.8057 39.3747 28.3486 39.4662 28.0286 39.5119C27.8914 39.5576 27.7543 39.4205 27.8 39.2833L28.2114 37.2719L30.4514 26.9405C30.7257 25.6605 29.9029 24.3805 28.6229 24.1062C27.3429 23.8319 26.0629 24.6547 25.7886 25.9347C25.7886 25.9347 20.3943 51.0776 20.3486 51.3519C20.0743 52.6319 20.8971 53.9119 22.1771 54.1862C23.4571 54.4605 24.7371 53.6376 25.0114 52.3576C25.0571 52.0833 25.7886 48.7462 25.7886 48.7462C26.3371 46.1862 28.44 44.3119 30.9086 43.9919C31.4571 43.9005 33.6057 43.7633 33.6057 43.7633C42.52 43.0776 49.56 35.6262 49.56 26.529C49.56 16.9747 41.7886 9.24902 32.28 9.24902ZM33.5143 49.0205C31.96 48.7005 30.4057 49.6604 30.0857 51.2604C29.7657 52.8147 30.7257 54.369 32.3257 54.689C33.88 55.009 35.4343 54.049 35.7543 52.449C36.0743 50.849 35.1143 49.3405 33.5143 49.0205Z" fill="white"/>
</svg>
