<svg width="257" height="256" viewBox="0 0 257 256" fill="none" xmlns="http://www.w3.org/2000/svg">
<path d="M256.125 0H0.125V256H256.125V0Z" fill="url(#paint0_linear_3_1193)"/>
<path opacity="0.3" d="M137.048 65.5418C141.976 60.6138 141.976 52.6241 137.048 47.6961C132.12 42.7681 124.13 42.7681 119.202 47.6961L47.8221 119.077C42.8941 124.005 42.8941 131.995 47.8221 136.922L83.5122 172.612V172.613C88.4402 177.541 96.4286 177.541 101.357 172.613L163.816 110.154L181.662 128L119.202 190.459C114.274 195.385 114.274 203.375 119.202 208.305C124.13 213.231 132.12 213.231 137.048 208.305L208.428 136.922C213.356 131.995 213.356 124.005 208.428 119.077L172.738 83.3861C167.81 78.4595 159.822 78.4595 154.894 83.3861L92.4344 145.845L74.5886 128L137.048 65.5418Z" fill="white"/>
<path d="M65.6668 119.078C70.5948 124.006 70.5948 131.996 65.6668 136.922C60.7388 141.852 52.749 141.852 47.821 136.922C42.893 131.996 42.893 124.006 47.821 119.078C52.749 114.149 60.7388 114.149 65.6668 119.078Z" fill="white"/>
<path d="M101.357 83.3862C106.285 88.3156 106.285 96.3054 101.357 101.232C96.4292 106.16 88.4394 106.16 83.5114 101.232C78.5834 96.3054 78.5834 88.3156 83.5114 83.3876C88.4394 78.4583 96.4292 78.4583 101.357 83.3862Z" fill="white"/>
<path d="M137.048 47.696C141.976 52.6253 141.976 60.6151 137.048 65.5417C132.12 70.4696 124.13 70.4696 119.202 65.5417C114.274 60.6151 114.274 52.6253 119.202 47.696C124.13 42.768 132.12 42.768 137.048 47.696Z" fill="white"/>
<path d="M101.357 154.768C106.285 159.696 106.285 167.686 101.357 172.614C96.4292 177.542 88.4394 177.542 83.5114 172.614C78.5834 167.686 78.5834 159.696 83.5114 154.768C88.4394 149.84 96.4292 149.84 101.357 154.768Z" fill="white"/>
<path d="M137.048 119.078C141.976 124.006 141.976 131.996 137.048 136.922C132.12 141.852 124.13 141.852 119.202 136.922C114.274 131.996 114.274 124.006 119.202 119.078C124.13 114.149 132.12 114.149 137.048 119.078Z" fill="white"/>
<path d="M172.739 83.3862C177.667 88.3156 177.667 96.3054 172.739 101.232C167.811 106.16 159.821 106.16 154.893 101.232C149.965 96.3054 149.965 88.3156 154.893 83.3876C159.821 78.4583 167.811 78.4583 172.739 83.3862Z" fill="white"/>
<path d="M137.048 190.458C141.976 195.386 141.976 203.376 137.048 208.304C132.12 213.232 124.13 213.232 119.202 208.304C114.274 203.376 114.274 195.386 119.202 190.458C124.13 185.53 132.12 185.53 137.048 190.458Z" fill="white"/>
<path d="M172.739 154.768C177.667 159.696 177.667 167.686 172.739 172.612C167.811 177.542 159.821 177.542 154.893 172.614C149.965 167.686 149.965 159.696 154.893 154.768C159.821 149.84 167.811 149.84 172.739 154.768Z" fill="white"/>
<path d="M208.429 119.078C213.357 124.006 213.357 131.996 208.429 136.922C203.501 141.852 195.511 141.852 190.583 136.922C185.655 131.996 185.655 124.006 190.583 119.078C195.511 114.149 203.501 114.149 208.429 119.078Z" fill="white"/>
<defs>
<linearGradient id="paint0_linear_3_1193" x1="172.492" y1="256" x2="83.7576" y2="5.09926e-06" gradientUnits="userSpaceOnUse">
<stop stop-color="#FF99B9"/>
<stop offset="1" stop-color="#D030DD"/>
</linearGradient>
</defs>
</svg>
