<svg width="64" height="64" viewBox="0 0 64 64" fill="none" xmlns="http://www.w3.org/2000/svg">
<rect width="64" height="64" rx="32" fill="#BBBBBB"/>
<path fill-rule="evenodd" clip-rule="evenodd" d="M47.161 35.111C46.4363 35.8357 45.177 35.5066 44.7493 34.5755C44.6651 34.3919 44.6192 34.1951 44.6192 33.9929V17.9375C44.6192 15.9959 43.0453 14.4219 41.1036 14.4219C39.162 14.4219 37.588 15.9959 37.588 17.9375V26.0637C37.588 26.7624 36.8721 27.2368 36.2059 27.0262C35.7842 26.8929 35.4795 26.509 35.4795 26.0667V13.0156C35.4795 11.074 33.9057 9.5 31.9639 9.5C30.0223 9.5 28.4483 11.074 28.4483 13.0156V26.0658C28.4483 26.5083 28.1434 26.8925 27.7214 27.0259C27.0547 27.2365 26.3385 26.7619 26.3385 26.0627V17.9375C26.3385 15.9959 24.7645 14.4219 22.8228 14.4219C20.8812 14.4219 19.3072 15.9959 19.3072 17.9375V33.9986C19.3072 34.1966 19.2622 34.3897 19.1795 34.5697C18.7607 35.4806 17.5301 35.7995 16.8212 35.0906L15.5133 33.7827C14.1404 32.4097 11.9144 32.4097 10.5414 33.7827C9.16848 35.1556 9.16848 37.3816 10.5414 38.7545L20.8767 49.0899C23.4505 52.3829 27.4596 54.5 31.9632 54.5C36.2794 54.5 40.1415 52.5554 42.7212 49.4945L53.4611 38.7545C54.834 37.3816 54.834 35.1556 53.4611 33.7827C52.0881 32.4097 49.8621 32.4097 48.4892 33.7827L47.161 35.111ZM31.9624 48.8752C38.1756 48.8752 43.2124 41.8439 43.2124 41.8439C43.2124 41.8439 38.1756 34.8125 31.9624 34.8125C25.7491 34.8125 20.7123 41.8439 20.7123 41.8439C20.7123 41.8439 25.7491 48.8752 31.9624 48.8752Z" fill="white"/>
<path d="M36.182 41.8447C36.182 44.1745 34.2931 46.0634 31.9632 46.0634C29.6332 46.0634 27.7444 44.1745 27.7444 41.8447C27.7444 39.5148 29.6332 37.6259 31.9632 37.6259C34.2931 37.6259 36.182 39.5148 36.182 41.8447Z" fill="white"/>
</svg>
