<svg xmlns="http://www.w3.org/2000/svg" width="20" height="20" viewBox="0 0 20 20" fill="none">
  <defs>
    <linearGradient id="bgGradient" x1="0%" y1="0%" x2="100%" y2="100%">
      <stop offset="0%" stop-color="#0194ff" />
      <stop offset="100%" stop-color="#d306ff" />
    </linearGradient>
  </defs>
  <circle cx="10" cy="10" r="10" fill="url(#bgGradient)" />
  <path d="M4.08711 8.5H6H14.6364C15.1886 8.5 15.6364 8.05228 15.6364 7.5C15.6364 6.94772 15.1886 6.5 14.6364 6.5H7L7.62478 4.37612C7.72574 3.87128 7.08991 3.56178 6.75486 3.95267L3.70748 7.6746C3.42948 7.99894 3.65993 8.5 4.08711 8.5Z" fill="white" />
  <path d="M15.9129 11.5H14H5.36364C4.81136 11.5 4.36364 11.9477 4.36364 12.5C4.36364 13.0523 4.81136 13.5 5.36364 13.5H13L12.3752 15.6239C12.2743 16.1287 12.9101 16.4382 13.2451 16.0473L16.2925 12.3254C16.5705 12.0011 16.3401 11.5 15.9129 11.5Z" fill="white" />
</svg>
