<svg xmlns="http://www.w3.org/2000/svg" width="20" height="20" viewBox="0 0 20 20" fill="none">
  <defs>
    <linearGradient id="gradient" x1="0%" y1="0%" x2="100%" y2="100%">
      <stop offset="0%" stop-color="#0194ff"/>
      <stop offset="100%" stop-color="#d306ff"/>
    </linearGradient>
  </defs>
  <circle cx="10" cy="10" r="10" fill="url(#gradient)"/>
  <path d="M4.5 11.5312C4.36739 11.5312 4.24025 11.585 4.14648 11.6807C4.05283 11.7763 4.00008 11.9058 4 12.041V15.1035C4 15.2043 4.02919 15.3029 4.08398 15.3867C4.13892 15.4707 4.21718 15.5365 4.30859 15.5752C4.39999 15.6138 4.50064 15.6232 4.59766 15.6035C4.69466 15.5838 4.78361 15.5353 4.85352 15.4639L6 14.293C7.10762 15.384 8.58568 15.9957 10.125 16H10.1582C11.7256 16.0041 13.2314 15.3777 14.3496 14.2568C14.4408 14.1616 14.4921 14.0336 14.4922 13.9004C14.4922 13.7671 14.4409 13.6383 14.3496 13.543C14.2583 13.4479 14.1343 13.3927 14.0039 13.3896C13.8733 13.3866 13.7469 13.4364 13.6514 13.5273C12.7252 14.4506 11.4831 14.971 10.1885 14.9795C8.89405 14.9878 7.64651 14.4832 6.70898 13.5723L7.85352 12.4043C7.92415 12.3331 7.97248 12.2419 7.99219 12.1426C8.01188 12.0433 8.00178 11.9403 7.96387 11.8467C7.92591 11.753 7.862 11.6724 7.7793 11.6162C7.69661 11.5601 7.5993 11.5308 7.5 11.5312H4.5ZM9.81836 4C8.26011 4.00679 6.76499 4.63176 5.65039 5.74316C5.55908 5.8385 5.50782 5.96727 5.50781 6.10059C5.50789 6.23376 5.5592 6.36177 5.65039 6.45703C5.74169 6.55238 5.86648 6.60729 5.99707 6.61035C6.12752 6.61331 6.25421 6.5645 6.34961 6.47363C7.28144 5.53913 8.53637 5.01594 9.84277 5.01855H9.87109C11.1459 5.02304 12.3705 5.52763 13.291 6.42773L12.1465 7.59766C12.0765 7.66902 12.0281 7.76033 12.0088 7.85938C11.9895 7.95835 12.0002 8.06107 12.0381 8.1543C12.076 8.24751 12.1394 8.32776 12.2217 8.38379C12.304 8.43986 12.4011 8.46883 12.5 8.46875H15.5C15.6326 8.46875 15.7597 8.41504 15.8535 8.31934C15.9472 8.22367 16 8.09421 16 7.95898V4.89746C15.9998 4.79682 15.9708 4.69793 15.916 4.61426C15.8611 4.53054 15.7826 4.46536 15.6914 4.42676C15.6003 4.38821 15.5001 4.378 15.4033 4.39746C15.3065 4.41694 15.2174 4.46513 15.1475 4.53613L14 5.70703C12.8762 4.60544 11.3765 3.99328 9.81836 4Z" fill="white"/>
</svg>
