<svg width="128" height="128" viewBox="0 0 128 128" fill="none" xmlns="http://www.w3.org/2000/svg">
<rect width="128" height="128" rx="64" fill="url(#paint0_linear_22270_25815)"/>
<path d="M98.3984 52.8327V92.9642C98.3984 94.4847 97.7944 95.9429 96.7193 97.0181C95.6441 98.0932 94.1859 98.6973 92.6654 98.6973H35.3346C33.8141 98.6973 32.3559 98.0932 31.2807 97.0181C30.2056 95.9429 29.6016 94.4847 29.6016 92.9642V52.8327C29.6016 51.3122 30.2056 49.8539 31.2807 48.7788C32.3559 47.7036 33.8141 47.0996 35.3346 47.0996H46.8008V38.5C46.8055 33.9399 48.6191 29.568 51.8436 26.3436C55.068 23.1191 59.4399 21.3055 64 21.3008C72.313 21.3008 79.5223 27.0876 81.1419 35.0637C81.2847 35.8054 81.1289 36.5735 80.7085 37.2011C80.2881 37.8286 79.637 38.2648 78.8968 38.4149C78.1565 38.5651 77.3869 38.417 76.7553 38.0028C76.1236 37.5886 75.6809 36.9419 75.5235 36.2032C74.4629 30.9753 69.5073 27.0339 64 27.0339C60.959 27.0339 58.0425 28.2419 55.8922 30.3922C53.7419 32.5425 52.5339 35.459 52.5339 38.5V47.0996H92.6654C94.1859 47.0996 95.6441 47.7036 96.7193 48.7788C97.7944 49.8539 98.3984 51.3122 98.3984 52.8327Z" fill="white"/>
<path d="M82.86 57H43.9369C42.9984 57 42.0984 57.364 41.4348 58.0118C40.7712 58.6597 40.3984 59.5383 40.3984 60.4545V87.5455C40.3984 88.4617 40.7712 89.3403 41.4348 89.9882C42.0984 90.636 42.9984 91 43.9369 91H82.86C83.7984 91 84.6985 90.636 85.362 89.9882C86.0256 89.3403 86.3984 88.4617 86.3984 87.5455V60.4545C86.3984 59.5383 86.0256 58.6597 85.362 58.0118C84.6985 57.364 83.7984 57 82.86 57ZM55.6138 77.8C55.9892 78.0749 56.2374 78.484 56.3037 78.9375C56.3701 79.391 56.2492 79.8517 55.9677 80.2182C55.6861 80.5847 55.267 80.8269 54.8025 80.8917C54.338 80.9565 53.8661 80.8385 53.4907 80.5636L46.4138 75.3818C46.1941 75.2209 46.0157 75.0123 45.8929 74.7725C45.7701 74.5326 45.7061 74.2682 45.7061 74C45.7061 73.7318 45.7701 73.4674 45.8929 73.2275C46.0157 72.9877 46.1941 72.7791 46.4138 72.6182L53.4907 67.4364C53.8661 67.1615 54.338 67.0435 54.8025 67.1083C55.267 67.1731 55.6861 67.4153 55.9677 67.7818C56.2492 68.1483 56.3701 68.609 56.3037 69.0625C56.2374 69.516 55.9892 69.9251 55.6138 70.2L50.4233 74L55.6138 77.8ZM68.6376 62.3841L61.5606 86.5659C61.5003 86.7879 61.3953 86.9959 61.2517 87.1777C61.108 87.3596 60.9287 87.5116 60.7242 87.625C60.5196 87.7384 60.294 87.8108 60.0604 87.8381C59.8269 87.8653 59.5901 87.8468 59.3639 87.7837C59.1378 87.7205 58.9268 87.6139 58.7434 87.4702C58.5599 87.3265 58.4076 87.1485 58.2955 86.9467C58.1833 86.7448 58.1135 86.5232 58.0901 86.2947C58.0667 86.0662 58.0902 85.8354 58.1593 85.6159L65.2362 61.4341C65.3722 61.0017 65.6766 60.6387 66.0838 60.423C66.491 60.2073 66.9687 60.1561 67.4141 60.2805C67.8596 60.4049 68.2372 60.695 68.466 61.0883C68.6948 61.4816 68.7564 61.9469 68.6376 62.3841ZM80.3831 75.3818L73.3061 80.5636C72.9307 80.8385 72.4589 80.9565 71.9944 80.8917C71.5299 80.8269 71.1107 80.5847 70.8292 80.2182C70.5477 79.8517 70.4268 79.391 70.4931 78.9375C70.5595 78.484 70.8077 78.0749 71.1831 77.8L76.3735 74L71.1831 70.2C70.9972 70.0639 70.8406 69.8934 70.7222 69.6982C70.6038 69.503 70.526 69.287 70.4931 69.0625C70.4603 68.8379 70.473 68.6092 70.5307 68.3895C70.5884 68.1698 70.6898 67.9633 70.8292 67.7818C70.9686 67.6004 71.1433 67.4475 71.3432 67.3319C71.5431 67.2163 71.7644 67.1403 71.9944 67.1083C72.2244 67.0762 72.4586 67.0887 72.6837 67.1449C72.9087 67.2012 73.1203 67.3003 73.3061 67.4364L80.3831 72.6182C80.6028 72.7791 80.7811 72.9877 80.904 73.2275C81.0268 73.4674 81.0907 73.7318 81.0907 74C81.0907 74.2682 81.0268 74.5326 80.904 74.7725C80.7811 75.0123 80.6028 75.2209 80.3831 75.3818Z" fill="#2700FF"/>
<defs>
<linearGradient id="paint0_linear_22270_25815" x1="0" y1="64" x2="152.398" y2="88" gradientUnits="userSpaceOnUse">
<stop stop-color="#2700FF"/>
<stop offset="1" stop-color="#0094FF"/>
</linearGradient>
</defs>
</svg>
