<svg width="129" height="128" viewBox="0 0 129 128" fill="none" xmlns="http://www.w3.org/2000/svg">
<rect x="0.199219" width="128" height="128" rx="64" fill="url(#paint0_linear_22270_25823)"/>
<path d="M94.7109 29.3145C96.0597 29.3145 97.3539 29.8529 98.3076 30.8115C99.2612 31.7701 99.7968 33.0702 99.7969 34.4258V93.5732C99.7968 94.9287 99.2612 96.229 98.3076 97.1875C97.3539 98.1461 96.0596 98.6846 94.7109 98.6846H33.6865C32.338 98.6845 31.0444 98.1459 30.0908 97.1875C29.1372 96.229 28.6017 94.9287 28.6016 93.5732V34.4258C28.6016 33.0702 29.1372 31.7701 30.0908 30.8115C31.0444 29.853 32.3379 29.3145 33.6865 29.3145H94.7109ZM41.3145 83.3496C40.6403 83.3497 39.9933 83.6194 39.5166 84.0986C39.04 84.5778 38.7725 85.2277 38.7725 85.9053C38.7725 86.583 39.0398 87.2336 39.5166 87.7129C39.9933 88.1921 40.6403 88.4608 41.3145 88.4609H71.8271C72.5014 88.4609 73.1482 88.1921 73.625 87.7129C74.1018 87.2336 74.3701 86.5831 74.3701 85.9053C74.37 85.2276 74.1017 84.5778 73.625 84.0986C73.1482 83.6193 72.5015 83.3496 71.8271 83.3496H41.3145ZM81.998 83.3496C81.3237 83.3496 80.677 83.6193 80.2002 84.0986C79.7234 84.5778 79.4552 85.2276 79.4551 85.9053C79.4551 86.5831 79.7233 87.2336 80.2002 87.7129C80.677 88.1921 81.3238 88.4609 81.998 88.4609H87.083C87.7572 88.4609 88.404 88.192 88.8809 87.7129C89.3577 87.2336 89.626 86.5831 89.626 85.9053C89.6259 85.2276 89.3576 84.5779 88.8809 84.0986C88.404 83.6194 87.7573 83.3496 87.083 83.3496H81.998ZM41.3145 73.127C40.6403 73.1271 39.9933 73.3968 39.5166 73.876C39.04 74.3552 38.7725 75.005 38.7725 75.6826C38.7725 76.3604 39.0398 77.0109 39.5166 77.4902C39.9933 77.9694 40.6403 78.2382 41.3145 78.2383H46.4004C47.0746 78.2383 47.7214 77.9694 48.1982 77.4902C48.6751 77.0109 48.9434 76.3604 48.9434 75.6826C48.9433 75.0049 48.6749 74.3552 48.1982 73.876C47.7214 73.3967 47.0747 73.127 46.4004 73.127H41.3145ZM56.5713 73.127C55.8969 73.127 55.2503 73.3967 54.7734 73.876C54.2966 74.3552 54.0283 75.0048 54.0283 75.6826C54.0283 76.3604 54.2966 77.0109 54.7734 77.4902C55.2502 77.9693 55.8971 78.2383 56.5713 78.2383H87.083C87.7572 78.2383 88.4041 77.9693 88.8809 77.4902C89.3577 77.0109 89.626 76.3604 89.626 75.6826C89.626 75.0048 89.3577 74.3553 88.8809 73.876C88.404 73.3967 87.7574 73.127 87.083 73.127H56.5713ZM62.7969 33.002C62.5846 33.002 62.3738 33.0446 62.1777 33.127C61.982 33.2092 61.8041 33.3296 61.6543 33.4814L42.2705 53.1172C42.0443 53.346 41.8906 53.6385 41.8281 53.9561C41.7658 54.2735 41.7976 54.6023 41.9199 54.9014C42.0423 55.2005 42.2498 55.456 42.5156 55.6357C42.7814 55.8154 43.0935 55.9114 43.4131 55.9111H51.4893V67.3652C51.4893 67.7992 51.66 68.2156 51.9629 68.5225C52.2657 68.8292 52.6763 69.0018 53.1045 69.002H72.4883C72.9167 69.002 73.3279 68.8293 73.6309 68.5225C73.9336 68.2156 74.1035 67.7991 74.1035 67.3652V55.9111H82.1797C82.4993 55.9114 82.8123 55.8155 83.0781 55.6357C83.3439 55.456 83.5515 55.2005 83.6738 54.9014C83.7961 54.6024 83.8279 54.2734 83.7656 53.9561C83.7032 53.6385 83.5494 53.346 83.3232 53.1172L63.9395 33.4814C63.7895 33.3294 63.611 33.2093 63.415 33.127C63.219 33.0447 63.0091 33.002 62.7969 33.002Z" fill="white"/>
<defs>
<linearGradient id="paint0_linear_22270_25823" x1="0.199219" y1="64" x2="152.598" y2="88" gradientUnits="userSpaceOnUse">
<stop stop-color="#2700FF"/>
<stop offset="1" stop-color="#0094FF"/>
</linearGradient>
</defs>
</svg>
