<svg width="129" height="128" viewBox="0 0 129 128" fill="none" xmlns="http://www.w3.org/2000/svg">
<rect x="0.798828" width="128" height="128" rx="64" fill="url(#paint0_linear_22270_25806)"/>
<path d="M59.4434 29C60.5478 29.0001 61.4434 29.8955 61.4434 31V97C61.4434 98.1045 60.5478 98.9999 59.4434 99H29.8574C28.7529 99 27.8574 98.1046 27.8574 97V31C27.8574 29.8954 28.7529 29 29.8574 29H59.4434ZM99.7402 60.4961C100.845 60.4963 101.74 61.3916 101.74 62.4961V96.9961C101.74 98.1005 100.845 98.9959 99.7402 98.9961H70.1543C69.0497 98.9961 68.1543 98.1007 68.1543 96.9961V62.4961C68.1543 61.3915 69.0497 60.4961 70.1543 60.4961H99.7402ZM99.7402 29C100.845 29.0002 101.74 29.8955 101.74 31V51.5C101.74 52.6045 100.845 53.4998 99.7402 53.5H70.1543C69.0497 53.5 68.1543 52.6046 68.1543 51.5V31C68.1543 29.8954 69.0497 29 70.1543 29H99.7402Z" fill="white"/>
<defs>
<linearGradient id="paint0_linear_22270_25806" x1="0.798828" y1="64" x2="153.197" y2="88" gradientUnits="userSpaceOnUse">
<stop stop-color="#2700FF"/>
<stop offset="1" stop-color="#0094FF"/>
</linearGradient>
</defs>
</svg>
