<svg xmlns="http://www.w3.org/2000/svg" width="20" height="20" viewBox="0 0 20 20" fill="none">
  <path d="M13.1779 10.0991L9.9937 6.91497L6.80953 10.0991C6.46453 10.4441 5.90453 10.4441 5.55953 10.0991C5.21453 9.75414 5.21453 9.19414 5.55953 8.84914L9.40453 5.00414C9.72953 4.67831 10.257 4.67831 10.5829 5.00414L14.4279 8.84914C14.7729 9.19414 14.7729 9.75414 14.4279 10.0991C14.0829 10.4441 13.5229 10.4441 13.1779 10.0991Z" />
  <path d="M13.1779 14.98L9.9937 11.7958L6.80953 14.98C6.46453 15.325 5.90453 15.325 5.55953 14.98C5.21453 14.635 5.21453 14.075 5.55953 13.73L9.40453 9.885C9.72953 9.55917 10.257 9.55917 10.5829 9.885L14.4279 13.73C14.7729 14.075 14.7729 14.635 14.4279 14.98C14.0829 15.325 13.5229 15.325 13.1779 14.98Z" />
</svg>
