<svg xmlns="http://www.w3.org/2000/svg" width="14" height="15" viewBox="0 0 14 15" fill="none">
  <path fill-rule="evenodd" clip-rule="evenodd" d="M0 1.5C0 0.947716 0.447715 0.5 1 0.5H5.36407C5.91636 0.5 6.36407 0.947715 6.36407 1.5V13.5C6.36407 14.0523 5.91636 14.5 5.36407 14.5H1C0.447715 14.5 0 14.0523 0 13.5V1.5ZM7.63592 1.5C7.63592 0.947716 8.08363 0.5 8.63592 0.5H13C13.5523 0.5 14 0.947715 14 1.5V4.4C14 4.95228 13.5523 5.4 13 5.4H8.63592C8.08363 5.4 7.63592 4.95228 7.63592 4.4V1.5ZM8.63592 6.79998C8.08363 6.79998 7.63592 7.2477 7.63592 7.79998V13.5C7.63592 14.0523 8.08363 14.5 8.63592 14.5H13C13.5523 14.5 14 14.0523 14 13.5V7.79998C14 7.2477 13.5523 6.79998 13 6.79998H8.63592Z" fill="currentColor"/>
</svg>
