<svg xmlns="http://www.w3.org/2000/svg" width="20" height="20" viewBox="0 0 20 20" fill="none">
  <rect width="20" height="20" rx="3" transform="matrix(0 -1 -1 0 20 20)" />
  <path d="M10.5645 12.4706V14.9706C10.5645 15.3879 11.0456 15.6216 11.3736 15.3636L16.2271 11.5461C16.6409 11.2207 16.3356 10.5592 15.8195 10.6629L12.897 11.25V5C12.897 4.44772 12.4493 4 11.897 4H11.5645C11.0122 4 10.5645 4.44772 10.5645 5V12.4706ZM9.35484 7.52942V5.03651C9.35484 4.61792 8.87122 4.38463 8.54361 4.64518L3.75782 8.4514C3.34632 8.77866 3.65394 9.4378 4.16908 9.33261L7.02234 8.75V15C7.02234 15.5523 7.47005 16 8.02234 16H8.35484C8.90712 16 9.35484 15.5523 9.35484 15V7.52942Z" fill="#ffffff"/>
</svg>
