<svg xmlns="http://www.w3.org/2000/svg" width="18" height="18" viewBox="0 0 18 18" fill="none">
  <path fill-rule="evenodd" clip-rule="evenodd" d="M9 18C13.9706 18 18 13.9706 18 9C18 4.02944 13.9706 0 9 0C4.02944 0 0 4.02944 0 9C0 13.9706 4.02944 18 9 18ZM9.00084 8.8395H9.053H9.07256C10.8982 8.78319 12.3261 7.50492 12.3261 5.92256C12.3261 4.31206 10.8069 3 8.94216 3C8.03587 3 7.18826 3.30971 6.54929 3.86157C5.91032 4.41342 5.55824 5.14547 5.56476 5.92256C5.56476 7.50492 6.99266 8.78882 8.88348 8.8395C8.9226 8.83387 8.96824 8.83387 9.00084 8.8395ZM7.24042 4.45284C7.69683 4.06429 8.29667 3.84467 8.94216 3.84467C10.2657 3.84467 11.3481 4.77944 11.3481 5.91693C11.3481 7.0319 10.3505 7.93851 9.06604 7.98919C8.98128 7.98356 8.89652 7.98356 8.8574 7.98919C7.5599 7.95541 6.54277 7.04316 6.54277 5.91693C6.54277 5.36508 6.79053 4.84702 7.24042 4.45284ZM11.1856 14.1779C11.2834 14.2623 11.4073 14.3017 11.5312 14.3017C11.655 14.3017 11.7789 14.2623 11.8767 14.1779L13.8588 12.466C14.0479 12.3027 14.0479 12.0324 13.8588 11.8691C13.6698 11.7058 13.3568 11.7058 13.1677 11.8691L11.5312 13.2825L10.8857 12.725C10.6966 12.5617 10.3836 12.5617 10.1945 12.725C10.0055 12.8883 10.0055 13.1586 10.1945 13.3219L11.1856 14.1779ZM8.94222 15C7.61213 15 6.35375 14.7016 5.40182 14.1497C4.49553 13.626 4 12.9109 4 12.1394C4 11.3679 4.50205 10.6584 5.40182 10.1403C7.35132 9.0141 10.5201 9.0141 12.4696 10.1403C12.6913 10.2698 12.7565 10.5345 12.6065 10.726C12.4565 10.9231 12.1501 10.9737 11.9284 10.8442C10.3049 9.90945 7.56649 9.90945 5.94299 10.8442C5.31706 11.2046 4.97801 11.6607 4.97801 12.1394C4.97801 12.618 5.31706 13.0854 5.94299 13.4458C6.73191 13.9019 7.79469 14.1497 8.9357 14.1497C9.20303 14.1497 9.42471 14.3412 9.42471 14.572C9.42471 14.8029 9.20955 15 8.94222 15Z" fill="currentColor"/>
</svg>
