<svg xmlns="http://www.w3.org/2000/svg" width="20" height="20" viewBox="0 0 20 20" fill="none">
  <path d="M16.5695 5.65038C17.0834 5.65038 17.5 6.06695 17.5 6.58083C17.5 7.0947 17.0834 7.51128 16.5695 7.51128L16.5173 7.51129C16.533 7.57907 16.5414 7.64971 16.5414 7.72229V15.4624C16.5414 16.2099 15.9354 16.8158 15.188 16.8158H4.86842C4.12097 16.8158 3.51504 16.2099 3.51504 15.4624V7.65938C3.51504 7.60899 3.51901 7.55953 3.52667 7.51129L3.43045 7.51128C2.91658 7.51128 2.5 7.0947 2.5 6.58083C2.5 6.06695 2.91658 5.65038 3.43045 5.65038H16.5695ZM14.7099 7.51129L5.37857 7.51129C5.38622 7.55953 5.3902 7.60899 5.3902 7.65938V14.1536C5.3902 14.5896 5.74366 14.9431 6.17967 14.9431H13.8963C14.3323 14.9431 14.6858 14.5896 14.6858 14.1536V7.72229C14.6858 7.64971 14.6941 7.57907 14.7099 7.51129ZM8.33647 7.84962C8.85034 7.84962 9.26692 8.2662 9.26692 8.78008V13.5169C9.26692 14.0308 8.85034 14.4474 8.33647 14.4474C7.82259 14.4474 7.40601 14.0308 7.40601 13.5169V8.78008C7.40601 8.2662 7.82259 7.84962 8.33647 7.84962ZM11.7199 7.84962C12.2338 7.84962 12.6504 8.2662 12.6504 8.78008V13.5169C12.6504 14.0308 12.2338 14.4474 11.7199 14.4474C11.2061 14.4474 10.7895 14.0308 10.7895 13.5169V8.78008C10.7895 8.2662 11.2061 7.84962 11.7199 7.84962ZM13.7782 3.93045C13.7782 4.44433 13.3616 4.8609 12.8477 4.8609H7.20865C6.69477 4.8609 6.2782 4.44433 6.2782 3.93045C6.2782 3.41658 6.69477 3 7.20865 3H12.8477C13.3616 3 13.7782 3.41658 13.7782 3.93045Z" />
</svg>
