<svg xmlns="http://www.w3.org/2000/svg" width="16" height="16" viewBox="0 0 16 16" fill="none">
  <circle cx="8" cy="8" r="8" fill="currentColor" fill-opacity="0.05"/>
  <path opacity="0.5" d="M6.90954 9.70606C6.81728 9.70606 6.77114 9.6519 6.77114 9.54357V8.93796C6.77114 8.60315 6.85316 8.30773 7.01719 8.0517C7.18122 7.79567 7.38625 7.56425 7.63229 7.35746C7.87834 7.14082 8.11925 6.9291 8.35504 6.7223C8.60109 6.51551 8.80612 6.29887 8.97015 6.07238C9.13418 5.83604 9.21619 5.57509 9.21619 5.28951C9.21619 4.98424 9.11367 4.76268 8.90864 4.62481C8.71385 4.4771 8.40118 4.40325 7.9706 4.40325C7.46826 4.40325 7.1197 4.52634 6.92492 4.77253C6.74039 5.00886 6.65325 5.34367 6.6635 5.77696C6.6635 5.90497 6.61224 5.96898 6.50972 5.96898H5.18725C5.11548 5.96898 5.06422 5.94929 5.03347 5.9099C5.01297 5.87051 5.00271 5.81635 5.00271 5.74742C4.97196 4.83161 5.20262 4.14722 5.69471 3.69424C6.19705 3.23141 6.97105 3 8.01673 3C9.03166 3 9.78004 3.18218 10.2619 3.54653C10.754 3.90103 11 4.42294 11 5.11226C11 5.55539 10.9129 5.94436 10.7386 6.27917C10.5746 6.60414 10.3695 6.89463 10.1235 7.15066C9.87743 7.39685 9.63139 7.62334 9.38535 7.83013C9.1393 8.03693 8.92914 8.2388 8.75486 8.43575C8.59083 8.63269 8.50882 8.84441 8.50882 9.0709V9.54357C8.50882 9.6519 8.45756 9.70606 8.35504 9.70606H6.90954ZM7.6938 13C7.33499 13 7.06332 12.9212 6.87879 12.7637C6.70451 12.5963 6.61737 12.355 6.61737 12.0399V11.8035C6.61737 11.4983 6.70451 11.2669 6.87879 11.1093C7.06332 10.9419 7.33499 10.8582 7.6938 10.8582C8.06287 10.8582 8.33454 10.9419 8.50882 11.1093C8.69335 11.2669 8.78562 11.4983 8.78562 11.8035V12.0399C8.78562 12.355 8.69335 12.5963 8.50882 12.7637C8.33454 12.9212 8.06287 13 7.6938 13Z" fill="currentColor"/>
</svg>
