<svg xmlns="http://www.w3.org/2000/svg" width="16" height="17" viewBox="0 0 16 17" fill="none">
  <circle cx="8" cy="8.5" r="8" fill="currentColor"/>
  <path fill-rule="evenodd" clip-rule="evenodd" d="M5.43095 10.658C4.4099 10.5097 3.625 9.61767 3.625 8.53942C3.625 7.46117 4.4099 6.56915 5.43095 6.4208L5.43092 5.17611L8.35049 5.17565L10.2467 3.25L12.375 5.41196L10.2467 7.57391L8.44078 5.73946V5.78762L6.03289 5.78716L6.03346 6.42089C7.05422 6.5695 7.83881 7.46138 7.83881 8.53942C7.83881 9.61746 7.05422 10.5093 6.03346 10.658L6.03289 11.2912L8.41069 11.2908L10.2467 9.42609L12.375 11.588L10.2467 13.75L8.42754 11.9023L5.43092 11.9027L5.43095 10.658ZM10.2467 10.2908L8.9693 11.5876L10.2467 12.8844L11.5241 11.5876L10.2467 10.2908ZM10.2467 4.11475L8.9693 5.41152L10.2467 6.7083L11.5241 5.41152L10.2467 4.11475Z" fill="white"/>
</svg>
