<svg xmlns="http://www.w3.org/2000/svg" width="20" height="20" viewBox="0 0 20 20" fill="none">
  <path d="M18 10C18 14.4183 14.4183 18 10 18C5.58172 18 2 14.4183 2 10C2 5.58172 5.58172 2 10 2C14.4183 2 18 5.58172 18 10Z" />
  <path d="M11.4144 12.8287C11.805 13.2192 12.4381 13.2192 12.8287 12.8287C13.2192 12.4381 13.2192 11.805 12.8287 11.4144L11.4144 10.0002L12.8287 8.58601C13.2192 8.19549 13.2192 7.56232 12.8287 7.1718C12.4381 6.78128 11.805 6.78128 11.4144 7.1718L10.0002 8.58601L8.58601 7.1718C8.19549 6.78128 7.56232 6.78128 7.1718 7.1718C6.78128 7.56232 6.78128 8.19549 7.1718 8.58601L8.58601 10.0002L7.1718 11.4144C6.78128 11.805 6.78128 12.4381 7.1718 12.8287C7.56232 13.2192 8.19549 13.2192 8.58601 12.8287L10.0002 11.4144L11.4144 12.8287Z" fill="white"/>
</svg>
