<svg xmlns="http://www.w3.org/2000/svg" width="20" height="20" viewBox="0 0 20 20" fill="none">
  <circle cx="10" cy="10" r="8" fill="currentColor"/>
  <path d="M6.2718 8.55219C5.9094 8.18979 5.9094 7.60223 6.2718 7.23984L8.24032 5.27131C8.60272 4.90891 9.19028 4.90891 9.55268 5.27131C9.91507 5.6337 9.91507 6.22126 9.55268 6.58366L9.24032 6.89601H10.7537C12.5872 6.89601 14.0736 8.3824 14.0736 10.2159C14.0736 12.0495 12.5872 13.5359 10.7537 13.5359H7.0414C6.48912 13.5359 6.0414 13.0882 6.0414 12.5359C6.0414 11.9836 6.48912 11.5359 7.0414 11.5359H10.7537C11.4826 11.5359 12.0736 10.9449 12.0736 10.2159C12.0736 9.48697 11.4826 8.89601 10.7537 8.89601H9.24059L9.55285 9.20827C9.91525 9.57067 9.91525 10.1582 9.55285 10.5206C9.19046 10.883 8.6029 10.883 8.2405 10.5206L6.28534 8.56546L6.2718 8.55219Z" fill="white"/>
</svg>
