<svg width="16" height="16" viewBox="0 0 16 16" fill="none" xmlns="http://www.w3.org/2000/svg">
<g id="icon-edit">
<path id="&#229;&#189;&#162;&#231;&#138;&#182;" d="M15.693 2.89904C15.5881 3.0164 15.4899 3.12071 15.3981 3.21198L15.1623 3.44669C15.0837 3.52492 15.0116 3.59012 14.9461 3.64228L12.2927 0.982285C12.3975 0.877971 12.5285 0.754099 12.6858 0.610668C12.843 0.467237 12.974 0.356404 13.0789 0.278169C13.3409 0.0695423 13.6227 -0.021732 13.924 0.0043464C14.2254 0.0304247 14.4678 0.089101 14.6513 0.180375C14.8478 0.284689 15.0673 0.467237 15.3097 0.728021C15.5521 0.988804 15.7388 1.26263 15.8699 1.54949C15.9354 1.73204 15.978 1.94718 15.9976 2.19493C16.0173 2.44267 15.9157 2.67738 15.693 2.89904ZM8.14788 5.14305L11.1975 2.0813L13.8537 4.74798C12.7387 5.86733 11.7222 6.88133 10.804 7.78998C10.4105 8.17187 10.0269 8.55048 9.65302 8.92579C9.2792 9.3011 8.93816 9.6369 8.62992 9.9332C8.32167 10.2295 8.06918 10.4764 7.87243 10.6739L7.51827 11.0295C7.42646 11.1217 7.32152 11.2139 7.20347 11.306C7.08542 11.3982 6.95425 11.4772 6.80997 11.5431C6.66569 11.6089 6.46565 11.6879 6.20988 11.7801C5.9541 11.8723 5.68849 11.9612 5.41304 12.0468C5.13759 12.1324 4.87525 12.2114 4.62603 12.2838C4.37681 12.3563 4.18662 12.3991 4.05545 12.4122C3.80624 12.4386 3.67179 12.4155 3.65211 12.3431C3.63244 12.2707 3.64228 12.1093 3.68163 11.8591C3.69474 11.7275 3.72754 11.5332 3.78 11.2764C3.83247 11.0196 3.88494 10.7595 3.9374 10.4962C3.98987 10.2328 4.04562 9.98588 4.10464 9.75542C4.16367 9.52497 4.21285 9.36365 4.2522 9.27147C4.31779 9.12661 4.38665 9.00151 4.45879 8.89616C4.53094 8.79081 4.63259 8.67229 4.76376 8.5406L8.14788 5.14305ZM14.8374 7.98029C15.1133 7.98029 15.376 8.04598 15.6256 8.17734C15.8752 8.3087 16 8.578 16 8.98522V13.4581C16 13.8259 15.931 14.1642 15.7931 14.4729C15.6552 14.7816 15.468 15.0509 15.2315 15.2808C14.9951 15.5107 14.7258 15.688 14.4236 15.8128C14.1215 15.9376 13.8128 16 13.4975 16H2.50246C2.18719 16 1.87849 15.931 1.57635 15.7931C1.27422 15.6552 1.00821 15.468 0.778325 15.2315C0.54844 14.9951 0.361248 14.7159 0.216749 14.3941C0.0722496 14.0722 0 13.7274 0 13.3596V2.38424C0 2.12151 0.0722496 1.84893 0.216749 1.5665C0.361248 1.28407 0.54844 1.02791 0.778325 0.798029C1.00821 0.568144 1.26765 0.377668 1.55665 0.226601C1.84565 0.0755336 2.13465 0 2.42365 0H7.01478C7.3826 0 7.64204 0.134647 7.7931 0.403941C7.94417 0.673235 8.01971 0.945813 8.01971 1.22167C8.01971 1.49754 7.94417 1.76355 7.7931 2.0197C7.64204 2.27586 7.3826 2.40394 7.01478 2.40394H3.40887C3.13301 2.40394 2.90969 2.49918 2.73892 2.68966C2.56814 2.88013 2.48276 3.1133 2.48276 3.38916V12.6502C2.48276 12.913 2.56814 13.133 2.73892 13.3103C2.90969 13.4877 3.13301 13.5764 3.40887 13.5764H12.532C12.8079 13.5764 13.0443 13.4877 13.2414 13.3103C13.4384 13.133 13.5369 12.913 13.5369 12.6502V8.98522C13.5369 8.80131 13.5796 8.64368 13.665 8.51231C13.7504 8.38095 13.8555 8.27586 13.9803 8.19704C14.1051 8.11823 14.243 8.0624 14.3941 8.02956C14.5452 7.99672 14.6929 7.98029 14.8374 7.98029Z"/>
</g>
</svg>
