<svg xmlns="http://www.w3.org/2000/svg" width="20" height="20" viewBox="0 0 20 20" fill="none">
  <path fill-rule="evenodd" clip-rule="evenodd" d="M5 3C3.89543 3 3 3.89543 3 5V11.75C3 12.8546 3.89543 13.75 5 13.75H6.5V15.25C6.5 16.3546 7.39543 17.25 8.5 17.25H15.25C16.3546 17.25 17.25 16.3546 17.25 15.25V8.5C17.25 7.39543 16.3546 6.5 15.25 6.5H13.75V5C13.75 3.89543 12.8546 3 11.75 3H5ZM13.75 8.5V11.75C13.75 12.8546 12.8546 13.75 11.75 13.75H8.5V15.25H15.25V8.5H13.75ZM5 5H11.75V11.75H5V5Z" />
</svg>
