<svg xmlns="http://www.w3.org/2000/svg" width="13" height="14" viewBox="0 0 13 14" fill="none">
  <path d="M7.78571 0.5C9.24532 0.5 10.4286 1.68325 10.4286 3.14286L10.426 3.071L12.9999 3.07132L13 3.5713L13.0007 6.18573L13.0009 6.79779L12.4011 6.67584C12.2936 6.65398 12.1834 6.64286 12.0714 6.64286C11.1641 6.64286 10.4286 7.37839 10.4286 8.28571C10.4286 9.19304 11.1641 9.92857 12.0714 9.92857C12.1834 9.92857 12.2936 9.91745 12.4011 9.89559L13.0009 9.77364L13.0007 10.3857L13 13.0001L12.9999 13.5H2.57132L2.571 10.926L2.47572 10.9234C1.14925 10.8406 0.0879786 9.77932 0.00519943 8.45285L0 8.28571C0 6.8261 1.18325 5.64286 2.64286 5.64286L2.571 5.645L2.57132 3.07132L5.145 3.071L5.14806 2.97572C5.23084 1.64925 6.29211 0.587979 7.61858 0.505199L7.78571 0.5ZM3.57198 6.18573L3.5721 6.79771L2.97238 6.67581C2.86492 6.65397 2.75476 6.64286 2.64286 6.64286C1.73553 6.64286 1 7.37839 1 8.28571C1 9.19304 1.73553 9.92857 2.64286 9.92857C2.75476 9.92857 2.86492 9.91746 2.97238 9.89561L3.5721 9.77371L3.57198 10.3857L3.571 12.5H12V10.926L11.9043 10.9234C10.5778 10.8406 9.51655 9.77932 9.43377 8.45285L9.42857 8.28571C9.42857 6.8261 10.6118 5.64286 12.0714 5.64286L12 5.645V4.071L9.8857 4.07198L9.27372 4.0721L9.39561 3.47238C9.41746 3.36492 9.42857 3.25476 9.42857 3.14286C9.42857 2.23553 8.69304 1.5 7.78571 1.5C6.87839 1.5 6.14286 2.23553 6.14286 3.14286C6.14286 3.25476 6.15397 3.36492 6.17582 3.47238L6.29771 4.0721L5.68573 4.07198L3.571 4.071L3.57198 6.18573Z" fill="currentColor"/>
</svg>
