<svg xmlns="http://www.w3.org/2000/svg" width="15" height="14" viewBox="0 0 15 14" fill="none">
  <path fill-rule="evenodd" clip-rule="evenodd" d="M3.5 0.574829C4.24362 0.574829 4.93308 0.806737 5.5 1.20217C6.06692 0.806737 6.75638 0.574829 7.5 0.574829C8.24362 0.574829 8.93308 0.806737 9.5 1.20217C10.0669 0.806737 10.7564 0.574829 11.5 0.574829C13.433 0.574829 15 2.14183 15 4.07483C15 5.83774 13.6966 7.29623 12.0009 7.53925L12 9.42483L14 9.42507V10.4251L12 10.4248V11.4248L14 11.4251V12.4251L12 12.4248V13.4251H11L11 7.53939C10.448 7.46044 9.93751 7.25266 9.5 6.94748C9.06276 7.25247 8.55262 7.46018 8.00095 7.53925L8 9.42483L10 9.42507V10.4251L8 10.4248V11.4248L10 11.4251V12.4251L8 12.4248V13.4251H7L7.00005 7.53939C6.448 7.46044 5.93751 7.25266 5.5 6.94748C5.06275 7.25247 4.55261 7.46018 4.00095 7.53925L4 9.42483L6 9.42507V10.4251L4 10.4248V11.4248L6 11.4251V12.4251L4 12.4248V13.4251H3L3.00005 7.53939C1.30388 7.2968 0 5.83808 0 4.07483C0 2.14183 1.567 0.574829 3.5 0.574829ZM10.2499 6.2403C10.6176 6.45306 11.0446 6.57483 11.5 6.57483C12.8807 6.57483 14 5.45554 14 4.07483C14 2.69412 12.8807 1.57483 11.5 1.57483C11.0446 1.57483 10.6176 1.6966 10.2499 1.90936C10.7197 2.50512 11 3.25724 11 4.07483C11 4.89242 10.7197 5.64454 10.2499 6.2403ZM9.5 2.57459C9.81396 2.99246 10 3.51192 10 4.07483C10 4.63774 9.81396 5.1572 9.5 5.57507C9.18605 5.1572 9 4.63774 9 4.07483C9 3.51192 9.18605 2.99246 9.5 2.57459ZM8.75014 1.90936C8.28034 2.50512 8 3.25724 8 4.07483C8 4.89242 8.28034 5.64453 8.75014 6.24029C8.38239 6.45306 7.95541 6.57483 7.5 6.57483C7.04459 6.57483 6.61761 6.45306 6.24987 6.2403C6.71966 5.64454 7 4.89242 7 4.07483C7 3.25724 6.71966 2.50512 6.24987 1.90936C6.61761 1.6966 7.04459 1.57483 7.5 1.57483C7.95542 1.57483 8.38239 1.6966 8.75014 1.90936ZM3.5 1.57483C3.95541 1.57483 4.38239 1.6966 4.75013 1.90936C4.28034 2.50512 4 3.25724 4 4.07483C4 4.89242 4.28034 5.64454 4.75013 6.2403C4.38239 6.45306 3.95541 6.57483 3.5 6.57483C2.11929 6.57483 1 5.45554 1 4.07483C1 2.69412 2.11929 1.57483 3.5 1.57483ZM5 4.07483C5 4.63774 5.18605 5.1572 5.5 5.57507C5.81396 5.1572 6 4.63774 6 4.07483C6 3.51192 5.81396 2.99246 5.5 2.57459C5.18605 2.99246 5 3.51192 5 4.07483Z" fill="currentColor"/>
</svg>
