<svg xmlns="http://www.w3.org/2000/svg" width="20" height="20" viewBox="0 0 20 20" fill="none">
  <path d="M5.8 17C4.2536 17 3 15.7464 3 14.2V5.80001C3 4.25362 4.2536 3.00001 5.8 3.00001H7.66666C8.00096 2.99873 8.31041 3.17635 8.47793 3.46564C8.64545 3.75494 8.64545 4.11174 8.47793 4.40104C8.31041 4.69034 8.00096 4.86795 7.66666 4.86667H5.8C5.28453 4.86667 4.86666 5.28454 4.86666 5.80001V14.2C4.86667 14.7155 5.28454 15.1333 5.8 15.1333H14.2C14.7155 15.1333 15.1333 14.7155 15.1333 14.2V12.3333C15.1353 11.8193 15.5526 11.4036 16.0667 11.4036C16.5807 11.4036 16.998 11.8193 17 12.3333V14.2C17 15.7464 15.7464 17 14.2 17H5.8ZM7.0068 12.996C6.83126 12.8209 6.7326 12.5831 6.7326 12.3352C6.7326 12.0873 6.83126 11.8495 7.0068 11.6744L13.8136 4.87134H11.4C10.8859 4.86937 10.4702 4.45208 10.4702 3.93801C10.4702 3.42393 10.8859 3.00664 11.4 3.00468H16.0667C16.5821 3.00468 17 3.42255 17 3.93801V8.60467C16.998 9.11874 16.5807 9.53444 16.0667 9.53444C15.5526 9.53444 15.1353 9.11874 15.1333 8.60467V6.18922L8.32652 13.0026C7.96059 13.3633 7.37274 13.3633 7.0068 13.0026V12.996Z" />
</svg>
