<svg width="12" height="12" viewBox="0 0 12 12" fill="none" xmlns="http://www.w3.org/2000/svg">
<path fill-rule="evenodd" clip-rule="evenodd" d="M11.4436 6.42559C11.424 6.59392 11.4069 6.76255 11.3844 6.93044C11.2849 7.6714 11.0319 8.35807 10.6356 8.98985C10.1926 9.69577 9.62811 10.2856 8.92198 10.7344C8.55272 10.969 8.15886 11.1532 7.74508 11.2925C7.51575 11.3697 7.35659 11.251 7.35539 11.0097C7.35308 10.5383 7.35569 10.0668 7.3542 9.59538C7.35346 9.35344 7.33981 9.11112 7.23263 8.88924C7.17357 8.767 7.09115 8.65603 7.01985 8.54095C7.21846 8.50373 7.43124 8.47539 7.63798 8.42296C8.19354 8.28215 8.6901 8.03663 9.02878 7.55185C9.27766 7.19565 9.39147 6.78634 9.44174 6.35974C9.48082 6.02822 9.49185 5.69552 9.4222 5.36542C9.35216 5.03316 9.20934 4.73536 8.98657 4.47947C8.92742 4.4116 8.92265 4.35775 8.9501 4.2734C9.09284 3.83531 9.03154 3.40631 8.8688 2.98627C8.85933 2.96188 8.81928 2.93854 8.79042 2.93406C8.5974 2.90423 8.41527 2.95912 8.2459 3.03885C7.97435 3.16653 7.71227 3.31413 7.44318 3.44711C7.39164 3.47262 7.32094 3.49022 7.26769 3.47694C6.42238 3.2664 5.57827 3.26446 4.73453 3.4806C4.66181 3.49917 4.60692 3.48627 4.54681 3.44629C4.20836 3.22113 3.8438 3.0525 3.45024 2.94831C3.44002 2.94555 3.42988 2.94219 3.41943 2.94026C3.17227 2.89379 3.13259 2.9193 3.06189 3.15915C2.94696 3.54921 2.92518 3.93815 3.06212 4.32866C3.07293 4.35961 3.06167 4.41354 3.03974 4.43845C2.59076 4.94799 2.48359 5.55269 2.5393 6.20483C2.57308 6.60019 2.66445 6.97981 2.84083 7.33675C3.08449 7.83011 3.49737 8.13373 3.99893 8.309C4.30024 8.41423 4.6231 8.45756 4.93635 8.52857C4.95231 8.53222 4.96864 8.53416 4.97036 8.53446C4.89078 8.67944 4.80948 8.82204 4.73438 8.96778C4.71051 9.01402 4.69269 9.06824 4.69045 9.11962C4.68508 9.24164 4.62102 9.29892 4.50855 9.328C4.16659 9.41638 3.82777 9.47568 3.50207 9.27431C3.32919 9.16743 3.20039 9.01879 3.09844 8.84516C2.94152 8.57809 2.72113 8.38336 2.42377 8.2946C2.31667 8.26261 2.19473 8.2688 2.0807 8.27603C1.99448 8.28148 1.97584 8.3439 2.03088 8.4114C2.07742 8.46845 2.12425 8.53334 2.18586 8.56877C2.47531 8.73516 2.6376 9.00111 2.76871 9.29191C2.8459 9.46322 2.91541 9.63595 3.061 9.76639C3.28989 9.97149 3.56591 10.0491 3.86133 10.0623C4.11752 10.0738 4.37467 10.0647 4.64883 10.0647C4.64883 10.2478 4.64839 10.4561 4.64906 10.6644C4.64936 10.7743 4.65331 10.8841 4.65286 10.994C4.65174 11.2486 4.48379 11.3716 4.24259 11.2894C3.43808 11.0152 2.73008 10.583 2.13656 9.97328C1.56109 9.38208 1.12128 8.70309 0.85003 7.91953C0.696243 7.47525 0.606969 7.01829 0.571394 6.55007C0.568187 6.50838 0.560356 6.46706 0.554688 6.42559C0.554688 6.21289 0.554688 6.00018 0.554688 5.7874C0.561549 5.74989 0.569529 5.71252 0.575123 5.67486C0.611593 5.42993 0.631208 5.1812 0.686324 4.94053C0.994792 3.59359 1.71212 2.51253 2.83173 1.70377C3.60842 1.14277 4.47506 0.812298 5.43149 0.718997C6.24018 0.64009 7.03164 0.715715 7.79736 0.988534C8.91534 1.38695 9.81822 2.07399 10.4917 3.05429C10.9369 3.70218 11.2349 4.41204 11.3607 5.19045C11.3927 5.38876 11.4162 5.58842 11.4436 5.7874V6.42559Z" />
</svg>
