<svg xmlns="http://www.w3.org/2000/svg" width="20" height="20" viewBox="0 0 20 20" fill="none">
  <path fill-rule="evenodd" clip-rule="evenodd" d="M10 0V6.81818L13 4.69697L16 6.81818L16.0001 0.0399924C17.1369 0.254708 18 1.30833 18 2.57576V17.4242C18 18.8468 16.9127 20 15.5714 20H4.42857C3.08731 20 2 18.8468 2 17.4242V2.57576C2 1.15321 3.08731 0 4.42857 0H10ZM15.0714 16.3636H5.21429C4.54365 16.3636 4 16.9402 4 17.6515C4 18.3628 4.54365 18.9394 5.21429 18.9394H15.0714C15.7421 18.9394 16.2857 18.3628 16.2857 17.6515C16.2857 16.9402 15.7421 16.3636 15.0714 16.3636Z" />
</svg>
