<svg xmlns="http://www.w3.org/2000/svg" width="16" height="15" viewBox="0 0 16 15" fill="none">
  <path d="M13.7143 15H2.28567C1.02345 15 0 13.968 0 12.6945V9.81247C0 9.49424 0.256023 9.23619 0.571319 9.23619H1.71437C2.02986 9.23619 2.28567 9.49424 2.28567 9.81247V11.5417C2.28567 12.1785 2.79729 12.6945 3.42851 12.6945H12.5715C13.2027 12.6945 13.7143 12.1785 13.7143 11.5417V9.81247C13.7143 9.49424 13.9701 9.23619 14.2858 9.23619H15.4287C15.7442 9.23619 16 9.49424 16 9.81247V12.6945C16 13.968 14.9768 15 13.7143 15ZM3.35467 3.6917C3.58584 3.45853 3.96091 3.45853 4.1921 3.6917L6.85735 6.38014V0.576536C6.85735 0.258302 7.11323 0 7.42869 0H8.57151C8.88707 0 9.14306 0.258302 9.14306 0.576536V6.38014L11.8083 3.6917C12.0395 3.45853 12.4144 3.45853 12.6456 3.6917L13.4831 4.5366C13.7143 4.7698 13.7143 5.14792 13.4831 5.38131L8.76357 10.1419C8.74317 10.1625 8.37598 10.3889 8.0065 10.389C7.63299 10.3892 7.25722 10.1627 7.23681 10.1419L2.51706 5.38131C2.28585 5.1479 2.28585 4.7698 2.51706 4.5366L3.35467 3.6917Z" fill="currentColor" />
</svg>
