<svg xmlns="http://www.w3.org/2000/svg" width="16" height="14" viewBox="0 0 16 14" fill="none">
  <path d="M14.5695 2.65038C15.0834 2.65038 15.5 3.06695 15.5 3.58083C15.5 4.0947 15.0834 4.51128 14.5695 4.51128L14.5173 4.51129C14.533 4.57907 14.5414 4.64971 14.5414 4.72229V12.4624C14.5414 13.2099 13.9354 13.8158 13.188 13.8158H2.86842C2.12097 13.8158 1.51504 13.2099 1.51504 12.4624V4.65938C1.51504 4.60899 1.51901 4.55953 1.52667 4.51129L1.43045 4.51128C0.916577 4.51128 0.5 4.0947 0.5 3.58083C0.5 3.06695 0.916577 2.65038 1.43045 2.65038H14.5695ZM12.7099 4.51129L3.37857 4.51129C3.38622 4.55953 3.3902 4.60899 3.3902 4.65938V11.1536C3.3902 11.5896 3.74366 11.9431 4.17967 11.9431H11.8963C12.3323 11.9431 12.6858 11.5896 12.6858 11.1536V4.72229C12.6858 4.64971 12.6941 4.57907 12.7099 4.51129ZM6.33647 4.84962C6.85034 4.84962 7.26692 5.2662 7.26692 5.78008V10.5169C7.26692 11.0308 6.85034 11.4474 6.33647 11.4474C5.82259 11.4474 5.40601 11.0308 5.40601 10.5169V5.78008C5.40601 5.2662 5.82259 4.84962 6.33647 4.84962ZM9.71992 4.84962C10.2338 4.84962 10.6504 5.2662 10.6504 5.78008V10.5169C10.6504 11.0308 10.2338 11.4474 9.71992 11.4474C9.20605 11.4474 8.78947 11.0308 8.78947 10.5169V5.78008C8.78947 5.2662 9.20605 4.84962 9.71992 4.84962ZM11.7782 0.930451C11.7782 1.44433 11.3616 1.8609 10.8477 1.8609H5.20865C4.69477 1.8609 4.2782 1.44433 4.2782 0.930451C4.2782 0.416577 4.69477 0 5.20865 0H10.8477C11.3616 0 11.7782 0.416577 11.7782 0.930451Z" />
</svg>
