<svg width="20" height="20" viewBox="0 0 20 20" fill="none" xmlns="http://www.w3.org/2000/svg">
<g id="Component 3">
<path id="&#229;&#189;&#162;&#231;&#138;&#182;" d="M17.0799 8.51155C17.5145 8.53904 17.8899 8.84436 17.9474 9.27601C18.0413 9.98116 17.9943 10.5537 17.9245 10.9486C17.8576 11.3273 17.52 11.5675 17.1359 11.5863L16.7494 11.6052C16.3194 11.6263 15.9585 11.9236 15.796 12.3223C15.768 12.3911 15.7387 12.4594 15.7083 12.5272C15.5303 12.9235 15.5665 13.3946 15.8537 13.7206L16.059 13.9539C16.3468 14.2806 16.3963 14.7618 16.1318 15.1076C15.6995 15.6728 15.2614 16.0445 14.9328 16.2743C14.6177 16.4947 14.2093 16.4257 13.9244 16.1675L13.6434 15.9128C13.3208 15.6204 12.8489 15.5779 12.4497 15.7516C12.3792 15.7823 12.3081 15.8117 12.2365 15.8398C11.8363 15.9968 11.5348 16.3531 11.5075 16.782L11.4886 17.0801C11.461 17.5145 11.1558 17.8898 10.7243 17.9473C10.0189 18.0413 9.44622 17.9944 9.05125 17.9245C8.67264 17.8575 8.43257 17.5199 8.41374 17.1359L8.39857 16.8264C8.37701 16.3867 8.06724 16.0206 7.65518 15.8657C7.59485 15.843 7.53496 15.8195 7.47553 15.795C7.07899 15.632 6.6158 15.678 6.29815 15.9659L6.0758 16.1675C5.79094 16.4257 5.38248 16.4947 5.06742 16.2743C4.73883 16.0445 4.30081 15.6729 3.86858 15.1079C3.60396 14.762 3.67525 14.3016 3.97927 13.9898C4.19487 13.7687 4.38177 13.5241 4.40138 13.2466C4.41027 13.1206 3.82234 11.6333 3.79706 11.632L2.86414 11.5863C2.48008 11.5675 2.14248 11.3274 2.07552 10.9487C2.00568 10.5538 1.95872 9.98116 2.05261 9.2759C2.11006 8.84431 2.48539 8.53901 2.91992 8.51145L2.9988 8.50644C3.43776 8.4786 3.7994 8.16404 3.95034 7.7509C3.99525 7.62795 4.04399 7.50644 4.09647 7.38652C4.27141 6.98679 4.22945 6.51375 3.93642 6.19044L3.83233 6.0756C3.57412 5.79071 3.5052 5.38224 3.7256 5.06719C3.95547 4.73859 4.32718 4.30056 4.89229 3.86833C5.23811 3.60382 5.71936 3.65338 6.04608 3.94115L6.1105 3.99789C6.43696 4.28544 6.90884 4.32139 7.30542 4.14253C7.42256 4.0897 7.54129 4.04046 7.66145 3.99488C8.07346 3.83858 8.38389 3.47201 8.40549 3.03187L8.41372 2.86403C8.43257 2.48007 8.67258 2.14253 9.05112 2.07555C9.44607 2.00566 10.0188 1.95868 10.7242 2.05271C11.1558 2.11023 11.461 2.48554 11.4885 2.92L11.4984 3.07599C11.5256 3.50541 11.8277 3.86193 12.2284 4.01867C12.3601 4.07019 12.4901 4.12611 12.618 4.18635C13.0178 4.37452 13.4985 4.34231 13.83 4.05033L13.9538 3.94131C14.2805 3.65359 14.7617 3.60405 15.1075 3.86851C15.6727 4.30075 16.0445 4.73881 16.2743 5.06742C16.4948 5.38247 16.4258 5.79095 16.1676 6.07584L15.9502 6.31568C15.6623 6.63333 15.6164 7.09646 15.7797 7.49287C15.8134 7.57481 15.8455 7.65763 15.8759 7.74127C16.0258 8.15408 16.387 8.46771 16.8254 8.49544L17.0799 8.51155ZM9.99987 6.29268C7.95252 6.29268 6.29268 7.95244 6.29268 9.99999C6.29268 12.0475 7.95239 13.7073 9.99987 13.7073C12.0474 13.7073 13.7073 12.0476 13.7073 9.99999C13.7073 7.95242 12.0474 6.29268 9.99987 6.29268Z" />
</g>
</svg>
