<svg width="12" height="11" viewBox="0 0 12 11" fill="none" xmlns="http://www.w3.org/2000/svg">
<path d="M6.06125 0.3125C3.12761 0.3125 0.75 2.69011 0.75 5.62375C0.75 8.55739 3.12761 10.935 6.06125 10.935C8.99489 10.935 11.3725 8.55739 11.3725 5.62375C11.3725 2.69011 8.99489 0.3125 6.06125 0.3125ZM4.25211 9.90595C3.6992 9.6715 3.20127 9.33644 2.77491 8.91009C2.34752 8.4827 2.01246 7.9858 1.77905 7.4329C1.53631 6.86028 1.41391 6.25135 1.41391 5.62375C1.41391 5.32292 1.44191 5.02623 1.49793 4.73681C1.56536 4.76275 1.64109 4.77727 1.71474 4.77727C1.81536 4.77727 1.91495 4.75237 1.99586 4.69843C2.07885 4.64345 2.17532 4.61441 2.27076 4.61441C2.35271 4.61441 2.43466 4.63619 2.50728 4.6808C2.5913 4.73266 2.65043 4.80113 2.65043 4.91731C2.65043 5.76379 2.67948 6.66733 3.44816 6.67978C3.47098 6.67978 3.87555 6.83434 4.06849 7.33642C4.09132 7.39451 4.13488 7.41319 4.19505 7.41319C4.31435 7.41319 4.49588 7.33642 4.68883 7.33642C4.83302 7.33642 4.68883 7.58124 4.68883 8.10925C4.68987 8.63208 5.82266 9.44225 5.82266 9.44225C5.81643 9.7742 5.832 10.0491 5.85689 10.2659C5.30191 10.2431 4.76248 10.1217 4.25211 9.90595ZM9.34759 8.91009C8.9202 9.33748 8.4233 9.67254 7.8704 9.90595C7.61728 10.0128 7.35794 10.0968 7.09238 10.1559C7.07682 10.1528 7.05918 10.1518 7.04051 10.1518C7.0042 10.1518 6.96271 10.157 6.91603 10.1694C7.07682 9.48997 7.15358 9.10718 7.48554 8.8188C7.94197 8.42253 7.58616 7.98477 7.23657 7.98477C7.21686 7.98477 7.19612 7.9858 7.17641 7.98892C7.16084 7.99099 7.14736 7.99203 7.13491 7.99203C6.90462 7.99203 7.05711 7.62999 6.81229 7.60925C6.55503 7.58746 6.21789 7.07605 5.84341 6.89866C5.64631 6.8053 5.4544 6.55426 5.14838 6.54077H5.13074C4.9378 6.54077 4.69194 6.65592 4.56642 6.65592C4.51663 6.65592 4.48551 6.63724 4.48551 6.58641C4.48551 5.99409 4.42431 5.57292 4.41497 5.40591C4.41082 5.34885 4.39422 5.33225 4.40356 5.33225C4.41601 5.33225 4.47825 5.36545 4.69194 5.37064H4.69713C4.89008 5.37064 4.79775 4.97125 4.98863 4.95569C4.99693 4.95466 5.00522 4.95466 5.01352 4.95466C5.18365 4.95466 5.50627 5.07706 5.67535 5.07706C5.71062 5.07706 5.73863 5.07188 5.75731 5.05943C5.75938 5.05839 5.76146 5.05735 5.76457 5.05735C5.85585 5.05735 6.21478 5.95259 6.41603 5.95259C6.49901 5.95259 6.55503 5.8001 6.55503 5.37167C6.55503 5.19429 6.46167 4.88515 6.55503 4.71503C6.91914 4.04905 7.25939 3.50444 7.23035 3.42767C7.22101 3.40381 7.11313 3.38203 6.97101 3.38203C6.84964 3.38203 6.70441 3.39759 6.5737 3.44012C6.47619 3.47228 6.60275 3.62373 6.46789 3.65589C6.37764 3.67664 6.28947 3.68597 6.20648 3.68597C5.81021 3.68597 5.5239 3.47539 5.65357 3.27311C5.81851 3.02518 6.40876 3.16315 6.46167 2.66522C6.48553 2.43493 6.50628 2.17559 6.52184 1.95463C6.52702 1.87475 6.59134 1.81251 6.67121 1.80733C7.05711 1.77932 7.09653 1.31977 6.73553 1.0262C7.12454 1.08222 7.50421 1.18803 7.86832 1.34259C8.42123 1.57703 8.91916 1.9121 9.34551 2.33845C9.73348 2.72642 10.0447 3.17145 10.275 3.66419C10.2159 3.62788 10.1546 3.61025 10.0945 3.61025C9.80091 3.61025 9.53224 4.00859 9.70029 4.46088C8.32061 5.51898 8.67434 6.25965 9.12456 6.68081C9.25734 6.8053 9.38804 6.96505 9.50215 7.12376C9.61211 7.27522 9.68058 7.45053 9.72 7.63414C9.73452 7.70053 9.78639 7.73373 9.86211 7.73373C9.97622 7.73373 10.1422 7.658 10.3092 7.50862C10.0789 8.03041 9.75527 8.50241 9.34759 8.91009Z" />
</svg>
