<svg xmlns="http://www.w3.org/2000/svg" width="20" height="20" viewBox="0 0 20 20" fill="none">
  <path opacity="0.5" fill-rule="evenodd" clip-rule="evenodd" d="M10 18C14.4183 18 18 14.4183 18 10C18 5.58172 14.4183 2 10 2C5.58172 2 2 5.58172 2 10C2 14.4183 5.58172 18 10 18ZM10.0228 6.65965C10.3263 6.65965 10.5904 6.76101 10.8152 6.96373C11.04 7.16644 11.1524 7.41051 11.1524 7.69596C11.1524 7.98936 11.0684 8.24499 10.9004 8.46283C10.7323 8.6807 10.5409 8.87594 10.326 9.04856C10.0112 9.33097 9.72996 9.64106 9.48228 9.97886C9.23459 10.3166 9.11075 10.6894 9.11075 11.0972C9.11075 11.2989 9.19069 11.4686 9.35055 11.6061C9.51039 11.7437 9.69689 11.8124 9.91005 11.8124C10.1376 11.8124 10.3361 11.7372 10.5057 11.5868C10.6753 11.4363 10.7966 11.2484 10.8697 11.0231C10.9378 10.7993 11.0455 10.5829 11.1928 10.3739C11.3401 10.1648 11.5083 9.98329 11.6973 9.82933C12.0238 9.54029 12.2913 9.20173 12.4996 8.81365C12.708 8.42555 12.8121 8.03007 12.8121 7.62721C12.8121 6.88496 12.5506 6.26731 12.0274 5.77425C11.5043 5.2812 10.8833 5.03467 10.1646 5.03467C9.60289 5.03467 9.07848 5.15504 8.5914 5.39577C8.1043 5.63652 7.69594 5.97171 7.3663 6.40134C7.24223 6.58745 7.19155 6.79035 7.21425 7.01004C7.23698 7.22975 7.33724 7.40617 7.51505 7.53929C7.74443 7.65657 7.98173 7.68975 8.22692 7.63883C8.47212 7.5879 8.67181 7.46753 8.826 7.27771C8.95795 7.10268 9.13032 6.95592 9.34313 6.83742C9.55593 6.7189 9.78249 6.65965 10.0228 6.65965ZM9.99113 14.9166C10.2766 14.9166 10.5276 14.8106 10.7442 14.5987C10.9608 14.3868 11.0691 14.1358 11.0691 13.8457C11.0691 13.5556 10.9613 13.3074 10.7458 13.1011C10.5302 12.8948 10.2774 12.7916 9.98732 12.7916C9.69719 12.7916 9.44616 12.8939 9.23421 13.0984C9.02228 13.3029 8.91632 13.5533 8.91632 13.8495C8.91632 14.135 9.02237 14.3842 9.23446 14.5971C9.44656 14.8101 9.69878 14.9166 9.99113 14.9166Z" />
</svg>
