<svg xmlns="http://www.w3.org/2000/svg" width="20" height="18" viewBox="0 0 20 18" fill="none">
  <path fill-rule="evenodd" clip-rule="evenodd" d="M0.979492 1C0.979492 0.447716 1.42721 0 1.97949 0H8.61584C9.16812 0 9.61584 0.447715 9.61584 1V17C9.61584 17.5523 9.16812 18 8.61584 18H1.97949C1.42721 18 0.979492 17.5523 0.979492 17V1ZM11.3418 1C11.3418 0.447715 11.7895 0 12.3418 0H18.9781C19.5304 0 19.9781 0.447715 19.9781 1V5.3C19.9781 5.85229 19.5304 6.3 18.9781 6.3H12.3418C11.7895 6.3 11.3418 5.85228 11.3418 5.3V1ZM12.3418 8.09998C11.7895 8.09998 11.3418 8.54769 11.3418 9.09998V17C11.3418 17.5523 11.7895 18 12.3418 18H18.9781C19.5304 18 19.9781 17.5523 19.9781 17V9.09998C19.9781 8.54769 19.5304 8.09998 18.9781 8.09998H12.3418Z" fill="#2700FF"/>
</svg>
