<svg xmlns="http://www.w3.org/2000/svg" width="18" height="21" viewBox="0 0 18 21" fill="none">
  <path d="M9.00004 1.75C9.62883 1.75 10.2616 1.8125 10.8784 1.93555C11.5011 2.06055 12.1139 2.24805 12.6984 2.49414L16.1043 3.92791C16.4751 4.08403 16.7163 4.4472 16.7163 4.84957V9.11133C16.7183 10.2773 16.5154 11.4258 16.1116 12.5234C15.7143 13.61 15.1487 14.6224 14.4288 15.5337C14.427 15.536 14.4254 15.5384 14.4241 15.541C14.4228 15.5436 14.4212 15.5461 14.4194 15.5484C13.6987 16.4747 12.8358 17.2743 11.8527 17.9277C11.0504 18.4591 10.1789 18.8643 9.2569 19.1357C9.09052 19.1847 8.91354 19.1848 8.74714 19.1359C7.82109 18.8639 6.9458 18.4552 6.14135 17.9219C5.15698 17.2676 4.29315 16.4668 3.57195 15.5391L3.56994 15.5371L3.56793 15.5352C2.85316 14.6255 2.2909 13.6144 1.89518 12.5311C1.89473 12.5299 1.89451 12.5286 1.89451 12.5274C1.89451 12.5261 1.89428 12.5248 1.89383 12.5235C1.49049 11.4264 1.28782 10.2786 1.29178 9.11328V4.8514C1.29178 4.44909 1.53286 4.08596 1.90362 3.9298L5.30765 2.49609C5.89225 2.25 6.50497 2.0625 7.12773 1.9375C7.73844 1.8125 8.36924 1.75 9.00004 1.75ZM9.00004 0.5C7.56768 0.5 6.13332 0.783203 4.79136 1.34961L0.612283 3.10768C0.241315 3.26374 5.02175e-05 3.62698 5.02175e-05 4.02944V9.11133C-0.00391609 10.4199 0.227109 11.7168 0.679115 12.9473C1.11706 14.1523 1.74585 15.2812 2.54138 16.2949C3.34494 17.3281 4.31525 18.2266 5.41212 18.957C6.4392 19.6393 7.57491 20.1432 8.77399 20.4459C8.92103 20.4831 9.07501 20.483 9.22203 20.4458C10.4173 20.1433 11.5508 19.6413 12.5739 18.9629C13.6728 18.2344 14.6411 17.334 15.4446 16.3008C16.2462 15.2852 16.879 14.1523 17.321 12.9434C17.773 11.7129 18.002 10.4141 18 9.10742V4.02929C18 3.62691 17.7588 3.26372 17.3879 3.10761L13.2067 1.34766C11.8647 0.783203 10.4324 0.5 9.00004 0.5ZM9.00004 3C10.1009 3 11.1737 3.2168 12.1862 3.64258L14.8166 4.75015C15.1875 4.90628 15.4286 5.26944 15.4286 5.67179V9.11328C15.4306 10.1341 15.254 11.1393 14.9009 12.1017C14.9004 12.1029 14.9002 12.1042 14.9002 12.1055C14.9002 12.1068 14.9 12.108 14.8996 12.1093C14.548 13.0715 14.046 13.9712 13.4076 14.7793L13.4016 14.7871L13.3955 14.7949C12.7567 15.6113 11.9953 16.3203 11.1255 16.8965C10.5513 17.2766 9.93767 17.5815 9.29254 17.8086C9.10191 17.8758 8.89409 17.8759 8.70339 17.809C8.0547 17.5813 7.43889 17.2744 6.86255 16.8906C5.99269 16.3125 5.22931 15.6055 4.59248 14.7852L4.58846 14.7793L4.58444 14.7734C3.94963 13.9668 3.45142 13.0703 3.10187 12.1094L3.09986 12.1055L3.09785 12.1016C2.74629 11.1445 2.5695 10.1387 2.5715 9.11719V5.67163C2.5715 5.26936 2.81253 4.90626 3.18323 4.75008L5.81189 3.64258C6.82438 3.2168 7.89714 3 9.00004 3Z" fill="currentColor"/>
</svg>