<svg xmlns="http://www.w3.org/2000/svg" width="13" height="14" viewBox="0 0 13 14" fill="none">
  <path d="M6.49093 0.5C8.46937 0.5 10.0733 2.12539 10.0733 4.1303C10.0733 5.43375 9.39557 6.57663 8.3777 7.21688C9.23507 7.47957 10.0295 7.9192 10.7111 8.50812C10.844 8.62278 10.9065 8.80059 10.8749 8.97456C10.8434 9.14853 10.7226 9.29223 10.5582 9.35153C10.3938 9.41084 10.2106 9.37673 10.0777 9.26207C9.07764 8.39736 7.80554 7.92337 6.49093 7.92561C3.61072 7.92561 1.2177 10.1637 0.974758 13.0526C0.948993 13.3225 0.713711 13.5212 0.447071 13.4982C0.180431 13.4752 -0.0183043 13.239 0.00133924 12.9686C0.232065 10.2254 2.10873 7.98189 4.60465 7.21705C3.58678 6.57712 2.90857 5.43392 2.90857 4.1303C2.90857 2.12539 4.5125 0.5 6.49093 0.5ZM12.8407 10.2056L12.8569 10.2213C12.9482 10.3085 13 10.43 13 10.5571C13 10.6842 12.9482 10.8057 12.8569 10.8929L10.3799 13.2592C10.2862 13.3489 10.1613 13.3973 10.0324 13.3938C9.90351 13.3973 9.77851 13.3489 9.68476 13.2592L8.26224 11.9003C8.17094 11.8131 8.11917 11.6916 8.11917 11.5645C8.11917 11.4374 8.17094 11.3159 8.26224 11.2287L8.27868 11.213C8.46687 11.0332 8.76073 11.0332 8.94891 11.213L10.0324 12.248L12.1704 10.2056C12.3586 10.0258 12.6525 10.0258 12.8407 10.2056ZM6.49093 1.49008C5.05197 1.49008 3.88558 2.67208 3.88558 4.1303C3.88558 5.58852 5.05199 6.77053 6.49093 6.77053C7.92988 6.77053 9.09629 5.58851 9.09629 4.1303C9.09629 2.6721 7.92988 1.49008 6.49093 1.49008Z" fill="currentColor"/>
</svg>
