<svg xmlns="http://www.w3.org/2000/svg" width="20" height="20" viewBox="0 0 20 20" fill="none">
  <path d="M17.2 1V4.6L17.2465 4.60059C18.2191 4.62523 19 5.42142 19 6.4V10H14.5C13.5059 10 12.7 10.8059 12.7 11.8C12.7 12.7941 13.5059 13.6 14.5 13.6H19V15.7027C19 17.5237 17.5237 19 15.7027 19H4.29735C2.47627 19 1 17.5237 1 15.7027V3.7C1 2.20883 2.20883 1 3.7 1H17.2ZM14.5956 11.2176C14.9061 11.0384 15.2886 11.0384 15.5991 11.2176C15.9096 11.3969 16.1009 11.7282 16.1009 12.0867C16.1009 12.4453 15.9096 12.7766 15.5991 12.9558C15.2886 13.1351 14.9061 13.1351 14.5956 12.9558C14.2851 12.7766 14.0938 12.4453 14.0938 12.0867C14.0938 11.7282 14.2851 11.3969 14.5956 11.2176ZM15.4 2.8H3.7C3.20294 2.8 2.8 3.20294 2.8 3.7C2.8 4.19706 3.20294 4.6 3.7 4.6H15.4V2.8Z" fill="currentColor"/>
</svg>
