<svg xmlns="http://www.w3.org/2000/svg" width="20" height="21" viewBox="0 0 20 21" fill="none">
  <circle cx="10" cy="10.5" r="7" stroke="currentColor" stroke-width="2"/>
  <path d="M7.17218 7.67157C7.5627 7.28105 8.19587 7.28105 8.58639 7.67157L10.0006 9.08579L11.4148 7.67157C11.8053 7.28105 12.4385 7.28105 12.829 7.67157C13.2196 8.0621 13.2196 8.69526 12.829 9.08579L11.4148 10.5L12.829 11.9142C13.2196 12.3047 13.2196 12.9379 12.829 13.3284C12.4385 13.719 11.8053 13.719 11.4148 13.3284L10.0006 11.9142L8.58639 13.3284C8.19587 13.719 7.5627 13.719 7.17218 13.3284C6.78165 12.9379 6.78165 12.3047 7.17218 11.9142L8.58639 10.5L7.17218 9.08579C6.78165 8.69526 6.78165 8.0621 7.17218 7.67157Z" fill="currentColor"/>
</svg>
