<svg xmlns="http://www.w3.org/2000/svg" width="20" height="20" viewBox="0 0 20 20" fill="none">
  <path d="M10.3516 2C10.8904 2 11.4096 2.10229 11.9091 2.30686C12.4086 2.51143 12.852 2.7927 13.2392 3.15069C13.6265 3.50867 13.9352 3.92348 14.1653 4.39512C14.3954 4.86677 14.5105 5.37534 14.5105 5.92085V9.43096H15.4753C15.7781 9.43096 16.0389 9.54126 16.2577 9.76184C16.4764 9.98243 16.5858 10.2454 16.5858 10.5509V15.8111C16.5858 16.1165 16.5325 16.4021 16.4259 16.668C16.3194 16.9338 16.1735 17.1657 15.9885 17.3637C15.8034 17.5617 15.5846 17.7172 15.3323 17.8303C15.0799 17.9434 14.8022 18 14.4994 18H6.00228C5.69942 18 5.42459 17.9434 5.17781 17.8303C4.93102 17.7172 4.7207 17.5673 4.54683 17.3806C4.37296 17.194 4.23836 16.9762 4.14302 16.7274C4.04767 16.4785 4 16.2127 4 15.9298V10.5509C4 10.2454 4.10656 9.98243 4.31968 9.76184C4.53281 9.54126 4.7908 9.43096 5.09368 9.43096H6.14226V5.92085C6.14226 5.37534 6.24889 4.86677 6.46216 4.39512C6.67543 3.92348 6.97009 3.50867 7.34614 3.15069C7.72219 2.7927 8.16558 2.51143 8.6763 2.30686C9.18702 2.10229 9.74546 2 10.3516 2ZM10.2843 4.14794C9.67812 4.14794 9.18983 4.34399 8.8194 4.73607C8.44896 5.12816 8.26375 5.68219 8.26376 6.39817L8.2637 9.43096H12.4731V6.39817C12.4731 5.68219 12.2767 5.12816 11.8838 4.73607C11.4909 4.34399 10.9578 4.14794 10.2843 4.14794Z" />
</svg>
