<svg width="24" height="24" viewBox="0 0 24 24" fill="none" xmlns="http://www.w3.org/2000/svg">
<path d="M12 2C12.5523 2 13 2.44772 13 3V4H17C18.1046 4 19 4.89543 19 6V18C19 19.1046 18.1046 20 17 20H7C5.89543 20 5 19.1046 5 18V6C5 4.89543 5.89543 4 7 4H11V3C11 2.44772 11.4477 2 12 2Z" stroke="currentColor" stroke-width="2"/>
<circle cx="8.5" cy="9.5" r="1.5" fill="currentColor"/>
<circle cx="15.5" cy="9.5" r="1.5" fill="currentColor"/>
<path d="M8 15H16" stroke="currentColor" stroke-width="2" stroke-linecap="round"/>
<path d="M3 8H5" stroke="currentColor" stroke-width="2" stroke-linecap="round"/>
<path d="M19 8H21" stroke="currentColor" stroke-width="2" stroke-linecap="round"/>
<path d="M3 12H5" stroke="currentColor" stroke-width="2" stroke-linecap="round"/>
<path d="M19 12H21" stroke="currentColor" stroke-width="2" stroke-linecap="round"/>
</svg>