<svg width="17" height="16" viewBox="0 0 17 16" fill="none" xmlns="http://www.w3.org/2000/svg">
<path fill-rule="evenodd" clip-rule="evenodd" d="M8.3999 16C12.8182 16 16.3999 12.4183 16.3999 8C16.3999 3.58172 12.8182 0 8.3999 0C3.98162 0 0.399902 3.58172 0.399902 8C0.399902 12.4183 3.98162 16 8.3999 16ZM6.87263 5.52727C6.87263 4.68981 7.56244 4 8.3999 4C9.23736 4 9.92718 4.68981 9.92718 5.52727C9.92718 6.36473 9.23736 7.05455 8.3999 7.05455C7.56244 7.05455 6.87263 6.36473 6.87263 5.52727ZM4.1163 5.3164C4.30725 5.12545 4.56623 5.01818 4.83627 5.01818C5.1063 5.01818 5.36528 5.12545 5.55623 5.3164C5.74718 5.50735 5.85445 5.76632 5.85445 6.03636C5.85445 6.3064 5.74718 6.56538 5.55623 6.75633C5.36528 6.94727 5.1063 7.05455 4.83627 7.05455C4.56623 7.05455 4.30725 6.94727 4.1163 6.75633C3.92536 6.56538 3.81808 6.3064 3.81808 6.03636C3.81808 5.76632 3.92536 5.50735 4.1163 5.3164ZM11.2436 5.3164C11.4345 5.12545 11.6935 5.01818 11.9635 5.01818C12.2336 5.01818 12.4926 5.12545 12.6835 5.3164C12.8744 5.50735 12.9817 5.76632 12.9817 6.03636C12.9817 6.3064 12.8744 6.56538 12.6835 6.75633C12.4926 6.94727 12.2336 7.05455 11.9635 7.05455C11.6935 7.05455 11.4345 6.94727 11.2436 6.75633C11.0526 6.56538 10.9454 6.3064 10.9454 6.03636C10.9454 5.76632 11.0526 5.50735 11.2436 5.3164ZM2.7999 9.20128C2.7999 8.53539 3.7239 8.07273 4.83627 8.07273C4.89444 8.07273 4.95073 8.07662 5.0069 8.08051C5.02789 8.08196 5.04887 8.08341 5.06993 8.08466C4.59546 8.51942 4.32718 9.07146 4.32718 9.71037V10.1091H2.7999V9.20128ZM5.34536 9.71037C5.34536 8.74615 6.60179 8.07273 8.3999 8.07273C10.198 8.07273 11.4544 8.74615 11.4544 9.71037V11.1273H5.34536V9.71037ZM11.7929 8.08051C11.8491 8.07662 11.9054 8.07273 11.9635 8.07273C13.0759 8.07273 13.9999 8.53539 13.9999 9.20128V10.1091H12.4726V9.71037C12.4726 9.07197 12.2043 8.51942 11.7299 8.08466C11.7509 8.08341 11.7719 8.08196 11.7929 8.08051Z" fill="currentColor"/>
</svg>
