<svg xmlns="http://www.w3.org/2000/svg" width="14" height="14" viewBox="0 0 14 14" fill="none">
  <path fill-rule="evenodd" clip-rule="evenodd" d="M7 14C10.866 14 14 10.866 14 7C14 3.13401 10.866 0 7 0C3.13401 0 0 3.13401 0 7C0 10.866 3.13401 14 7 14ZM3.5 9.64188C3.5 9.86898 3.59036 10.0868 3.75115 10.2471V10.2531C4.08633 10.5836 4.62476 10.5836 4.95994 10.2531L8.79024 6.41686V8.62927C8.79205 9.10013 9.17426 9.48089 9.64512 9.48089C10.116 9.48089 10.4982 9.10013 10.5 8.62927V4.35488C10.5 3.88274 10.1173 3.5 9.64512 3.5H5.37072C4.89986 3.5018 4.51911 3.88402 4.51911 4.35488C4.51911 4.82574 4.89986 5.20795 5.37072 5.20975H7.58145L3.75115 9.03662C3.59036 9.197 3.5 9.41477 3.5 9.64188Z" fill="currentColor"/>
</svg>