<svg xmlns="http://www.w3.org/2000/svg" width="16" height="16" viewBox="0 0 16 16" fill="none">
  <g>
    <path fill-rule="evenodd" clip-rule="evenodd" d="M9.64038 8.5089C10.6693 6.9558 10.4996 4.84268 9.13128 3.47431C7.56918 1.91221 5.03652 1.91221 3.47442 3.47431C1.91233 5.0364 1.91233 7.56906 3.47442 9.13116C4.84279 10.4995 6.95592 10.6692 8.50901 9.64027L11.394 12.5253C11.7064 12.8377 12.213 12.8377 12.5254 12.5253C12.8378 12.2129 12.8378 11.7063 12.5254 11.3939L9.64038 8.5089ZM7.99991 4.60568C8.93717 5.54294 8.93717 7.06253 7.99991 7.99979C7.06265 8.93705 5.54305 8.93705 4.60579 7.99979C3.66854 7.06253 3.66854 5.54294 4.60579 4.60568C5.54305 3.66842 7.06265 3.66842 7.99991 4.60568Z" fill="currentColor" />
  </g>
</svg>
