<svg width="12" height="8" viewBox="0 0 12 8" fill="none" xmlns="http://www.w3.org/2000/svg">
<path fill-rule="evenodd" clip-rule="evenodd" d="M7.98364 5.49561C7.6471 5.53143 7.37388 5.39988 7.16412 5.15463C6.8875 4.83116 6.82107 4.46251 6.96502 4.06979C7.0963 3.71175 7.35338 3.47506 7.75385 3.40441C8.20816 3.3242 8.67978 3.61603 8.84077 4.07463C8.88372 4.19696 8.90284 4.3238 8.90769 4.4186C8.90423 4.99256 8.5138 5.43922 7.98364 5.49561ZM4.87119 5.25705C4.47522 5.60295 3.91735 5.57986 3.54306 5.21115C3.11335 4.78784 3.12173 4.06906 3.56114 3.65802C4.02424 3.22483 4.76915 3.3388 5.08615 3.89286C5.18438 4.06461 5.23447 4.24963 5.23351 4.48328C5.2265 4.76336 5.11747 5.04192 4.87119 5.25705ZM11.5402 5.04059C11.4057 3.51081 10.8538 2.12499 9.95928 0.85825C9.91848 0.800469 9.87394 0.74826 9.80494 0.719004C9.14046 0.437727 8.45062 0.237052 7.73515 0.11532C7.64135 0.0993321 7.5914 0.131639 7.55372 0.207398C7.49809 0.319179 7.43415 0.427246 7.38143 0.540155C7.34125 0.626263 7.27946 0.650012 7.18642 0.637607C6.43278 0.537302 5.6788 0.535378 4.92516 0.63701C4.83725 0.648884 4.77899 0.626727 4.74227 0.544732C4.70092 0.452123 4.64411 0.365749 4.60469 0.272477C4.54706 0.136217 4.46019 0.0945557 4.30356 0.125403C3.64919 0.254101 3.01435 0.439452 2.39802 0.685702C2.2772 0.733997 2.19158 0.806174 2.12036 0.910525C1.25886 2.17302 0.71485 3.54279 0.584475 5.05346C0.542563 5.53886 0.546581 6.02433 0.58586 6.5096C0.593203 6.60055 0.606365 6.68759 0.698224 6.74995C1.48588 7.28477 2.33934 7.69189 3.25834 7.97456C3.34535 8.0013 3.40125 7.98332 3.45335 7.91187C3.61531 7.68984 3.76543 7.46123 3.90149 7.22361C3.95088 7.1373 3.93217 7.09338 3.83741 7.05809C3.61871 6.97656 3.4034 6.88661 3.20077 6.77224C3.15159 6.74451 3.05329 6.7323 3.0828 6.65992C3.11487 6.58125 3.19364 6.51955 3.29506 6.5224C3.33565 6.52353 3.37611 6.54781 3.41573 6.5636C5.05775 7.21658 6.71515 7.26805 8.38841 6.67943C8.51414 6.63525 8.63607 6.58098 8.76118 6.53501C8.84486 6.50429 9.00315 6.56758 9.02477 6.64606C9.05123 6.74212 8.95307 6.75207 8.89695 6.78159C8.69973 6.88548 8.49717 6.98021 8.28547 7.05431C8.18606 7.08914 8.15966 7.13697 8.21571 7.22958C8.3501 7.45195 8.48782 7.67179 8.64112 7.88302C8.70686 7.97364 8.77912 7.99208 8.88643 7.95878C9.78589 7.67969 10.6237 7.28311 11.3996 6.7654C11.4816 6.71061 11.5259 6.6452 11.5314 6.55113C11.5471 6.28577 11.5642 6.02055 11.5797 5.77377C11.5662 5.51657 11.5611 5.27795 11.5402 5.04059Z" />
</svg>
