<svg xmlns="http://www.w3.org/2000/svg" width="18" height="18" viewBox="0 0 18 18" fill="none">
  <path d="M14.9126 5.08535C15.3751 5.08535 15.75 5.46027 15.75 5.92276C15.75 6.38524 15.3751 6.76016 14.9126 6.76016L14.8655 6.76017C14.8797 6.82118 14.8872 6.88475 14.8872 6.95007V13.9162C14.8872 14.5889 14.3419 15.1342 13.6692 15.1342H4.38158C3.70887 15.1342 3.16353 14.5889 3.16353 13.9162V6.89346C3.16353 6.84811 3.16711 6.80359 3.174 6.76017L3.08741 6.76016C2.62492 6.76016 2.25 6.38524 2.25 5.92276C2.25 5.46027 2.62492 5.08535 3.08741 5.08535H14.9126ZM13.2389 6.76017L4.84071 6.76017C4.8476 6.80359 4.85118 6.84811 4.85118 6.89346V12.7383C4.85118 13.1307 5.16929 13.4488 5.5617 13.4488H12.5067C12.8991 13.4488 13.2172 13.1307 13.2172 12.7383V6.95007C13.2172 6.88475 13.2247 6.82118 13.2389 6.76017ZM7.50282 7.06467C7.96531 7.06467 8.34023 7.43959 8.34023 7.90208V12.1652C8.34023 12.6277 7.96531 13.0026 7.50282 13.0026C7.04033 13.0026 6.66541 12.6277 6.66541 12.1652V7.90208C6.66541 7.43959 7.04033 7.06467 7.50282 7.06467ZM10.5479 7.06467C11.0104 7.06467 11.3853 7.43959 11.3853 7.90208V12.1652C11.3853 12.6277 11.0104 13.0026 10.5479 13.0026C10.0854 13.0026 9.71053 12.6277 9.71053 12.1652V7.90208C9.71053 7.43959 10.0854 7.06467 10.5479 7.06467ZM12.4004 3.53742C12.4004 3.9999 12.0255 4.37482 11.563 4.37482H6.48778C6.0253 4.37482 5.65038 3.9999 5.65038 3.53742C5.65038 3.07493 6.0253 2.70001 6.48778 2.70001H11.563C12.0255 2.70001 12.4004 3.07493 12.4004 3.53742Z" fill="currentColor"/>
</svg>
