<svg xmlns="http://www.w3.org/2000/svg" width="15" height="16" viewBox="0 0 15 16" fill="none">
  <path d="M8.36618 1.41095L9.99951 4.71928C10.0592 4.84112 10.1476 4.94655 10.2573 5.02642C10.3669 5.1063 10.4944 5.1582 10.6287 5.17762L14.2828 5.70678C14.4375 5.72853 14.583 5.79331 14.7026 5.89373C14.8222 5.99415 14.9112 6.12618 14.9594 6.27474C15.0077 6.4233 15.0132 6.58243 14.9753 6.73396C14.9374 6.8855 14.8578 7.02335 14.7453 7.13178L12.1037 9.71095C12.0066 9.80505 11.9339 9.92136 11.8917 10.0498C11.8496 10.1783 11.8394 10.3151 11.862 10.4484L12.4828 14.0776C12.5097 14.2314 12.4929 14.3896 12.4343 14.5343C12.3756 14.6789 12.2775 14.8042 12.1512 14.8959C12.0248 14.9875 11.8752 15.0418 11.7195 15.0526C11.5638 15.0633 11.4081 15.0301 11.2703 14.9568L8.00368 13.2443C7.88416 13.1815 7.75118 13.1487 7.61618 13.1487C7.48117 13.1487 7.34819 13.1815 7.22868 13.2443L3.96201 14.9609C3.82388 15.0347 3.66778 15.068 3.51158 15.0571C3.35539 15.0462 3.20542 14.9916 3.07887 14.8994C2.95231 14.8072 2.8543 14.6812 2.79604 14.5358C2.73779 14.3905 2.72167 14.2317 2.74951 14.0776L3.37451 10.4401C3.39708 10.3068 3.38687 10.17 3.34477 10.0415C3.30267 9.91303 3.22993 9.79672 3.13284 9.70262L0.491176 7.13178C0.378839 7.02362 0.299106 6.88611 0.261044 6.73488C0.222981 6.58365 0.228116 6.42478 0.275864 6.27632C0.323613 6.12787 0.412059 5.99579 0.531146 5.89511C0.650233 5.79442 0.795181 5.72917 0.949509 5.70678L4.59951 5.17762C4.73377 5.1582 4.86125 5.1063 4.9709 5.02642C5.08054 4.94655 5.16903 4.84112 5.22868 4.71928L6.86618 1.41095C6.93441 1.27006 7.04096 1.15123 7.1736 1.06809C7.30625 0.984953 7.45963 0.940857 7.61618 0.940857C7.77272 0.940857 7.9261 0.984953 8.05875 1.06809C8.19139 1.15123 8.29794 1.27006 8.36618 1.41095Z" fill="currentColor"/>
</svg>