<svg xmlns="http://www.w3.org/2000/svg" width="14" height="14" viewBox="0 0 14 14" fill="none">
  <path fill-rule="evenodd" clip-rule="evenodd" d="M14 7C14 10.866 10.866 14 7 14C3.13401 14 0 10.866 0 7C0 3.13401 3.13401 0 7 0C10.866 0 14 3.13401 14 7ZM2.625 7C2.625 6.51675 3.01675 6.125 3.5 6.125H6.125V3.5C6.125 3.01675 6.51675 2.625 7 2.625C7.48325 2.625 7.875 3.01675 7.875 3.5V6.125H10.5C10.9832 6.125 11.375 6.51675 11.375 7C11.375 7.48325 10.9832 7.875 10.5 7.875H7.875V10.5C7.875 10.9832 7.48325 11.375 7 11.375C6.51675 11.375 6.125 10.9832 6.125 10.5V7.875H3.5C3.01675 7.875 2.625 7.48325 2.625 7Z" fill="currentColor"/>
</svg>