<svg xmlns="http://www.w3.org/2000/svg" width="16" height="16" viewBox="0 0 16 16" fill="none">
  <path fill-rule="evenodd" clip-rule="evenodd" d="M14.3996 8.0001C14.3996 11.5347 11.5342 14.4001 7.99961 14.4001C4.46499 14.4001 1.59961 11.5347 1.59961 8.0001C1.59961 4.46548 4.46499 1.6001 7.99961 1.6001C11.5342 1.6001 14.3996 4.46548 14.3996 8.0001ZM8.79961 5.2001C8.79961 5.64193 8.44144 6.0001 7.99961 6.0001C7.55778 6.0001 7.19961 5.64193 7.19961 5.2001C7.19961 4.75827 7.55778 4.4001 7.99961 4.4001C8.44144 4.4001 8.79961 4.75827 8.79961 5.2001ZM7.99961 6.8001C7.55778 6.8001 7.19961 7.15827 7.19961 7.6001V10.8001C7.19961 11.2419 7.55778 11.6001 7.99961 11.6001C8.44144 11.6001 8.79961 11.2419 8.79961 10.8001V7.6001C8.79961 7.15827 8.44144 6.8001 7.99961 6.8001Z" fill="currentColor"/>
</svg>
