<svg xmlns="http://www.w3.org/2000/svg" width="20" height="20" viewBox="0 0 20 20" fill="none">
  <path d="M8.5 1L11.5 1C11.6989 1 11.8897 1.07902 12.0303 1.21967C12.171 1.36032 12.25 1.55109 12.25 1.75L12.25 17.5L13.75 17.5L13.75 9.25C13.75 9.05109 13.829 8.86032 13.9697 8.71967C14.1103 8.57902 14.3011 8.5 14.5 8.5L16.75 8.5C16.9489 8.5 17.1397 8.57902 17.2803 8.71967C17.421 8.86032 17.5 9.05109 17.5 9.25L17.5 17.5L18.25 17.5C18.4489 17.5 18.6397 17.579 18.7803 17.7197C18.921 17.8603 19 18.0511 19 18.25C19 18.4489 18.921 18.6397 18.7803 18.7803C18.6397 18.921 18.4489 19 18.25 19L1.75 19C1.55109 19 1.36032 18.921 1.21967 18.7803C1.07902 18.6397 1 18.4489 1 18.25C1 18.0511 1.07902 17.8603 1.21967 17.7197C1.36032 17.579 1.55109 17.5 1.75 17.5L2.5 17.5L2.5 6.25C2.5 6.05109 2.57902 5.86032 2.71967 5.71967C2.86032 5.57902 3.05109 5.5 3.25 5.5L5.5 5.5C5.69891 5.5 5.88968 5.57902 6.03033 5.71967C6.17098 5.86032 6.25 6.05109 6.25 6.25L6.25 17.5L7.75 17.5L7.75 1.75C7.75 1.55109 7.82902 1.36032 7.96967 1.21967C8.11032 1.07902 8.30109 1 8.5 1Z" fill="currentColor"/>
</svg>
