<svg xmlns="http://www.w3.org/2000/svg" width="20" height="20" viewBox="0 0 20 20" fill="none">
  <path d="M19.0323 8.15097C19.4669 8.17847 19.8405 8.48393 19.908 8.91413C20.0749 9.9778 19.9842 10.8171 19.8761 11.34C19.7984 11.7166 19.4611 11.9563 19.077 11.9752L18.2567 12.0154C17.8267 12.0365 17.4644 12.3329 17.3111 12.7352C17.235 12.935 17.1508 13.1315 17.0588 13.3244C16.8716 13.7165 16.9095 14.188 17.1966 14.514L17.6946 15.0795C17.9823 15.4062 18.0305 15.8862 17.7741 16.2381C17.1399 17.1084 16.4822 17.6377 16.036 17.9311C15.7148 18.1423 15.3069 18.0732 15.022 17.815L14.4188 17.2682C14.0962 16.9758 13.624 16.9318 13.2288 17.1147C13.0319 17.2059 12.8312 17.2889 12.6274 17.3636C12.2238 17.5114 11.9231 17.8691 11.8958 18.298L11.8492 19.0325C11.8216 19.4669 11.5162 19.8403 11.0862 19.9079C10.0223 20.075 9.18287 19.9842 8.65984 19.8761C8.28331 19.7983 8.04371 19.461 8.02488 19.077L7.98914 18.3479C7.96758 17.9083 7.65869 17.5405 7.24315 17.3953C7.05176 17.3284 6.86369 17.2545 6.67936 17.1737C6.28669 17.0016 5.82319 17.049 5.50554 17.337L4.97824 17.815C4.69338 18.0732 4.28548 18.1423 3.96421 17.9311C3.51804 17.6377 2.86044 17.1085 2.22635 16.2384C1.96987 15.8864 2.03135 15.4189 2.34437 15.1161C2.66457 14.8064 2.97333 14.46 3.00173 14.0582C3.01284 13.9007 2.27793 12.0416 2.24632 12.0401L0.923092 11.9752C0.539033 11.9563 0.201746 11.7167 0.12394 11.3401C0.0158769 10.8171 -0.0749348 9.9778 0.0919907 8.91402C0.159486 8.48389 0.532977 8.17844 0.9675 8.15088L1.43321 8.12134C1.87217 8.09349 2.23526 7.77976 2.37646 7.3632C2.46841 7.09191 2.57509 6.82582 2.696 6.56614C2.88019 6.17058 2.83662 5.69714 2.54359 5.37383L2.1848 4.97798C1.92659 4.69309 1.85757 4.28518 2.06883 3.96392C2.36223 3.51776 2.89151 2.86016 3.7618 2.22609C4.11369 1.96972 4.59374 2.01788 4.92046 2.30564L5.27513 2.61804C5.60159 2.90559 6.0739 2.94314 6.46622 2.75515C6.72179 2.63269 6.98377 2.5241 7.25102 2.42984C7.66659 2.28328 7.97617 1.91527 7.99777 1.47513L8.02486 0.922997C8.0437 0.539032 8.28325 0.201811 8.65972 0.12398C9.18271 0.0158558 10.0221 -0.0750046 11.0861 0.0921459C11.5162 0.159708 11.8215 0.533176 11.8491 0.96764L11.8844 1.52474C11.9116 1.95416 12.2129 2.31208 12.6171 2.45965C12.8979 2.56216 13.1726 2.68053 13.44 2.81418C13.8351 3.01172 14.3163 2.97789 14.6478 2.68591L15.0794 2.30586C15.4061 2.01815 15.8861 1.97001 16.2379 2.22634C17.1084 2.86041 17.6377 3.51803 17.9311 3.96421C18.1424 4.28547 18.0734 4.69339 17.8151 4.97828L17.3174 5.52746C17.0294 5.84511 16.982 6.30856 17.1544 6.7011C17.2474 6.91297 17.3313 7.12978 17.4059 7.35095C17.5462 7.76713 17.909 8.07991 18.3473 8.10764L19.0323 8.15097ZM9.99984 5.36585C7.44065 5.36585 5.36585 7.44054 5.36585 9.99999C5.36585 12.5594 7.44049 14.6341 9.99984 14.6341C12.5592 14.6341 14.6341 12.5595 14.6341 9.99999C14.6341 7.44053 12.5592 5.36585 9.99984 5.36585Z" fill="currentColor" />
</svg>
