<svg xmlns="http://www.w3.org/2000/svg" width="16" height="17" viewBox="0 0 16 17" fill="none">
  <path d="M11.8512 0.507918C12.0799 0.479292 12.3183 0.527971 12.5247 0.659076L12.6038 0.713111L12.681 0.781044L14.8498 2.94332C14.8776 2.97069 14.9036 2.99986 14.9278 3.02989C15.0914 3.255 15.1441 3.44139 15.1508 3.63083C15.1515 3.64529 15.1515 3.65974 15.1515 3.67422C15.1234 4.02583 15.0319 4.17393 14.9265 4.30471L14.9135 4.32065L14.8678 4.37185L12.6969 6.53623C12.5068 6.72527 12.2595 6.82465 12.0093 6.83234C11.7591 6.84002 11.5062 6.75605 11.3048 6.57908C11.1026 6.40133 10.9873 6.16052 10.9635 5.91112C10.9388 5.65176 11.0131 5.38293 11.1926 5.16573L11.2414 5.11057L11.6684 4.68479H9.97498L6.14821 8.50014L9.97523 12.3155H11.6685L11.258 11.9063C11.0759 11.7247 10.9759 11.4897 10.9607 11.2495C10.945 10.9995 11.0211 10.7436 11.1928 10.5362L11.2365 10.4868C11.4041 10.3094 11.6227 10.2037 11.8512 10.1751C12.0799 10.1465 12.3183 10.1952 12.5247 10.3263L12.6038 10.3803L12.681 10.4482L14.8498 12.6105C14.8776 12.6379 14.9036 12.6671 14.9278 12.6971C15.0764 12.9022 15.1253 13.0552 15.1443 13.2122C15.1469 13.2337 15.1489 13.2554 15.1502 13.2771C15.1501 13.3113 15.1495 13.326 15.1487 13.3411C15.1307 13.6883 15.0382 13.8288 14.944 13.9497L14.8697 14.0371L12.6969 16.2034C12.5068 16.3925 12.2595 16.4918 12.0093 16.4995C11.7591 16.5072 11.5062 16.4232 11.3048 16.2463C11.1026 16.0685 10.9873 15.8277 10.9635 15.5783C10.9388 15.319 11.0131 15.0501 11.1926 14.8329L11.2414 14.7778L11.6684 14.352H9.55359C9.31966 14.352 9.0926 14.2715 8.91078 14.1239L8.85211 14.073L4.28383 9.51839H1.02607C0.756579 9.51817 0.510618 9.41312 0.328063 9.24125C0.14484 9.06876 0.025441 8.82902 0.00959859 8.55996C-0.00625195 8.29077 0.0842771 8.03864 0.246074 7.84587C0.412877 7.64713 0.655507 7.51147 0.935087 7.48607L1.00408 7.48193H4.28334L8.83407 2.94554C8.99975 2.78052 9.21761 2.67713 9.45127 2.65358L9.52796 2.64834H11.6685L11.258 2.23907C11.0759 2.05751 10.9759 1.82254 10.9607 1.58233C10.945 1.33232 11.0211 1.07645 11.1928 0.868972L11.2365 0.819589C11.4041 0.64221 11.6227 0.536511 11.8512 0.507918Z" fill="currentColor"/>
</svg>
