<svg xmlns="http://www.w3.org/2000/svg" width="14" height="15" viewBox="0 0 14 15" fill="none">
  <path fill-rule="evenodd" clip-rule="evenodd" d="M14 7.5C14 3.63401 10.866 0.5 7 0.5C3.13401 0.5 0 3.63401 0 7.5C0 11.366 3.13401 14.5 7 14.5C10.866 14.5 14 11.366 14 7.5ZM6.79643 4.03896C7.10509 3.72979 7.10509 3.22854 6.79643 2.91937C6.48777 2.61021 5.98733 2.61021 5.67867 2.91937L3.2025 5.39958L5.22518 7.93205C5.49787 8.27347 5.99525 8.32882 6.33611 8.05569C6.67697 7.78255 6.73223 7.28437 6.45954 6.94295L5.90609 6.25H8.21349C9.08652 6.25 9.79425 6.95888 9.79425 7.83333C9.79425 8.70778 9.08652 9.41667 8.21349 9.41667H4.26161C3.82509 9.41667 3.47123 9.77111 3.47123 10.2083C3.47123 10.6456 3.82509 11 4.26161 11H8.21349C9.95955 11 11.375 9.58223 11.375 7.83333C11.375 6.08443 9.95955 4.66667 8.21349 4.66667H6.16975L6.79643 4.03896Z" fill="currentColor"/>
</svg>
