<svg xmlns="http://www.w3.org/2000/svg" width="12" height="12" viewBox="0 0 12 12" fill="none">
  <path d="M5.75683 6.24302V9.45811C5.75683 9.86772 5.4245 10.2 5.01489 10.2H2.54175C2.13213 10.2 1.7998 9.86772 1.7998 9.45811V6.98497C1.7998 6.57535 2.13213 6.24302 2.54175 6.24302H5.75683ZM7.73534 6.24302V7.49428H8.70724V6.24302H10.1998V7.73559H8.98826V8.70749H10.1998V10.2H8.70724V8.9885H7.73534V10.2H6.24278V8.70749H7.49403V7.73559H6.24278V6.24302H7.73534ZM4.75022 7.24964H2.77171V9.22815H4.75022V7.24964ZM5.01489 1.80005C5.4245 1.80005 5.75683 2.13238 5.75683 2.54199V5.75707H2.54175C2.13213 5.75707 1.7998 5.42475 1.7998 5.01513V2.54199C1.7998 2.13238 2.13213 1.80005 2.54175 1.80005H5.01489ZM9.45786 1.80005C9.86748 1.80005 10.1998 2.13238 10.1998 2.54199V5.01513C10.1998 5.42475 9.86748 5.75707 9.45786 5.75707H6.24278V2.54199C6.24278 2.13238 6.57511 1.80005 6.98472 1.80005H9.45786ZM4.75022 2.77195H2.77171V4.75046H4.75022V2.77195ZM9.2279 2.77195H7.24939V4.75046H9.2279V2.77195Z" fill="currentColor" />
</svg>
