<svg xmlns="http://www.w3.org/2000/svg" width="12" height="8" viewBox="0 0 12 8" fill="none">
  <path d="M6 6C6.625 6 7.15625 5.78125 7.59375 5.34375C8.03125 4.90625 8.25 4.375 8.25 3.75C8.25 3.125 8.03125 2.59375 7.59375 2.15625C7.15625 1.71875 6.625 1.5 6 1.5C5.375 1.5 4.84375 1.71875 4.40625 2.15625C3.96875 2.59375 3.75 3.125 3.75 3.75C3.75 4.375 3.96875 4.90625 4.40625 5.34375C4.84375 5.78125 5.375 6 6 6ZM6 5.1C5.625 5.1 5.30625 4.96875 5.04375 4.70625C4.78125 4.44375 4.65 4.125 4.65 3.75C4.65 3.375 4.78125 3.05625 5.04375 2.79375C5.30625 2.53125 5.625 2.4 6 2.4C6.375 2.4 6.69375 2.53125 6.95625 2.79375C7.21875 3.05625 7.35 3.375 7.35 3.75C7.35 4.125 7.21875 4.44375 6.95625 4.70625C6.69375 4.96875 6.375 5.1 6 5.1ZM6 7.5C4.78333 7.5 3.675 7.16042 2.675 6.48125C1.675 5.80208 0.95 4.89167 0.5 3.75C0.95 2.60833 1.675 1.69792 2.675 1.01875C3.675 0.339583 4.78333 0 6 0C7.21667 0 8.325 0.339583 9.325 1.01875C10.325 1.69792 11.05 2.60833 11.5 3.75C11.05 4.89167 10.325 5.80208 9.325 6.48125C8.325 7.16042 7.21667 7.5 6 7.5Z" fill="currentColor"/>
</svg>