<svg xmlns="http://www.w3.org/2000/svg" width="14" height="10" viewBox="0 0 14 10" fill="none">
  <path d="M0 1C0 0.447715 0.447715 0 1 0H13C13.5523 0 14 0.447715 14 1C14 1.55228 13.5523 2 13 2H1C0.447716 2 0 1.55228 0 1Z" fill="currentColor"/>
  <path d="M0 5C0 4.44771 0.447715 4 1 4H13C13.5523 4 14 4.44771 14 5C14 5.55229 13.5523 6 13 6H1C0.447716 6 0 5.55229 0 5Z" fill="currentColor"/>
  <path d="M1 8C0.447715 8 0 8.44771 0 9C0 9.55229 0.447716 10 1 10H9C9.55228 10 10 9.55229 10 9C10 8.44771 9.55228 8 9 8H1Z" fill="currentColor"/>
</svg>
