<svg xmlns="http://www.w3.org/2000/svg" width="14" height="15" viewBox="0 0 14 15" fill="none">
  <path fill-rule="evenodd" clip-rule="evenodd" d="M7 14.5C10.866 14.5 14 11.366 14 7.5C14 3.63401 10.866 0.5 7 0.5C3.13401 0.5 0 3.63401 0 7.5C0 11.366 3.13401 14.5 7 14.5ZM3.5 10.1419C3.5 10.369 3.59036 10.5868 3.75115 10.7471V10.7531C4.08633 11.0836 4.62476 11.0836 4.95994 10.7531L8.79024 6.91686V9.12927C8.79205 9.60013 9.17426 9.98089 9.64512 9.98089C10.116 9.98089 10.4982 9.60013 10.5 9.12927V4.85488C10.5 4.38274 10.1173 4 9.64512 4H5.37072C4.89986 4.0018 4.51911 4.38402 4.51911 4.85488C4.51911 5.32574 4.89986 5.70795 5.37072 5.70975H7.58145L3.75115 9.53662C3.59036 9.697 3.5 9.91477 3.5 10.1419Z" fill="currentColor"/>
</svg>
