<svg xmlns="http://www.w3.org/2000/svg" width="16" height="17" viewBox="0 0 16 17" fill="none">
  <defs>
    <mask id="extrinsic-cutout">
      <rect width="16" height="17" fill="white"/>
      <path d="M12.8288 5.9033L8.21346 2.57006C8.15026 2.52438 8.07598 2.5 8 2.5C7.92402 2.5 7.84974 2.52438 7.78654 2.57006L3.17115 5.9033C3.11847 5.94138 3.07528 5.99297 3.04542 6.05348C3.01556 6.11399 2.99996 6.18156 3 6.25017V11.6667C3 11.8877 3.08104 12.0997 3.2253 12.2559C3.36956 12.4122 3.56522 12.5 3.76923 12.5H12.2308C12.4348 12.5 12.6304 12.4122 12.7747 12.2559C12.919 12.0997 13 11.8877 13 11.6667V6.25017C13 6.18156 12.9844 6.11399 12.9546 6.05348C12.9247 5.99297 12.8815 5.94138 12.8288 5.9033ZM3.76923 11.6667V7.059L6.9375 9.50685C7.00273 9.55733 7.08089 9.58446 7.16106 9.58445H8.83894C8.91911 9.58446 8.99727 9.55733 9.0625 9.50685L12.2308 7.059V11.6667H3.76923Z" fill="black"/>
      <rect x="6" y="5.5" width="4" height="1" fill="white"/>
      <rect x="6" y="7" width="4" height="1" fill="white"/>
    </mask>
  </defs>
  <circle cx="8" cy="8.5" r="8" fill="currentColor" mask="url(#extrinsic-cutout)"/>
</svg>
