<svg xmlns="http://www.w3.org/2000/svg" width="18" height="18" viewBox="0 0 18 18" fill="none">
  <path d="M17.99 6.97434C17.9447 6.75438 17.7612 6.59326 17.542 6.58158L14.5988 6.42373C14.569 6.42187 14.5384 6.42373 14.5091 6.42794L12.1934 5.252C12.127 5.41219 12.0314 5.56163 11.9064 5.68959L11.5664 6.03612L13.3933 6.96407L8.674 9.36077L4.097 7.03552L5.65256 6.24534L5.10704 5.68866C5.03015 5.6102 4.96425 5.52334 4.90979 5.43134L3.09931 6.35088L1.37716 4.94004L6.20861 2.48683V1.40804C6.16239 1.41598 6.11708 1.43045 6.07361 1.4524L0.268261 4.40018C0.120438 4.4749 0.0206696 4.62154 0.00282103 4.7892C-0.0150275 4.95685 0.0527054 5.12171 0.180849 5.22679L2.43892 7.07615V14.5595C2.43892 14.7463 2.5428 14.9187 2.7071 15.0009L8.51153 17.9491C8.57926 17.9827 8.6534 18 8.72709 18C8.80077 18 8.87491 17.9827 8.94264 17.9491L14.7484 15.0013C14.9123 14.9173 15.0166 14.7468 15.0166 14.56V8.89422L17.7319 7.51561C17.9278 7.41613 18.0344 7.19337 17.99 6.97434ZM11.6103 9.52235L10.7289 9.47518L14.7484 7.43295C14.7562 7.42921 14.7617 7.42454 14.769 7.42034L15.6537 7.46797L11.6103 9.52235ZM11.3078 5.07874L8.84836 7.58799C8.75409 7.68466 8.63006 7.73277 8.5065 7.73277C8.38293 7.73277 8.25891 7.68466 8.16417 7.58799L5.70519 5.07874C5.56698 4.93771 5.52534 4.72522 5.60039 4.54121C5.67545 4.35674 5.85164 4.23672 6.04752 4.23672H7.05527V0.493631C7.05527 0.220896 7.2722 0 7.53901 0H9.47443C9.7417 0 9.95863 0.220896 9.95863 0.493631V4.23672H10.9659C11.1623 4.23672 11.3375 4.35674 11.4135 4.54121C11.4877 4.72475 11.4465 4.93724 11.3078 5.07874Z" fill="currentColor"/>
</svg>
