<svg xmlns="http://www.w3.org/2000/svg" width="11" height="10" viewBox="0 0 11 10" fill="none">
  <path d="M9.52783 1.87505V3.75005C9.52783 3.83293 9.49491 3.91242 9.4363 3.97102C9.3777 4.02963 9.29821 4.06255 9.21533 4.06255H7.34033C7.27849 4.0626 7.21802 4.0443 7.16659 4.00997C7.11515 3.97563 7.07506 3.92681 7.05139 3.86968C7.02772 3.81254 7.02153 3.74967 7.0336 3.68902C7.04568 3.62837 7.07548 3.57266 7.11924 3.52896L7.83447 2.81255C7.25911 2.26128 6.49381 1.95233 5.69697 1.94966H5.67939C4.86289 1.94806 4.07859 2.26801 3.49619 2.84029C3.43651 2.896 3.3574 2.92614 3.27578 2.92427C3.19416 2.9224 3.11651 2.88866 3.05945 2.83027C3.00239 2.77188 2.97044 2.69348 2.97045 2.61184C2.97045 2.53019 3.0024 2.4518 3.05947 2.39341C3.7561 1.71278 4.69021 1.32987 5.66414 1.32572C6.63807 1.32156 7.57542 1.69648 8.27783 2.37115L8.99502 1.65396C9.03876 1.61047 9.0944 1.58091 9.15492 1.56898C9.21544 1.55706 9.27813 1.56331 9.3351 1.58695C9.39208 1.61059 9.44078 1.65056 9.47507 1.70183C9.50937 1.7531 9.52773 1.81337 9.52783 1.87505ZM8.05947 7.15982C7.48062 7.72518 6.70505 8.04399 5.89593 8.04917C5.08681 8.05434 4.30722 7.74547 3.72119 7.18755L4.43643 6.47232C4.48058 6.42868 4.51074 6.37287 4.52305 6.31202C4.53537 6.25117 4.52927 6.18803 4.50555 6.13065C4.48183 6.07328 4.44156 6.02427 4.38987 5.98988C4.33818 5.95548 4.27742 5.93727 4.21533 5.93755H2.34033C2.25745 5.93755 2.17797 5.97048 2.11936 6.02908C2.06076 6.08769 2.02783 6.16717 2.02783 6.25005V8.12505C2.02778 8.1869 2.04608 8.24736 2.08042 8.2988C2.11475 8.35023 2.16358 8.39032 2.22071 8.414C2.27784 8.43767 2.34071 8.44386 2.40137 8.43178C2.46202 8.4197 2.51772 8.3899 2.56143 8.34615L3.27783 7.62896C3.9701 8.29706 4.89388 8.67162 5.85596 8.67427H5.87666C6.85638 8.6768 7.79765 8.29324 8.49658 7.60669C8.55365 7.54831 8.58561 7.46991 8.58561 7.38827C8.58561 7.30663 8.55367 7.22823 8.49661 7.16984C8.43954 7.11145 8.3619 7.07771 8.28028 7.07584C8.19866 7.07396 8.11954 7.10411 8.05986 7.15982H8.05947Z" fill="currentColor"/>
</svg>