<svg xmlns="http://www.w3.org/2000/svg" width="12" height="12" viewBox="0 0 12 12" fill="none">
  <path fill-rule="evenodd" clip-rule="evenodd" d="M6 0C9.31371 0 12 2.68629 12 6C12 9.31371 9.31371 12 6 12C2.68629 12 0 9.31371 0 6C0 2.68629 2.68629 0 6 0ZM5.81762 1.88178C5.3372 1.88178 4.94773 2.27124 4.94773 2.75167V6.57759C4.94773 7.05802 5.3372 7.44748 5.81762 7.44748H8.89237C9.3728 7.44748 9.76226 7.05802 9.76226 6.57759C9.76226 6.09717 9.3728 5.7077 8.89237 5.7077L6.6875 5.70771L6.68751 2.75167C6.68751 2.27124 6.29805 1.88178 5.81762 1.88178Z" fill="currentColor"/>
</svg>
