<svg xmlns="http://www.w3.org/2000/svg" width="16" height="16" viewBox="0 0 16 16" fill="none">
  <path d="M3.555 1.99562C3.46657 1.89848 3.35418 1.82626 3.22907 1.78621C3.10396 1.74615 2.97053 1.73966 2.84212 1.76738C2.71371 1.79509 2.59484 1.85605 2.4974 1.94415C2.39995 2.03225 2.32736 2.1444 2.28688 2.26937C1.9968 2.31956 1.73376 2.47052 1.54407 2.69564C1.35439 2.92077 1.25025 3.20561 1.25 3.49999V11.5C1.25 11.8315 1.3817 12.1495 1.61612 12.3839C1.85054 12.6183 2.16848 12.75 2.5 12.75H6.13188L6.91437 14.12C7.02371 14.3113 7.18167 14.4704 7.37227 14.581C7.56287 14.6916 7.77932 14.7498 7.99969 14.7498C8.22006 14.7498 8.43651 14.6916 8.6271 14.581C8.8177 14.4704 8.97567 14.3113 9.085 14.12L9.86812 12.75H11.3056L12.4462 14.0044C12.5807 14.1488 12.7667 14.2344 12.9639 14.2427C13.1611 14.2509 13.3536 14.1811 13.4996 14.0484C13.6457 13.9156 13.7335 13.7307 13.7441 13.5336C13.7547 13.3366 13.6872 13.1433 13.5562 12.9956L3.555 1.99562ZM9.43312 11.25C9.30087 11.25 9.17097 11.285 9.0566 11.3514C8.94223 11.4178 8.84745 11.5133 8.78187 11.6281L8 12.9962L7.21812 11.6281C7.15255 11.5133 7.05777 11.4178 6.9434 11.3514C6.82903 11.285 6.69913 11.25 6.56687 11.25H2.75V3.74999H3.125L9.94375 11.25H9.43312ZM14.75 3.49999V10.8837C14.75 11.0827 14.671 11.2734 14.5303 11.4141C14.3897 11.5547 14.1989 11.6337 14 11.6337C13.8011 11.6337 13.6103 11.5547 13.4697 11.4141C13.329 11.2734 13.25 11.0827 13.25 10.8837V3.74999H6.83313C6.63421 3.74999 6.44345 3.67098 6.30279 3.53032C6.16214 3.38967 6.08313 3.19891 6.08313 2.99999C6.08313 2.80108 6.16214 2.61032 6.30279 2.46966C6.44345 2.32901 6.63421 2.24999 6.83313 2.24999H13.5C13.8315 2.24999 14.1495 2.38169 14.3839 2.61611C14.6183 2.85053 14.75 3.16847 14.75 3.49999Z" fill="currentColor"/>
</svg>
