<svg xmlns="http://www.w3.org/2000/svg" width="13" height="17" viewBox="0 0 13 17" fill="none">
    <path d="M6.35888 0.25C6.89768 0.25 7.41684 0.352285 7.91634 0.556856C8.41585 0.761427 8.85924 1.0427 9.24652 1.40069C9.63379 1.75867 9.94248 2.17348 10.1726 2.64512C10.4027 3.11677 10.5177 3.62534 10.5177 4.17085V7.68096H11.5495C11.8524 7.68096 12.1132 7.79126 12.3319 8.01184C12.5506 8.23243 12.66 8.49544 12.66 8.80087V14.0611C12.66 14.3665 12.6067 14.6521 12.5002 14.918C12.3936 15.1838 12.2478 15.4157 12.0627 15.6137C11.8776 15.8117 11.6589 15.9672 11.4065 16.0803C11.1541 16.1934 10.8765 16.25 10.5736 16.25H2.0765C1.77364 16.25 1.49881 16.1934 1.25203 16.0803C1.00524 15.9672 0.794915 15.8173 0.621049 15.6306C0.447183 15.444 0.312578 15.2262 0.217234 14.9774C0.121891 14.7285 0.0742188 14.4627 0.0742188 14.1798V8.80087C0.0742188 8.49544 0.18078 8.23243 0.393902 8.01184C0.607024 7.79126 0.865022 7.68096 1.1679 7.68096H8.48038L8.4804 4.64817C8.4804 3.93219 8.28397 3.37816 7.89109 2.98607C7.49822 2.59399 6.96503 2.39794 6.29153 2.39794C5.68539 2.39794 5.1971 2.59399 4.82667 2.98607C4.45624 3.37816 4.27103 3.93219 4.27104 4.64817L2.14953 4.17085C2.14953 3.62534 2.25617 3.11677 2.46944 2.64512C2.6827 2.17348 2.97736 1.75867 3.35341 1.40069C3.72947 1.0427 4.17285 0.761427 4.68357 0.556856C5.19429 0.352285 5.75273 0.25 6.35888 0.25Z" fill="currentColor"/>
</svg>