<svg xmlns="http://www.w3.org/2000/svg" width="14" height="14" viewBox="0 0 14 14" fill="none">
  <path d="M10 0C11.1046 0 12 0.89543 12 2C13.1046 2 14 2.89543 14 4V12C14 13.1046 13.1046 14 12 14H4C2.89543 14 2 13.1046 2 12C0.89543 12 0 11.1046 0 10V2C0 0.89543 0.89543 0 2 0H10ZM12.001 3.5L12 10C12 11.1046 11.1046 12 10 12H3.5C3.5 12.2761 3.72386 12.5 4 12.5H12C12.2761 12.5 12.5 12.2761 12.5 12V4C12.5 3.7242 12.2767 3.50055 12.001 3.5ZM10 1.5H2C1.72386 1.5 1.5 1.72386 1.5 2V10C1.5 10.2761 1.72386 10.5 2 10.5H10C10.2761 10.5 10.5 10.2761 10.5 10V2C10.5 1.72386 10.2761 1.5 10 1.5ZM6.5 3C6.77614 3 7 3.22386 7 3.5V5H8.5C8.77614 5 9 5.22386 9 5.5V6.5C9 6.77614 8.77614 7 8.5 7H7V8.5C7 8.77614 6.77614 9 6.5 9H5.5C5.22386 9 5 8.77614 5 8.5V7H3.5C3.22386 7 3 6.77614 3 6.5V5.5C3 5.22386 3.22386 5 3.5 5H5V3.5C5 3.22386 5.22386 3 5.5 3H6.5Z" fill="currentColor"/>
</svg>
