<svg width="20" height="20" viewBox="0 0 20 20" fill="none" xmlns="http://www.w3.org/2000/svg">
<circle cx="10" cy="10" r="7" stroke="currentColor" fill="none" stroke-width="2"/>
<path fill-rule="evenodd" clip-rule="evenodd" d="M11.4148 12.8284C11.8053 13.219 12.4385 13.219 12.829 12.8284C13.2196 12.4379 13.2196 11.8047 12.829 11.4142L11.4148 10L12.829 8.58579C13.2196 8.19526 13.2196 7.5621 12.829 7.17157C12.4385 6.78105 11.8053 6.78105 11.4148 7.17157L10.0006 8.58579L8.58639 7.17157C8.19587 6.78105 7.5627 6.78105 7.17218 7.17157C6.78165 7.5621 6.78165 8.19526 7.17218 8.58579L8.58639 10L7.17218 11.4142C6.78165 11.8047 6.78165 12.4379 7.17218 12.8284C7.5627 13.219 8.19587 13.219 8.58639 12.8284L10.0006 11.4142L11.4148 12.8284Z" />
</svg>
