<svg xmlns="http://www.w3.org/2000/svg" width="20" height="20" viewBox="0 0 20 20" fill="none">
  <path d="M11.0698 3.41003L12.7031 6.71837C12.7628 6.8402 12.8513 6.94564 12.9609 7.02551C13.0705 7.10538 13.198 7.15728 13.3323 7.1767L16.9865 7.70587C17.1411 7.72761 17.2866 7.79239 17.4062 7.89282C17.5258 7.99324 17.6148 8.12526 17.6631 8.27382C17.7113 8.42239 17.7168 8.58151 17.6789 8.73305C17.6411 8.88458 17.5614 9.02243 17.449 9.13087L14.8073 11.71C14.7102 11.8041 14.6375 11.9204 14.5954 12.0489C14.5533 12.1774 14.5431 12.3142 14.5656 12.4475L15.1865 16.0767C15.2134 16.2305 15.1965 16.3887 15.1379 16.5334C15.0792 16.678 14.9811 16.8033 14.8548 16.8949C14.7284 16.9866 14.5788 17.0409 14.4231 17.0516C14.2674 17.0624 14.1117 17.0292 13.974 16.9559L10.7073 15.2434C10.5878 15.1806 10.4548 15.1478 10.3198 15.1478C10.1848 15.1478 10.0518 15.1806 9.93229 15.2434L6.66562 16.96C6.5275 17.0338 6.37139 17.0671 6.2152 17.0562C6.059 17.0453 5.90903 16.9906 5.78248 16.8984C5.65593 16.8062 5.55791 16.6803 5.49966 16.5349C5.44141 16.3896 5.42528 16.2308 5.45312 16.0767L6.07812 12.4392C6.10069 12.3059 6.09049 12.1691 6.04838 12.0406C6.00628 11.9121 5.93355 11.7958 5.83646 11.7017L3.19479 9.13087C3.08245 9.0227 3.00272 8.88519 2.96466 8.73396C2.92659 8.58273 2.93173 8.42386 2.97948 8.27541C3.02723 8.12695 3.11567 7.99487 3.23476 7.89419C3.35385 7.79351 3.49879 7.72826 3.65312 7.70587L7.30312 7.1767C7.43738 7.15728 7.56487 7.10538 7.67451 7.02551C7.78415 6.94564 7.87264 6.8402 7.93229 6.71837L9.56979 3.41003C9.63803 3.26914 9.74457 3.15032 9.87722 3.06718C10.0099 2.98404 10.1632 2.93994 10.3198 2.93994C10.4763 2.93994 10.6297 2.98404 10.7624 3.06718C10.895 3.15032 11.0016 3.26914 11.0698 3.41003Z" fill="currentColor"/>
</svg>
