<svg xmlns="http://www.w3.org/2000/svg" width="16" height="16" viewBox="0 0 16 16" fill="none">
  <path d="M13 1.75H3C2.66848 1.75 2.35054 1.8817 2.11612 2.11612C1.8817 2.35054 1.75 2.66848 1.75 3V13C1.75 13.3315 1.8817 13.6495 2.11612 13.8839C2.35054 14.1183 2.66848 14.25 3 14.25H13C13.3315 14.25 13.6495 14.1183 13.8839 13.8839C14.1183 13.6495 14.25 13.3315 14.25 13V3C14.25 2.66848 14.1183 2.35054 13.8839 2.11612C13.6495 1.8817 13.3315 1.75 13 1.75ZM12.75 12.75H3.25V3.25H12.75V12.75ZM5.46938 6.53062C5.39961 6.46086 5.34427 6.37804 5.30651 6.28689C5.26876 6.19573 5.24932 6.09804 5.24932 5.99937C5.24932 5.80012 5.32848 5.60902 5.46938 5.46812C5.61027 5.32723 5.80137 5.24807 6.00063 5.24807C6.19988 5.24807 6.39098 5.32723 6.53188 5.46812L9.25 8.1875V7C9.25 6.80109 9.32902 6.61032 9.46967 6.46967C9.61032 6.32902 9.80109 6.25 10 6.25C10.1989 6.25 10.3897 6.32902 10.5303 6.46967C10.671 6.61032 10.75 6.80109 10.75 7V10C10.75 10.1989 10.671 10.3897 10.5303 10.5303C10.3897 10.671 10.1989 10.75 10 10.75H7C6.80109 10.75 6.61032 10.671 6.46967 10.5303C6.32902 10.3897 6.25 10.1989 6.25 10C6.25 9.80109 6.32902 9.61032 6.46967 9.46967C6.61032 9.32902 6.80109 9.25 7 9.25H8.1875L5.46938 6.53062Z" fill="currentColor"/>
</svg>
