<svg xmlns="http://www.w3.org/2000/svg" width="16" height="17" viewBox="0 0 16 17" fill="none">
  <path d="M7.69145 0.25C8.23025 0.25 8.74941 0.352285 9.24891 0.556856C9.74842 0.761427 10.1918 1.0427 10.5791 1.40069C10.9664 1.75867 11.275 2.17348 11.5051 2.64512C11.7352 3.11677 11.8503 3.62534 11.8503 4.17085V7.68096H12.8151C13.118 7.68096 13.3788 7.79126 13.5975 8.01184C13.8162 8.23243 13.9256 8.49544 13.9256 8.80087V14.0611C13.9256 14.3665 13.8723 14.6521 13.7658 14.918C13.6592 15.1838 13.5134 15.4157 13.3283 15.6137C13.1432 15.8117 12.9245 15.9672 12.6721 16.0803C12.4197 16.1934 12.1421 16.25 11.8392 16.25H3.34212C3.03926 16.25 2.76444 16.1934 2.51765 16.0803C2.27087 15.9672 2.06054 15.8173 1.88667 15.6306C1.71281 15.444 1.5782 15.2262 1.48286 14.9774C1.38752 14.7285 1.33984 14.4627 1.33984 14.1798V8.80087C1.33984 8.49544 1.4464 8.23243 1.65953 8.01184C1.87265 7.79126 2.13065 7.68096 2.43352 7.68096H3.4821V4.17085C3.4821 3.62534 3.58874 3.11677 3.80201 2.64512C4.01527 2.17348 4.30993 1.75867 4.68599 1.40069C5.06204 1.0427 5.50542 0.761427 6.01614 0.556856C6.52686 0.352285 7.0853 0.25 7.69145 0.25ZM7.6241 2.39794C7.01796 2.39794 6.52967 2.59399 6.15924 2.98607C5.78881 3.37816 5.6036 3.93219 5.60361 4.64817L5.60354 7.68096H9.81297V4.64817C9.81297 3.93219 9.61654 3.37816 9.22366 2.98607C8.83079 2.59399 8.2976 2.39794 7.6241 2.39794Z" fill="currentColor"/>
</svg>