<svg xmlns="http://www.w3.org/2000/svg" width="16" height="17" viewBox="0 0 16 17" fill="none">
  <g>
    <circle cx="8" cy="8.25" r="8" fill="currentColor" fill-opacity="0.05"/>
    <path d="M6.90954 9.95606C6.81728 9.95606 6.77114 9.9019 6.77114 9.79357V9.18796C6.77114 8.85315 6.85316 8.55773 7.01719 8.3017C7.18122 8.04567 7.38625 7.81425 7.63229 7.60746C7.87834 7.39082 8.11925 7.1791 8.35504 6.9723C8.60109 6.76551 8.80612 6.54887 8.97015 6.32238C9.13418 6.08604 9.21619 5.82509 9.21619 5.53951C9.21619 5.23424 9.11367 5.01268 8.90864 4.87481C8.71385 4.7271 8.40118 4.65325 7.9706 4.65325C7.46826 4.65325 7.1197 4.77634 6.92492 5.02253C6.74039 5.25886 6.65325 5.59367 6.6635 6.02696C6.6635 6.15497 6.61224 6.21898 6.50972 6.21898H5.18725C5.11548 6.21898 5.06422 6.19929 5.03347 6.1599C5.01297 6.12051 5.00271 6.06635 5.00271 5.99742C4.97196 5.08161 5.20262 4.39722 5.69471 3.94424C6.19705 3.48141 6.97105 3.25 8.01673 3.25C9.03166 3.25 9.78004 3.43218 10.2619 3.79653C10.754 4.15103 11 4.67294 11 5.36226C11 5.80539 10.9129 6.19436 10.7386 6.52917C10.5746 6.85414 10.3695 7.14463 10.1235 7.40066C9.87743 7.64685 9.63139 7.87334 9.38535 8.08013C9.1393 8.28693 8.92914 8.4888 8.75486 8.68575C8.59083 8.88269 8.50882 9.09441 8.50882 9.3209V9.79357C8.50882 9.9019 8.45756 9.95606 8.35504 9.95606H6.90954ZM7.6938 13.25C7.33499 13.25 7.06332 13.1712 6.87879 13.0137C6.70451 12.8463 6.61737 12.605 6.61737 12.2899V12.0535C6.61737 11.7483 6.70451 11.5169 6.87879 11.3593C7.06332 11.1919 7.33499 11.1082 7.6938 11.1082C8.06287 11.1082 8.33454 11.1919 8.50882 11.3593C8.69335 11.5169 8.78562 11.7483 8.78562 12.0535V12.2899C8.78562 12.605 8.69335 12.8463 8.50882 13.0137C8.33454 13.1712 8.06287 13.25 7.6938 13.25Z" fill="currentColor"/>
  </g>
</svg>