<svg xmlns="http://www.w3.org/2000/svg" width="20" height="20" viewBox="0 0 20 20" fill="none">
  <path fill-rule="evenodd" clip-rule="evenodd" d="M14.3357 3.18514C14.4586 3.06191 14.6202 3 14.7815 3C14.9427 3 15.104 3.06191 15.2272 3.18514L16.5232 4.48112C16.7689 4.72685 16.7689 5.12618 16.5232 5.37264L15.6146 6.28125L13.4271 4.09375L14.3357 3.18514ZM6.5 11.0208L12.396 5.12484L14.5835 7.31234L8.6875 13.2083H6.5V11.0208ZM3 14.2C3 15.7464 4.2536 17 5.8 17H14.2C15.7464 17 17 15.7464 17 14.2V10.3333C16.998 9.81926 16.5807 9.40356 16.0667 9.40356C15.5526 9.40356 15.1353 9.81926 15.1333 10.3333V14.2C15.1333 14.7155 14.7155 15.1333 14.2 15.1333H5.8C5.28454 15.1333 4.86667 14.7155 4.86666 14.2V5.80001C4.86666 5.28454 5.28453 4.86667 5.8 4.86667H9.66666C10.001 4.86795 10.3104 4.69034 10.4779 4.40104C10.6455 4.11174 10.6455 3.75494 10.4779 3.46564C10.3104 3.17635 10.001 2.99873 9.66666 3.00001H5.8C4.2536 3.00001 3 4.25362 3 5.80001V14.2Z" />
</svg>
