<svg xmlns="http://www.w3.org/2000/svg" width="20" height="20" viewBox="0 0 20 20" fill="none">
  <path d="M3.08711 9H6H16.6364C17.1886 9 17.6364 8.55228 17.6364 8C17.6364 7.44772 17.1886 7 16.6364 7H7L7.62478 3.87612C7.72574 3.37128 7.08991 3.06178 6.75486 3.45267L2.70748 8.1746C2.42948 8.49894 2.65993 9 3.08711 9Z" fill="currentColor" />
  <path d="M16.9129 11H14H3C2.44772 11 2 11.4477 2 12C2 12.5523 2.44771 13 3 13H13L12.3752 16.1239C12.2743 16.6287 12.9101 16.9382 13.2451 16.5473L17.2925 11.8254C17.5705 11.5011 17.3401 11 16.9129 11Z" fill="currentColor" />
</svg>
