<svg xmlns="http://www.w3.org/2000/svg" width="28" height="28" viewBox="0 0 28 28" fill="none">
  <path fill-rule="evenodd" clip-rule="evenodd" d="M14 25.1998C20.1856 25.1998 25.2001 20.1854 25.2001 13.9998C25.2001 7.81422 20.1856 2.7998 14 2.7998C7.81446 2.7998 2.80005 7.81422 2.80005 13.9998C2.80005 20.1854 7.81446 25.1998 14 25.1998ZM14.0009 19.5998C13.2277 19.5998 12.6009 18.973 12.6009 18.1998V15.3998H9.8009C9.0277 15.3998 8.4009 14.773 8.4009 13.9998C8.4009 13.2266 9.0277 12.5998 9.8009 12.5998H12.6009V9.79981C12.6009 9.02661 13.2277 8.39981 14.0009 8.39981C14.7741 8.39981 15.4009 9.02661 15.4009 9.79981V12.5998H18.2009C18.9741 12.5998 19.6009 13.2266 19.6009 13.9998C19.6009 14.773 18.9741 15.3998 18.2009 15.3998H15.4009V18.1998C15.4009 18.973 14.7741 19.5998 14.0009 19.5998Z" fill="currentColor" />
</svg>
