<svg xmlns="http://www.w3.org/2000/svg" width="14" height="10" viewBox="0 0 14 10" fill="none">
  <path d="M6.66671 10C4.22221 10 2.04138 8.45734 0.129054 5.44367C-0.043018 5.17292 -0.043018 4.82708 0.129054 4.55633C2.04137 1.54267 4.22219 0 6.66671 0C9.11121 0 11.292 1.54266 13.2044 4.55633C13.3764 4.82708 13.3764 5.17292 13.2044 5.44367C11.2921 8.45733 9.11123 10 6.66671 10ZM6.66671 1C4.64304 1 2.76888 2.31016 1.03988 5C2.76888 7.68984 4.64304 9 6.66671 9C8.69038 9 10.5645 7.68984 12.2935 5C10.5645 2.31016 8.69038 1 6.66671 1ZM6.66671 7.33333C5.36655 7.33333 4.31254 6.28867 4.31254 5C4.31254 3.71133 5.36655 2.66667 6.66671 2.66667C7.96687 2.66667 9.02088 3.71133 9.02088 5C9.02088 6.28867 7.96687 7.33333 6.66671 7.33333ZM6.66671 6.33333C7.40971 6.33333 8.01204 5.73633 8.01204 5C8.01204 4.26367 7.40971 3.66667 6.66671 3.66667C5.92371 3.66667 5.32138 4.26367 5.32138 5C5.32138 5.73633 5.92371 6.33333 6.66671 6.33333Z" fill="currentColor"/>
</svg>
