<svg width="12" height="12" viewBox="0 0 12 12" fill="none" xmlns="http://www.w3.org/2000/svg">
<path d="M1.91667 0.75C1.27208 0.75 0.75 1.27208 0.75 1.91667V10.0833C0.75 10.7279 1.27208 11.25 1.91667 11.25H10.0833C10.7279 11.25 11.25 10.7279 11.25 10.0833V1.91667C11.25 1.27208 10.7279 0.75 10.0833 0.75H1.91667ZM2.5 3.08333H9.5C9.822 3.08333 10.0833 3.34467 10.0833 3.66667V8.33333C10.0833 8.65533 9.822 8.91667 9.5 8.91667H2.5C2.178 8.91667 1.91667 8.65533 1.91667 8.33333V3.66667C1.91667 3.34467 2.178 3.08333 2.5 3.08333ZM3.66667 4.25C3.34467 4.25 3.08333 4.51133 3.08333 4.83333C3.08333 5.15533 3.34467 5.41667 3.66667 5.41667H8.33333C8.65533 5.41667 8.91667 5.15533 8.91667 4.83333C8.91667 4.51133 8.65533 4.25 8.33333 4.25H3.66667ZM3.66667 6.58333C3.34467 6.58333 3.08333 6.84467 3.08333 7.16667C3.08333 7.48867 3.34467 7.75 3.66667 7.75H4.83333C5.15533 7.75 5.41667 7.48867 5.41667 7.16667C5.41667 6.84467 5.15533 6.58333 4.83333 6.58333H3.66667ZM7.16667 6.58333C6.84467 6.58333 6.58333 6.84467 6.58333 7.16667C6.58333 7.48867 6.84467 7.75 7.16667 7.75H8.33333C8.65533 7.75 8.91667 7.48867 8.91667 7.16667C8.91667 6.84467 8.65533 6.58333 8.33333 6.58333H7.16667Z" fill="currentColor"/>
</svg>
